<svg width="80" height="80" viewBox="0 0 80 80" fill="none" xmlns="http://www.w3.org/2000/svg">
<path d="M68.472 11.1721C68.472 11.1721 67.1829 10.4278 64.6045 8.93938C62.0261 7.45097 59.9206 6.18789 59.1718 6.59699C58.423 7.0061 52.1617 11.1049 52.1617 11.1049L60.2382 15.8146L68.472 11.1721Z" fill="white" stroke="white" stroke-width="0.4" stroke-miterlimit="10" stroke-linejoin="round"/>
<path d="M57.4033 40.6814L61.5473 37.682L70.6246 20.7138L64.4988 17.1304L53.4589 37.4981C53.4589 37.4981 53.1943 38.2045 53.7313 38.5148C54.2684 38.825 57.4033 40.6814 57.4033 40.6814Z" fill="white" stroke="white" stroke-width="0.4" stroke-miterlimit="10" stroke-linejoin="round"/>
<path d="M62.6125 8.91467C63.1269 8.61874 63.8605 8.48964 64.5554 8.89048L74.2811 14.5056C75.7851 15.374 75.5612 17.2504 74.8171 18.5392L64.8933 35.7276C64.4845 36.4668 64.0856 36.9849 63.3472 37.4132L57.7118 40.6522C57.2488 40.9578 56.7752 40.2896 57.1004 39.7263L67.548 20.878C67.7263 20.5565 67.6158 20.1514 67.299 19.9649L55.8027 13.1951L62.6125 8.91467Z" fill="#36FFFF" stroke="black" stroke-width="0.4" stroke-miterlimit="10" stroke-linejoin="round"/>
<path fillRule="evenodd" clipRule="evenodd" d="M62.3638 36.5707C63.2975 37.1103 63.8715 38.1079 63.8688 39.1863L63.79 71.0131C63.7842 73.3294 61.2755 74.7729 59.2701 73.6138L20.1474 51.0022C19.2137 50.4626 18.6397 49.465 18.6423 48.3866L18.7341 11.3542L62.3638 36.5707Z" fill="#17171A" stroke="white" stroke-width="0.4" stroke-linejoin="round"/>
<path d="M66.6944 71.8311L63.4317 73.1019C63.7765 72.6894 63.9953 72.1439 63.9953 71.3888C63.9953 70.5841 64.0027 66.8108 64.0102 63.2382L64.0204 58.4268L64.0238 56.8772L64.0247 56.4465L64.025 56.3334L64.025 56.3044L64.025 56.2971L64.025 56.2953L64.025 56.2948C64.025 56.2948 64.025 56.2948 64.0248 56.2948H64.025L64.0633 42.7844C64.0695 40.5693 62.8983 38.5178 60.9875 37.3972L19.922 13.3128C18.5973 12.5359 18.6012 10.6194 19.9291 9.84795C21.5866 8.88497 23.6343 8.88918 25.2879 9.85897L66.8365 34.2266C68.6244 35.2752 69.7204 37.1949 69.7146 39.2676L69.6766 52.7781L69.6375 67.5384C69.6325 69.4383 68.4648 71.1415 66.6944 71.8311Z" fill="white" stroke="white" stroke-width="0.4" stroke-linejoin="round"/>
<path d="M66.4531 71.9083L65.4176 72.2822C65.4516 72.1741 65.4694 72.054 65.4694 71.9207C65.4694 71.5053 65.4732 65.3711 65.4771 59.3406L65.4823 51.1007L65.4841 48.4039L65.4846 47.6501L65.4847 47.4517L65.4847 47.4008L65.4847 47.388L65.4847 47.3847V47.3841V47.3839L65.4998 42.0697C65.506 39.8638 64.3442 37.8192 62.4459 36.6954L21.4516 12.4272C20.8345 12.0619 20.8381 11.1675 21.4583 10.8073C22.2873 10.3256 23.3119 10.3298 24.137 10.8182L65.3656 35.2251C67.1419 36.2767 68.229 38.1898 68.2231 40.254L68.2082 45.5665L68.2082 45.5684L67.9058 69.8664C67.8944 70.7833 67.3155 71.5969 66.4531 71.9083Z" fill="#17171A" stroke="white" stroke-width="0.4" stroke-linejoin="round"/>
<path fillRule="evenodd" clipRule="evenodd" d="M65.5986 53.3765C64.4773 54.0234 63.0957 54.0214 61.9763 53.3712L61.8947 53.3238L61.9183 53.3104L52.6424 47.9568C52.4947 47.8494 52.321 47.7835 52.1393 47.7657C51.9576 47.748 51.7744 47.7791 51.6088 47.8559L53.4999 46.7573C53.6656 46.6806 53.8487 46.6495 54.0304 46.6672C54.2121 46.6849 54.3858 46.7509 54.5335 46.8582L62.0107 51.1725C63.1289 51.8177 64.5062 51.8176 65.6243 51.1724L69.9929 48.6512V48.266L70.4059 48.495C71.2253 48.9495 71.2353 50.1243 70.4237 50.5926L65.5986 53.3765Z" fill="white" stroke="white" stroke-width="0.4" stroke-linejoin="round"/>
<path d="M71.1496 49.9888C71.0376 50.1129 70.9092 50.2481 70.7615 50.3977L65.4005 53.4922C64.4022 54.0684 63.172 54.067 62.1749 53.4886L52.6431 47.9582C51.8414 47.495 51.1883 47.8675 51.1856 48.7884L51.169 54.5976C51.1673 55.1745 51.4744 55.7081 51.9741 55.9965L62.2012 61.8996C63.1972 62.4746 64.4244 62.4746 65.4205 61.8996L69.6236 59.4735C70.5532 58.9369 71.1271 57.9463 71.1301 56.873L71.1496 49.9888Z" fill="#17171A" stroke="white" stroke-width="0.4" stroke-linejoin="round"/>
<circle cx="1.59636" cy="1.59636" r="1.59636" transform="matrix(0.859406 0.511293 0 1 52.6761 50.6169)" fill="white"/>
<path d="M29.8829 36.7542C29.5473 36.5604 29.2287 36.3511 28.6658 36.6296C28.1028 36.908 25.4221 38.4643 24.2648 39.2283C23.0324 40.0419 22.3509 40.5584 21.7927 41.5253C21.2345 42.4921 12.4651 57.681 11.6209 59.1433C10.7768 60.6056 10.9688 61.9175 11.9752 62.4991C13.9883 63.6614 16.6141 65.224 16.6141 65.224L33.2325 38.735C33.2325 38.735 30.2185 36.948 29.8829 36.7542Z" fill="white" stroke="white" stroke-width="0.4" stroke-miterlimit="10" stroke-linejoin="round"/>
<path d="M32.5074 38.7502C33.1686 38.3653 33.7401 39.077 33.4495 39.5803L22.9642 58.1191C22.6951 58.5949 22.8501 59.1983 23.3152 59.4855L34.6765 66.5011L28.0228 70.5208C27.5066 70.817 26.8018 71.105 25.8532 70.5573L16.3996 65.0993C15.0574 64.3248 14.6564 62.6605 15.5249 61.1562L25.3243 44.1831C25.8825 43.2163 26.2547 42.5717 26.9491 42.113L32.5074 38.7502Z" fill="#36FFFF" stroke="black" stroke-width="0.4" stroke-miterlimit="10" stroke-linejoin="round"/>
</svg>
