<svg width="80" height="80" viewBox="0 0 80 80" fill="none" xmlns="http://www.w3.org/2000/svg">
<path d="M68.472 11.172C68.472 11.172 67.1829 10.4277 64.6045 8.93931C62.0261 7.45091 59.9206 6.18783 59.1718 6.59693C58.423 7.00604 52.1617 11.1049 52.1617 11.1049L60.2382 15.8145L68.472 11.172Z" fill="#0D0E0E" stroke="#0D0E0E" stroke-width="0.4" stroke-miterlimit="10" stroke-linejoin="round"/>
<path d="M57.4033 40.6813L61.5473 37.6819L70.6246 20.7136L64.4988 17.1302L53.4589 37.4979C53.4589 37.4979 53.1943 38.2044 53.7313 38.5146C54.2684 38.8248 57.4033 40.6813 57.4033 40.6813Z" fill="#0D0E0E" stroke="#0D0E0E" stroke-width="0.4" stroke-miterlimit="10" stroke-linejoin="round"/>
<path d="M62.6125 8.91449C63.1269 8.61856 63.8605 8.48946 64.5554 8.8903L74.2811 14.5055C75.7851 15.3738 75.5612 17.2502 74.8171 18.539L64.8933 35.7274C64.4845 36.4666 64.0856 36.9847 63.3472 37.4131L57.7118 40.652C57.2488 40.9577 56.7752 40.2894 57.1004 39.7261L67.548 20.8778C67.7263 20.5563 67.6158 20.1512 67.299 19.9647L55.8027 13.1949L62.6125 8.91449Z" fill="#36FFFF" stroke="#0D0E0E" stroke-width="0.4" stroke-miterlimit="10" stroke-linejoin="round"/>
<path fillRule="evenodd" clipRule="evenodd" d="M62.3638 36.5706C63.2975 37.1102 63.8715 38.1078 63.8688 39.1862L63.79 71.013C63.7842 73.3293 61.2755 74.7728 59.2701 73.6137L20.1474 51.0021C19.2137 50.4625 18.6397 49.4649 18.6423 48.3865L18.7341 11.3542L62.3638 36.5706Z" fill="white" stroke="#0D0E0E" stroke-width="0.4" stroke-linejoin="round"/>
<path d="M66.6944 71.831L63.4317 73.1018C63.7765 72.6894 63.9953 72.1438 63.9953 71.3888C63.9953 70.5841 64.0027 66.8107 64.0102 63.2381L64.0204 58.4267L64.0238 56.8771L64.0247 56.4464L64.025 56.3333L64.025 56.3044L64.025 56.297L64.025 56.2952L64.025 56.2947C64.025 56.2947 64.025 56.2947 64.0248 56.2947H64.025L64.0633 42.7843C64.0695 40.5692 62.8983 38.5177 60.9875 37.3971L19.922 13.3127C18.5973 12.5358 18.6012 10.6193 19.9291 9.84789C21.5866 8.88491 23.6343 8.88912 25.2879 9.85891L66.8365 34.2266C68.6244 35.2752 69.7204 37.1948 69.7146 39.2675L69.6766 52.778L69.6375 67.5383C69.6325 69.4383 68.4648 71.1414 66.6944 71.831Z" fill="#0D0E0E" stroke="#0D0E0E" stroke-width="0.4" stroke-linejoin="round"/>
<path d="M66.4531 71.9082L65.4176 72.2822C65.4516 72.1741 65.4694 72.054 65.4694 71.9207C65.4694 71.5053 65.4732 65.3711 65.4771 59.3406L65.4823 51.1007L65.4841 48.4039L65.4846 47.6501L65.4847 47.4517L65.4847 47.4008L65.4847 47.388L65.4847 47.3847V47.3841V47.3839L65.4998 42.0697C65.506 39.8637 64.3442 37.8192 62.4459 36.6954L21.4516 12.4272C20.8345 12.0619 20.8381 11.1675 21.4583 10.8072C22.2873 10.3256 23.3119 10.3298 24.137 10.8182L65.3656 35.2251C67.1419 36.2766 68.229 38.1898 68.2231 40.254L68.2082 45.5665L68.2082 45.5684L67.9058 69.8664C67.8944 70.7832 67.3155 71.5968 66.4531 71.9082Z" fill="white" stroke="#0D0E0E" stroke-width="0.4" stroke-linejoin="round"/>
<path fillRule="evenodd" clipRule="evenodd" d="M65.5986 53.3765C64.4773 54.0235 63.0957 54.0214 61.9763 53.3712L61.8947 53.3238L61.9183 53.3104L52.6424 47.9568C52.4947 47.8495 52.321 47.7835 52.1393 47.7658C51.9576 47.748 51.7744 47.7792 51.6088 47.8559L53.4999 46.7574C53.6656 46.6806 53.8487 46.6495 54.0304 46.6673C54.2121 46.685 54.3858 46.751 54.5335 46.8583L62.0107 51.1726C63.1289 51.8178 64.5062 51.8177 65.6243 51.1725L69.9929 48.6513V48.2661L70.4059 48.4951C71.2253 48.9495 71.2353 50.1244 70.4237 50.5926L65.5986 53.3765Z" fill="#0D0E0E" stroke="#0D0E0E" stroke-width="0.4" stroke-linejoin="round"/>
<path d="M71.1496 49.9889C71.0376 50.1129 70.9092 50.2481 70.7615 50.3978L65.4005 53.4922C64.4022 54.0685 63.172 54.0671 62.1749 53.4886L52.6431 47.9582C51.8414 47.4951 51.1883 47.8675 51.1856 48.7884L51.169 54.5976C51.1673 55.1745 51.4744 55.7082 51.9741 55.9966L62.2012 61.8997C63.1972 62.4746 64.4244 62.4746 65.4205 61.8997L69.6236 59.4735C70.5532 58.937 71.1271 57.9463 71.1301 56.873L71.1496 49.9889Z" fill="white" stroke="#0D0E0E" stroke-width="0.4" stroke-linejoin="round"/>
<circle cx="1.59636" cy="1.59636" r="1.59636" transform="matrix(0.859406 0.511293 0 1 52.6761 50.6171)" fill="#0D0E0E"/>
<path d="M29.8829 36.7541C29.5473 36.5603 29.2287 36.351 28.6658 36.6295C28.1028 36.9079 25.4221 38.4641 24.2648 39.2281C23.0324 40.0418 22.3509 40.5583 21.7927 41.5252C21.2345 42.492 12.4651 57.6809 11.6209 59.1432C10.7768 60.6055 10.9688 61.9174 11.9752 62.499C13.9883 63.6612 16.6141 65.2239 16.6141 65.2239L33.2325 38.7349C33.2325 38.7349 30.2185 36.9479 29.8829 36.7541Z" fill="#0D0E0E" stroke="#0D0E0E" stroke-width="0.4" stroke-miterlimit="10" stroke-linejoin="round"/>
<path d="M32.5074 38.7501C33.1686 38.3652 33.7401 39.0769 33.4495 39.5802L22.9642 58.1191C22.6951 58.5948 22.8501 59.1982 23.3152 59.4854L34.6765 66.501L28.0228 70.5207C27.5066 70.8169 26.8018 71.1049 25.8532 70.5572L16.3996 65.0992C15.0574 64.3247 14.6564 62.6604 15.5249 61.1562L25.3243 44.183C25.8825 43.2162 26.2547 42.5716 26.9491 42.1129L32.5074 38.7501Z" fill="#36FFFF" stroke="#0D0E0E" stroke-width="0.4" stroke-miterlimit="10" stroke-linejoin="round"/>
</svg>
