<svg width="141" height="120" viewBox="0 0 141 120" fill="none" xmlns="http://www.w3.org/2000/svg">
<path d="M62.5909 103.238L125.889 66.5097M92.1791 8.30029L28.8813 45.0279" stroke="white" stroke-width="0.483689" stroke-dasharray="1.16 1.16"/>
<path d="M23.5128 46.5708L18.1113 49.7057C22.5998 47.1007 28.8185 47.471 35.6756 51.4295C49.3069 59.2954 60.3205 78.3729 60.2759 94.0409C60.2503 101.816 57.5103 107.291 53.0871 109.867L58.4754 106.734V106.74C62.9063 104.161 65.6581 98.6889 65.6773 90.906C65.722 75.238 54.7084 56.167 41.0771 48.2947C34.2135 44.3298 28.0012 43.9595 23.5128 46.5708Z" fill="#17171A" stroke="white" stroke-width="0.483689"/>
<path d="M60.667 70.7759L55.2602 73.8975C58.4243 80.5062 60.2951 87.565 60.2766 94.0412C60.2511 101.816 57.5111 107.291 53.0879 109.868L58.4762 106.734V106.74C62.9071 104.161 65.6589 98.6892 65.6781 90.9063C65.6966 84.4338 63.8279 77.3805 60.667 70.7759Z" fill="white"/>
<path d="M53.0717 109.873C62.6968 104.28 62.6738 86.2789 53.0203 69.6659C43.3669 53.053 27.7385 44.1195 18.1134 49.7124C8.48824 55.3054 8.51124 73.3068 18.1647 89.9198C27.8182 106.533 43.4466 115.466 53.0717 109.873Z" fill="#A878FF" stroke="white" stroke-width="0.483689"/>
<path d="M49.5749 103.857C57.275 99.3824 57.2566 84.9812 49.5338 71.6909C41.811 58.4005 29.3083 51.2537 21.6083 55.7281C13.9082 60.2024 13.9266 74.6036 21.6493 87.8939C29.3721 101.184 41.8748 108.331 49.5749 103.857Z" fill="#17171A" stroke="white" stroke-width="0.483689"/>
<path d="M41.1938 84.5471C41.1938 84.5471 41.2321 84.5726 41.2513 84.5854C38.9017 87.0179 36.5521 89.4569 34.1898 91.9086C31.8594 86.7625 29.5417 81.6612 27.2305 76.5534L27.2688 76.5151C27.3645 76.6301 27.4603 76.745 27.5561 76.8599C29.6503 79.5032 31.7508 82.1273 33.8386 84.7769C33.9663 84.9429 34.0749 85.0451 34.1834 85.1089C34.2983 85.1791 34.4132 85.1919 34.5537 85.1791C36.7181 84.9429 38.8889 84.7258 41.0597 84.5088C41.098 84.5088 41.1363 84.5088 41.2002 84.5407L41.1938 84.5471Z" fill="white"/>
<path d="M34.0292 83.3338C31.7945 80.5054 29.5471 77.6898 27.3061 74.8678C27.255 74.8039 27.2167 74.7465 27.1465 74.6507C29.5088 71.5286 31.8712 68.4065 34.2526 65.2524C34.7379 66.4591 35.204 67.6212 35.6701 68.7832C37.4769 73.2971 39.2838 77.8111 41.097 82.3251C41.2694 82.7528 41.2247 82.8486 40.9438 82.8678C38.7602 83.0657 36.5894 83.2955 34.4187 83.519C34.3357 83.5254 34.2654 83.5318 34.1824 83.4871C34.1313 83.4615 34.0803 83.4105 34.0164 83.3338H34.0292Z" fill="white"/>
<path d="M93.3272 6.98583L87.9258 10.1207C92.4142 7.51576 98.6329 7.88607 105.49 11.8446C119.121 19.7105 130.135 38.7879 130.09 54.4559C130.065 62.2311 127.325 67.706 122.902 70.2822L128.29 67.1486V67.155C132.721 64.5756 135.473 59.1039 135.492 51.321C135.536 35.653 124.523 16.582 110.892 8.70969C104.028 4.74481 97.8157 4.3745 93.3272 6.98583Z" fill="#17171A" stroke="white" stroke-width="0.483689"/>
<path d="M130.481 31.1904L125.075 34.3121C128.239 40.9208 130.11 47.9795 130.091 54.4557C130.066 62.2309 127.326 67.7058 122.902 70.2821L128.291 67.1485V67.1549C132.722 64.5754 135.473 59.1038 135.493 51.3209C135.511 44.8483 133.642 37.795 130.481 31.1904Z" fill="white" stroke="white" stroke-width="0.483689"/>
<path d="M122.884 70.2878C132.509 64.6949 132.486 46.6934 122.833 30.0805C113.179 13.4675 97.551 4.53405 87.9259 10.127C78.3007 15.7199 78.3237 33.7214 87.9772 50.3343C97.6307 66.9473 113.259 75.8808 122.884 70.2878Z" fill="#36FFFF" stroke="white" stroke-width="0.483689"/>
<path d="M119.387 64.2723C127.087 59.7979 127.069 45.3967 119.346 32.1064C111.624 18.816 99.1208 11.6692 91.4208 16.1436C83.7207 20.6179 83.7391 35.0191 91.4618 48.3094C99.1846 61.5998 111.687 68.7466 119.387 64.2723Z" fill="#17171A" stroke="white" stroke-width="0.483689"/>
<path d="M70.047 52.1632C69.5873 52.4314 69.1372 52.9486 68.8882 53.5806L65.5841 61.7498C65.3351 62.3723 65.3255 62.9853 65.565 63.3396C65.814 63.694 66.2641 63.7419 66.7525 63.4545L83.5793 53.7434C84.3263 53.3125 84.9297 52.259 84.9297 51.4067C84.9297 50.5543 84.3168 50.1904 83.5698 50.6213L69.1659 58.9342L71.2154 53.8775C71.6081 52.9102 71.3974 52.0675 70.7557 51.9909C70.5354 51.9621 70.2864 52.0292 70.047 52.1728V52.1632Z" fill="white"/>
</svg>
