<svg width="151" height="117" viewBox="0 0 151 117" fill="none" xmlns="http://www.w3.org/2000/svg">
<path d="M102.749 98.3147L92.5938 104.213C94.0239 103.381 95.3431 102.472 96.5404 101.474C102.316 96.7183 105.409 90.0334 105.443 81.0536L115.597 75.1558C115.575 84.1355 112.471 90.8205 106.695 95.5764C105.487 96.5742 104.168 97.4833 102.749 98.3147Z" fill="white" stroke="white" stroke-width="0.500001" stroke-linejoin="round"/>
<path d="M36.7871 6.17712L46.942 0.279297L81.3532 6.95315L71.1984 12.8621L36.7871 6.17712Z" fill="#17171A" stroke="white" stroke-width="0.500001" stroke-linejoin="round"/>
<path d="M105.542 45.8767L115.697 39.9678L115.597 75.1663L105.442 81.0641L105.542 45.8767Z" fill="white" stroke="white" stroke-width="0.500001" stroke-linejoin="round"/>
<path d="M71.1973 12.862L81.3521 6.95312L115.697 39.9677L105.542 45.8766L71.1973 12.862Z" fill="#36363D" stroke="white" stroke-width="0.500001" stroke-linejoin="round"/>
<path d="M71.1979 12.8623L105.543 45.8769L105.443 81.0643C105.421 90.044 102.317 96.729 96.5407 101.485C90.6097 106.363 82.029 109.234 70.9208 110.321C59.8568 96.4297 51.3205 83.6806 45.4338 71.9847C40.057 61.2866 37.0527 51.6306 36.709 43.0721L36.6758 41.3759L36.7756 6.18848L71.1868 12.8734L71.1979 12.8623Z" fill="#17171A" stroke="white" stroke-width="0.500001" stroke-linejoin="round"/>
<path d="M71.2662 22.0351L98.6698 48.3818L98.5915 76.4608C98.5719 83.6249 96.0958 88.9588 91.4861 92.7562C86.759 96.6416 79.9179 98.9318 71.0509 99.8028C62.223 88.7141 55.4113 78.5454 50.7135 69.2086C46.4268 60.6743 44.0192 52.9621 43.7549 46.1308L43.7256 44.7802L43.8039 16.7012L71.276 22.0351H71.2662Z" fill="#17171A" stroke="white" stroke-width="0.500001" stroke-linejoin="round"/>
<path fill-rule="evenodd" clip-rule="evenodd" d="M73.7394 99.4855C65.0335 88.5197 58.3065 78.4556 53.6535 69.2076C49.3668 60.6733 46.9592 52.9611 46.6949 46.1298L46.6656 44.7792L46.7423 17.2707L43.8039 16.7002L43.7256 44.7792L43.7549 46.1298C44.0192 52.9611 46.4268 60.6733 50.7135 69.2076C55.4113 78.5444 62.223 88.7131 71.0509 99.8018C71.9688 99.7117 72.865 99.6063 73.7394 99.4855Z" fill="#A878FF"/>
<path d="M73.7394 99.4855L73.7736 99.7332C73.8625 99.7209 73.938 99.6618 73.9714 99.5785C74.0048 99.4952 73.991 99.4004 73.9352 99.3301L73.7394 99.4855ZM53.6535 69.2076L53.4301 69.3198L53.4302 69.32L53.6535 69.2076ZM46.6949 46.1298L46.445 46.1352L46.4451 46.1394L46.6949 46.1298ZM46.6656 44.7792L46.4155 44.7785L46.4156 44.7846L46.6656 44.7792ZM46.7423 17.2707L46.9923 17.2714C46.9926 17.1514 46.9077 17.0482 46.7899 17.0253L46.7423 17.2707ZM43.8039 16.7002L43.8515 16.4548C43.7784 16.4406 43.7027 16.4598 43.6451 16.5071C43.5875 16.5544 43.5541 16.625 43.5539 16.6995L43.8039 16.7002ZM43.7256 44.7792L43.4755 44.7785L43.4756 44.7846L43.7256 44.7792ZM43.7549 46.1298L43.505 46.1352L43.5051 46.1394L43.7549 46.1298ZM50.7135 69.2076L50.4901 69.3198L50.4902 69.32L50.7135 69.2076ZM71.0509 99.8018L70.8553 99.9575C70.9081 100.024 70.9909 100.059 71.0753 100.051L71.0509 99.8018ZM73.9352 99.3301C65.2359 88.3725 58.5197 78.323 53.8768 69.0952L53.4302 69.32C58.0934 78.5881 64.8312 88.6669 73.5436 99.641L73.9352 99.3301ZM53.8769 69.0954C49.5989 60.5785 47.2071 52.9025 46.9448 46.1201L46.4451 46.1394C46.7113 53.0197 49.1346 60.7681 53.4301 69.3198L53.8769 69.0954ZM46.9449 46.1243L46.9155 44.7737L46.4156 44.7846L46.445 46.1352L46.9449 46.1243ZM46.9156 44.7799L46.9923 17.2714L46.4923 17.27L46.4156 44.7785L46.9156 44.7799ZM43.7562 16.9456L46.6946 17.5161L46.7899 17.0253L43.8515 16.4548L43.7562 16.9456ZM43.9756 44.7799L44.0539 16.7009L43.5539 16.6995L43.4756 44.7785L43.9756 44.7799ZM44.0049 46.1243L43.9755 44.7737L43.4756 44.7846L43.505 46.1352L44.0049 46.1243ZM50.9369 69.0954C46.6589 60.5785 44.2671 52.9025 44.0048 46.1201L43.5051 46.1394C43.7713 53.0197 46.1946 60.7681 50.4901 69.3198L50.9369 69.0954ZM71.2465 99.6461C62.4251 88.5657 55.6243 78.4117 50.9368 69.0952L50.4902 69.32C55.1982 78.6771 62.0209 88.8606 70.8553 99.9575L71.2465 99.6461ZM73.7052 99.2379C72.8342 99.3582 71.9412 99.4632 71.0264 99.553L71.0753 100.051C71.9963 99.9602 72.8958 99.8544 73.7736 99.7332L73.7052 99.2379Z" fill="white"/>
<path d="M71.6854 56.7071L76.7617 53.7549L76.7257 69.3678L71.6494 72.308L71.6854 56.7071Z" fill="white" stroke="white" stroke-width="0.500001" stroke-linejoin="round"/>
<path d="M66.8379 38.586L71.9142 35.6338L84.7309 58.3512L79.6546 61.3034L66.8379 38.586Z" fill="#36363D" stroke="white" stroke-width="0.500001" stroke-linejoin="round"/>
<path d="M66.838 38.5859L79.6547 61.3033L71.6862 56.7071L71.6502 72.308L61.8577 66.6677L61.9057 51.0547L53.9492 46.4584L66.838 38.5859Z" fill="#00F0FF" stroke="white" stroke-width="0.500001" stroke-linejoin="round"/>
</svg>
