<svg width="141" height="121" viewBox="0 0 141 121" fill="none" xmlns="http://www.w3.org/2000/svg">
<path d="M62.5909 103.92L125.889 67.1914M92.1791 8.98193L28.8813 45.7095" stroke="#0D0E0E" stroke-width="0.483689" stroke-dasharray="1.16 1.16"/>
<path d="M23.5128 47.2524L18.1113 50.3873C22.5998 47.7824 28.8185 48.1527 35.6756 52.1112C49.3069 59.9771 60.3205 79.0545 60.2759 94.7225C60.2503 102.498 57.5103 107.973 53.0871 110.549L58.4754 107.415V107.422C62.9063 104.842 65.6581 99.3705 65.6773 91.5876C65.722 75.9196 54.7084 56.8486 41.0771 48.9763C34.2135 45.0114 28.0012 44.6411 23.5128 47.2524Z" fill="white" stroke="#0D0E0E" stroke-width="0.483689"/>
<path d="M60.667 71.4575L55.2602 74.5792C58.4243 81.1879 60.2951 88.2466 60.2766 94.7228C60.2511 102.498 57.5111 107.973 53.0879 110.549L58.4762 107.416V107.422C62.9071 104.843 65.6589 99.3709 65.6781 91.588C65.6966 85.1154 63.8279 78.0621 60.667 71.4575Z" fill="#0D0E0E"/>
<path d="M53.0717 110.555C62.6968 104.962 62.6738 86.9605 53.0203 70.3476C43.3669 53.7346 27.7385 44.8011 18.1134 50.3941C8.48824 55.987 8.51124 73.9885 18.1647 90.6014C27.8182 107.214 43.4466 116.148 53.0717 110.555Z" fill="#A878FF" stroke="#0D0E0E" stroke-width="0.483689"/>
<path d="M49.5749 104.538C57.275 100.064 57.2566 85.6629 49.5338 72.3725C41.811 59.0821 29.3083 51.9353 21.6083 56.4097C13.9082 60.884 13.9266 75.2852 21.6493 88.5756C29.3721 101.866 41.8748 109.013 49.5749 104.538Z" fill="white" stroke="#0D0E0E" stroke-width="0.483689"/>
<path d="M41.1938 85.2287C41.1938 85.2287 41.2321 85.2542 41.2513 85.267C38.9017 87.6996 36.5521 90.1385 34.1898 92.5902C31.8594 87.4442 29.5417 82.3428 27.2305 77.2351L27.2688 77.1968C27.3645 77.3117 27.4603 77.4266 27.5561 77.5416C29.6503 80.1848 31.7508 82.8089 33.8386 85.4585C33.9663 85.6246 34.0749 85.7267 34.1834 85.7906C34.2983 85.8608 34.4132 85.8736 34.5537 85.8608C36.7181 85.6245 38.8889 85.4075 41.0597 85.1904C41.098 85.1904 41.1363 85.1904 41.2002 85.2223L41.1938 85.2287Z" fill="#0D0E0E"/>
<path d="M34.0292 84.0155C31.7945 81.1871 29.5471 78.3714 27.3061 75.5494C27.255 75.4856 27.2167 75.4281 27.1465 75.3323C29.5088 72.2102 31.8712 69.0881 34.2526 65.9341C34.7379 67.1408 35.204 68.3028 35.6701 69.4648C37.4769 73.9788 39.2838 78.4927 41.097 83.0067C41.2694 83.4345 41.2247 83.5302 40.9438 83.5494C38.7602 83.7473 36.5894 83.9772 34.4187 84.2006C34.3357 84.207 34.2654 84.2134 34.1824 84.1687C34.1313 84.1432 34.0803 84.0921 34.0164 84.0155H34.0292Z" fill="#0D0E0E"/>
<path d="M93.3272 7.66747L87.9258 10.8023C92.4142 8.1974 98.6329 8.56771 105.49 12.5262C119.121 20.3921 130.135 39.4695 130.09 55.1375C130.065 62.9127 127.325 68.3876 122.902 70.9639L128.29 67.8303V67.8366C132.721 65.2572 135.473 59.7856 135.492 52.0027C135.536 36.3347 124.523 17.2636 110.892 9.39133C104.028 5.42645 97.8157 5.05614 93.3272 7.66747Z" fill="white" stroke="#0D0E0E" stroke-width="0.483689"/>
<path d="M130.481 31.8721L125.075 34.9937C128.239 41.6024 130.11 48.6612 130.091 55.1374C130.066 62.9126 127.326 68.3875 122.902 70.9637L128.291 67.8301V67.8365C132.722 65.2571 135.473 59.7854 135.493 52.0025C135.511 45.53 133.642 38.4767 130.481 31.8721Z" fill="#0D0E0E" stroke="#0D0E0E" stroke-width="0.483689"/>
<path d="M122.884 70.9695C132.509 65.3765 132.486 47.3751 122.833 30.7621C113.179 14.1492 97.551 5.21569 87.9259 10.8086C78.3007 16.4016 78.3237 34.403 87.9772 51.016C97.6307 67.6289 113.259 76.5624 122.884 70.9695Z" fill="#36FFFF" stroke="#0D0E0E" stroke-width="0.483689"/>
<path d="M119.387 64.9539C127.087 60.4795 127.069 46.0784 119.346 32.788C111.624 19.4977 99.1208 12.3509 91.4208 16.8252C83.7207 21.2996 83.7391 35.7007 91.4618 48.9911C99.1846 62.2815 111.687 69.4282 119.387 64.9539Z" fill="white" stroke="#0D0E0E" stroke-width="0.483689"/>
<path d="M70.047 52.8449C69.5873 53.113 69.1372 53.6302 68.8882 54.2623L65.5841 62.4315C65.3351 63.054 65.3255 63.6669 65.565 64.0213C65.814 64.3756 66.2641 64.4235 66.7525 64.1362L83.5793 54.4251C84.3263 53.9941 84.9297 52.9406 84.9297 52.0883C84.9297 51.2359 84.3168 50.872 83.5698 51.303L69.1659 59.6158L71.2154 54.5592C71.6081 53.5919 71.3974 52.7491 70.7557 52.6725C70.5354 52.6438 70.2864 52.7108 70.047 52.8545V52.8449Z" fill="#0D0E0E"/>
</svg>
