<svg width="221" height="220" viewBox="0 0 221 220" fill="none" xmlns="http://www.w3.org/2000/svg">
<g id="&#231;&#169;&#186;&#231;&#138;&#182;&#230;&#128;&#129;-">
<rect width="220" height="220" transform="translate(0.5)" fill="white"/>
<g id="Group 1430104453">
<g id="Group">
<path id="Vector" d="M159.86 107.79L89.3798 66.8302L89.3398 54.5102L159.82 95.4702L159.86 107.79Z" fill="#0D0E0E" stroke="#0D0E0E" stroke-width="0.5" stroke-linejoin="round"/>
<path id="Vector_2" d="M87.5901 50.6603L158.06 91.6203C159.14 92.2503 159.81 93.5803 159.82 95.4703L89.3401 54.5103C89.3401 52.6203 88.6601 51.2903 87.5801 50.6603H87.5901Z" fill="#0D0E0E" stroke="#0D0E0E" stroke-width="0.5" stroke-linejoin="round"/>
<path id="Union" d="M90.6013 45.4802L161.07 86.4234C159.2 85.3408 156.605 85.4937 153.751 87.1502C148.091 90.4202 143.491 98.3801 143.511 104.89L143.681 157.54L143.64 157.522L143.671 157.54C143.681 161.35 140.991 166.01 137.681 167.92C136.011 168.89 134.491 168.97 133.401 168.34L62.9238 127.382C64.0236 128.02 65.5326 127.93 67.2014 126.96C70.5114 125.05 73.2114 120.38 73.1914 116.58L73.2252 116.6L73.2013 116.58L73.0313 63.9304C73.0113 57.4204 77.6113 49.4601 83.2713 46.1901C86.1413 44.5401 88.7313 44.3802 90.6013 45.4702V45.4802Z" fill="white" stroke="#0D0E0E" stroke-width="0.5" stroke-linejoin="round"/>
<path id="Vector_3" d="M127.371 159.39L56.8906 118.43L61.1406 115.97L131.621 156.93L127.371 159.39Z" fill="white" stroke="#0D0E0E" stroke-width="0.5" stroke-linejoin="round"/>
<path id="Union_2" d="M127.386 166.948L127.391 166.94L127.371 159.39L56.8906 118.43L56.9106 125.99C56.9206 129.22 58.0606 131.5 59.9106 132.57L130.391 173.53C128.551 172.46 127.391 170.18 127.391 166.95L127.386 166.948Z" fill="white" stroke="#0D0E0E" stroke-width="0.5" stroke-linejoin="round"/>
</g>
<path id="Vector_4" d="M153.751 87.1501C159.441 83.8701 164.061 86.5001 164.081 93.0101L164.111 105.33L159.851 107.79L159.821 95.4701C159.811 91.6601 157.101 90.1201 153.791 92.0301C150.481 93.9401 147.761 98.6201 147.771 102.43L147.941 155.08C147.961 161.59 143.361 169.55 137.701 172.82C132.041 176.09 127.411 173.45 127.391 166.95L127.371 159.39L131.621 156.93L131.641 164.49C131.651 168.3 134.361 169.84 137.681 167.92C141.001 166 143.691 161.34 143.671 157.54L143.501 104.89C143.481 98.3801 148.081 90.4201 153.741 87.1501H153.751Z" fill="#E1E5E5" stroke="#0D0E0E" stroke-width="0.5" stroke-linejoin="round"/>
<path id="Union_3" fill-rule="evenodd" clip-rule="evenodd" d="M86.0645 85.8843L129.064 110.902L129.052 106.92L86.0645 81.902V85.8843ZM86.0645 103.384L129.064 128.402L129.052 124.42L86.0645 99.402V103.384Z" fill="#E1E5E5"/>
</g>
</g>
</svg>
