<svg width="14" height="14" viewBox="0 0 14 14" fill="none" xmlns="http://www.w3.org/2000/svg">
<g clip-path="url(#clip0_27937_92784)">
<path d="M4.08333 3.49984V1.74984C4.08333 1.59513 4.14479 1.44675 4.25419 1.33736C4.36358 1.22796 4.51196 1.1665 4.66667 1.1665H11.6667C11.8214 1.1665 11.9698 1.22796 12.0791 1.33736C12.1885 1.44675 12.25 1.59513 12.25 1.74984V9.9165C12.25 10.0712 12.1885 10.2196 12.0791 10.329C11.9698 10.4384 11.8214 10.4998 11.6667 10.4998H9.91667V12.2498C9.91667 12.5718 9.65417 12.8332 9.32925 12.8332H2.33742C2.26049 12.8336 2.18423 12.8189 2.11302 12.7898C2.04181 12.7607 1.97705 12.7178 1.92247 12.6636C1.86788 12.6094 1.82455 12.5449 1.79495 12.4739C1.76535 12.4029 1.75008 12.3268 1.75 12.2498L1.75175 4.08317C1.75175 3.76117 2.01425 3.49984 2.33917 3.49984H4.08333ZM2.91842 4.6665L2.91667 11.6665H8.75V4.6665H2.91842ZM5.25 3.49984H9.91667V9.33317H11.0833V2.33317H5.25V3.49984Z" fill="#0D0E0E"/>
</g>
<defs>
<clipPath id="clip0_27937_92784">
<rect width="14" height="14" fill="white"/>
</clipPath>
</defs>
</svg>
