<svg width="121" height="120" viewBox="0 0 121 120" fill="none" xmlns="http://www.w3.org/2000/svg">
<path d="M88.9463 22.033C88.9463 22.033 87.4189 21.151 84.3637 19.3874C81.3086 17.6238 78.8138 16.1271 77.9265 16.6119C77.0392 17.0967 69.6201 21.9534 69.6201 21.9534L79.19 27.534L88.9463 22.033Z" fill="white" stroke="white" stroke-width="0.3" stroke-miterlimit="10" stroke-linejoin="round"/>
<path d="M75.8312 56.9993L80.7415 53.4452L91.4973 33.3393L84.2386 29.0933L71.1573 53.2272C71.1573 53.2272 70.8438 54.0643 71.4802 54.4319C72.1165 54.7995 75.8312 56.9993 75.8312 56.9993Z" fill="white" stroke="white" stroke-width="0.3" stroke-miterlimit="10" stroke-linejoin="round"/>
<path d="M82.0036 19.3584C82.6131 19.0077 83.4824 18.8548 84.3057 19.3297L95.8299 25.9832C97.612 27.0121 97.3466 29.2354 96.4649 30.7626L84.7062 51.1294C84.2217 52.0053 83.7491 52.6192 82.8742 53.1267L76.1966 56.9646C75.648 57.3268 75.0869 56.5349 75.4722 55.8675L87.8686 33.5036C88.0704 33.1395 87.9453 32.6808 87.5866 32.4695L73.9346 24.4303L82.0036 19.3584Z" fill="#00F0FF" stroke="white" stroke-width="0.3" stroke-miterlimit="10" stroke-linejoin="round"/>
<path d="M29.2213 23.5202L25.8445 20.3926L25.6318 66.9099C25.6318 71.5063 26.4687 73.705 30.0812 75.9036C33.6936 78.1022 78.1739 103.734 78.1739 103.734C82.2091 106.033 85.5678 104.171 85.5832 99.5518V65.079C85.6726 62.5102 85.04 59.9676 83.7566 57.7382C82.4732 55.5088 80.5901 53.6814 78.3199 52.462L29.2213 23.5202Z" fill="#17171A" stroke="white" stroke-width="0.3" stroke-linejoin="round"/>
<ellipse cx="2.0725" cy="4.14501" rx="2.0725" ry="4.14501" transform="matrix(0.866025 0.5 0.00820296 0.999966 65.8213 67.8223)" fill="white" stroke="white" stroke-width="0.3" stroke-linejoin="round"/>
<ellipse cx="1.46697" cy="2.93394" rx="1.46697" ry="2.93394" transform="matrix(0.866025 0.5 0.00820296 0.999966 66.8037 69.3364)" fill="#17171A" stroke="white" stroke-width="0.3" stroke-linejoin="round"/>
<path fill-rule="evenodd" clip-rule="evenodd" d="M77.3386 51.8838L40.6045 82.0405C54.8443 90.2907 78.1747 103.735 78.1747 103.735C82.2099 106.033 85.5686 104.172 85.584 99.5524V65.0797C85.6734 62.5109 85.0408 59.9683 83.7574 57.7389C82.474 55.5095 80.5909 53.682 78.3207 52.4627L77.3386 51.8838Z" fill="#17171A"/>
<path d="M40.6045 82.0405L40.5093 81.9246C40.4713 81.9558 40.451 82.0036 40.455 82.0527C40.459 82.1017 40.4867 82.1456 40.5293 82.1703L40.6045 82.0405ZM77.3386 51.8838L77.4148 51.7546C77.3605 51.7226 77.2921 51.7279 77.2434 51.7679L77.3386 51.8838ZM78.1747 103.735L78.0998 103.865L78.1004 103.865L78.1747 103.735ZM85.584 99.5524L85.734 99.5529V99.5524H85.584ZM85.584 65.0797L85.434 65.0744V65.0797H85.584ZM83.7574 57.7389L83.6274 57.8137V57.8137L83.7574 57.7389ZM78.3207 52.4627L78.2444 52.592L78.2497 52.5948L78.3207 52.4627ZM40.6997 82.1564L77.4338 51.9997L77.2434 51.7679L40.5093 81.9246L40.6997 82.1564ZM40.5293 82.1703C47.6493 86.2955 57.042 91.7192 64.6546 96.1116C68.4608 98.3078 71.8222 100.246 74.2319 101.635C75.4367 102.33 76.4037 102.888 77.0695 103.271C77.4023 103.463 77.6599 103.612 77.8343 103.712C77.9215 103.762 77.9878 103.801 78.0324 103.826C78.0547 103.839 78.0715 103.849 78.0828 103.855C78.0884 103.859 78.0927 103.861 78.0955 103.863C78.0969 103.863 78.098 103.864 78.0987 103.864C78.0991 103.865 78.0993 103.865 78.0995 103.865C78.0997 103.865 78.0998 103.865 78.1747 103.735C78.2496 103.605 78.2495 103.605 78.2493 103.605C78.2491 103.605 78.2488 103.605 78.2485 103.605C78.2478 103.604 78.2467 103.603 78.2453 103.603C78.2425 103.601 78.2382 103.599 78.2326 103.595C78.2213 103.589 78.2045 103.579 78.1822 103.566C78.1376 103.541 78.0713 103.502 77.9841 103.452C77.8097 103.352 77.5522 103.203 77.2193 103.011C76.5535 102.628 75.5866 102.07 74.3817 101.376C71.972 99.9862 68.6107 98.0479 64.8045 95.8517C57.1919 91.4594 47.7995 86.0358 40.6797 81.9107L40.5293 82.1703ZM78.1004 103.865C80.1459 105.03 82.0528 105.159 83.4602 104.369C84.8687 103.578 85.7262 101.896 85.734 99.5529L85.434 99.5519C85.4264 101.828 84.5968 103.387 83.3133 104.107C82.0287 104.828 80.2386 104.738 78.2489 103.605L78.1004 103.865ZM85.734 99.5524V65.0797H85.434V99.5524H85.734ZM85.7339 65.0849C85.8243 62.4881 85.1848 59.9177 83.8874 57.664L83.6274 57.8137C84.8968 60.0188 85.5225 62.5337 85.4341 65.0745L85.7339 65.0849ZM83.8874 57.664C82.59 55.4104 80.6864 53.5631 78.3916 52.3305L78.2497 52.5948C80.4953 53.801 82.3579 55.6086 83.6274 57.8137L83.8874 57.664ZM78.3968 52.3335L77.4148 51.7546L77.2624 52.013L78.2445 52.5919L78.3968 52.3335Z" fill="white"/>
<path fill-rule="evenodd" clip-rule="evenodd" d="M39.0659 29.3232L28.2674 74.5973C26.1737 72.7545 25.6318 70.6084 25.6318 66.9099L25.8445 20.3926L29.2213 23.5202L39.0659 29.3232Z" fill="#A878FF"/>
<path d="M39.0659 29.3232L39.2118 29.358C39.227 29.294 39.1988 29.2274 39.142 29.194L39.0659 29.3232ZM28.2674 74.5973L28.1683 74.7099C28.2078 74.7446 28.2627 74.7562 28.3128 74.7402C28.363 74.7243 28.4011 74.6833 28.4133 74.6321L28.2674 74.5973ZM25.6318 66.9099L25.4818 66.9092V66.9099H25.6318ZM25.8445 20.3926L25.9464 20.2825C25.9027 20.2421 25.8393 20.2313 25.7847 20.255C25.7301 20.2787 25.6947 20.3324 25.6945 20.3919L25.8445 20.3926ZM29.2213 23.5202L29.1193 23.6302C29.1272 23.6375 29.1358 23.644 29.1451 23.6494L29.2213 23.5202ZM38.9199 29.2884L28.1215 74.5625L28.4133 74.6321L39.2118 29.358L38.9199 29.2884ZM25.4818 66.9099C25.4818 68.7643 25.6173 70.244 26.0218 71.4956C26.4277 72.7518 27.1023 73.7716 28.1683 74.7099L28.3665 74.4847C27.3388 73.5802 26.6957 72.6055 26.3072 71.4034C25.9173 70.1966 25.7818 68.754 25.7818 66.9099H25.4818ZM25.6945 20.3919L25.4818 66.9092L25.7818 66.9106L25.9945 20.3933L25.6945 20.3919ZM29.3232 23.4101L25.9464 20.2825L25.7425 20.5026L29.1193 23.6302L29.3232 23.4101ZM39.142 29.194L29.2974 23.391L29.1451 23.6494L38.9897 29.4524L39.142 29.194Z" fill="white"/>
<ellipse cx="8.35512" cy="16.7102" rx="8.35512" ry="16.7102" transform="matrix(0.866025 0.5 0.00820296 0.999966 57.4287 50.7412)" fill="#17171A" stroke="white" stroke-width="0.3" stroke-linejoin="round"/>
<ellipse cx="6.25759" cy="12.5152" rx="6.25759" ry="12.5152" transform="matrix(0.866025 0.5 0.00820296 0.999966 60.9287 55.3545)" fill="white" stroke="white" stroke-width="0.3" stroke-linejoin="round"/>
<path d="M91.1006 99.5988C92.4869 98.7594 93.2193 97.9078 93.2193 94.9181V61.3546C93.2193 55.506 90.1141 50.0972 85.0633 47.1482L34.5056 17.6295C32.0746 16.2102 29.0252 16.4091 26.7993 18.1324C25.3479 19.256 25.4945 21.4914 27.0803 22.4157L77.3219 51.7018C82.3784 54.6492 85.4881 60.0613 85.4881 65.9141V99.5988C85.4881 101.905 84.6163 103.526 83.301 104.295C83.301 104.295 89.7143 100.438 91.1006 99.5988Z" fill="#17171A" stroke="white" stroke-width="0.3" stroke-linejoin="round"/>
<path fill-rule="evenodd" clip-rule="evenodd" d="M85.4879 69.4086V99.5986C85.4879 101.858 84.6506 103.461 83.3792 104.248C83.328 104.278 83.3008 104.295 83.3008 104.295C83.3271 104.279 83.3532 104.264 83.3792 104.248C83.9702 103.892 87.7606 101.613 89.8992 100.324V67.2988L85.4879 69.4086Z" fill="#A878FF"/>
<path d="M85.4879 69.4086L85.4231 69.2733C85.371 69.2982 85.3379 69.3508 85.3379 69.4086H85.4879ZM83.3008 104.295L83.2235 104.166C83.1528 104.209 83.1297 104.3 83.1718 104.371C83.2138 104.442 83.3053 104.466 83.3765 104.424L83.3008 104.295ZM89.8992 100.324L89.9767 100.452C90.0217 100.425 90.0492 100.376 90.0492 100.324H89.8992ZM89.8992 67.2988H90.0492C90.0492 67.2473 90.0228 67.1994 89.9792 67.1719C89.9356 67.1445 89.881 67.1413 89.8345 67.1635L89.8992 67.2988ZM85.3379 69.4086V99.5986H85.6379V69.4086H85.3379ZM85.3379 99.5986C85.3379 101.823 84.5151 103.368 83.3003 104.12L83.4581 104.375C84.7862 103.554 85.6379 101.894 85.6379 99.5986H85.3379ZM83.3008 104.295C83.3781 104.423 83.3781 104.423 83.3781 104.423C83.3781 104.423 83.3781 104.423 83.3781 104.423C83.3781 104.423 83.3781 104.423 83.3781 104.423C83.3781 104.423 83.3781 104.423 83.3781 104.423C83.3781 104.423 83.3781 104.423 83.3782 104.423C83.3782 104.423 83.3783 104.423 83.3784 104.423C83.3786 104.423 83.3789 104.423 83.3794 104.423C83.3802 104.422 83.3815 104.421 83.3831 104.42C83.3865 104.418 83.3915 104.415 83.3981 104.411C83.4113 104.403 83.4309 104.392 83.4565 104.376L83.3019 104.119C83.2763 104.134 83.2567 104.146 83.2435 104.154C83.2369 104.158 83.2319 104.161 83.2285 104.163C83.2268 104.164 83.2256 104.165 83.2247 104.165C83.2243 104.166 83.224 104.166 83.2238 104.166C83.2237 104.166 83.2236 104.166 83.2236 104.166C83.2235 104.166 83.2235 104.166 83.2235 104.166C83.2235 104.166 83.2235 104.166 83.2235 104.166C83.2235 104.166 83.2235 104.166 83.2235 104.166C83.2235 104.166 83.2235 104.166 83.2235 104.166C83.2235 104.166 83.2235 104.166 83.3008 104.295ZM83.3003 104.12C83.2754 104.135 83.2503 104.151 83.2251 104.165L83.3765 104.424C83.4039 104.408 83.4311 104.392 83.4581 104.375L83.3003 104.12ZM83.4565 104.376C84.0475 104.021 87.838 101.741 89.9767 100.452L89.8218 100.195C87.6833 101.484 83.8929 103.764 83.3019 104.119L83.4565 104.376ZM89.7492 67.2988V100.324H90.0492V67.2988H89.7492ZM85.5526 69.5439L89.964 67.4341L89.8345 67.1635L85.4231 69.2733L85.5526 69.5439Z" fill="white"/>
<path fill-rule="evenodd" clip-rule="evenodd" d="M29.5815 19.3784C30.3911 18.7142 31.5284 18.624 32.4326 19.1522L82.9484 48.6645C87.9971 51.614 91.1007 57.0151 91.1007 62.8621C91.1007 75.2407 91.1007 95.5587 91.1007 96.8788C91.1007 98.7857 90.8888 99.6332 90.2532 100.057C89.6176 100.481 86.8632 102.176 86.8632 102.176C86.8632 102.176 88.1344 101.116 88.1344 98.7857C88.1344 97.1749 88.1344 76.7447 88.1344 64.2788C88.1344 58.3705 84.966 52.9211 79.8336 49.9941L29.7553 21.4337C28.9929 20.9989 28.903 19.935 29.5815 19.3784Z" fill="white" stroke="white" stroke-width="0.3" stroke-linecap="square" stroke-linejoin="round"/>
<path d="M94.5491 82.929C94.5491 83.4188 94.3028 83.8757 93.8936 84.1448L89.5888 86.9764C88.0554 87.9851 86.084 88.0418 84.4951 87.1231L66.9951 77.0048C65.1387 75.9315 64.0228 73.9245 64.0907 71.7813L64.2995 65.1871C64.3461 63.7159 65.9529 62.8332 67.2196 63.5829L83.7226 73.3497C85.2445 74.2504 87.1359 74.2515 88.6589 73.3526L93.2199 70.6604V69.1265L94.0996 69.686C94.3796 69.864 94.5491 70.1728 94.5491 70.5046V82.929Z" fill="white" stroke="white" stroke-width="0.3" stroke-linejoin="round"/>
<path d="M93.6427 84.3269L88.6868 87.471C87.1603 88.4395 85.2218 88.4787 83.6573 87.5727L65.0638 76.805C63.8686 76.1129 63.1328 74.8365 63.1328 73.4554V66.1212C63.1328 64.6301 64.7479 63.6991 66.0382 64.4464L83.8448 74.7599C85.3092 75.6081 87.1099 75.6317 88.5961 74.8223L93.6427 72.0738V84.3269Z" fill="#17171A" stroke="white" stroke-width="0.3" stroke-linejoin="round"/>
<path fill-rule="evenodd" clip-rule="evenodd" d="M73.8322 68.9614V81.8836L65.0638 76.8057C63.8686 76.1136 63.1328 74.8371 63.1328 73.4561V66.1218C63.1328 64.6308 64.7479 63.6998 66.0382 64.4471L73.8322 68.9614Z" fill="#00F0FF"/>
<path d="M73.8322 68.9614H73.9822V68.8749L73.9074 68.8316L73.8322 68.9614ZM73.8322 81.8836L73.7571 82.0134L73.9822 82.1438V81.8836H73.8322ZM65.0638 76.8057L64.9886 76.9355L65.0638 76.8057ZM66.0382 64.4471L65.963 64.5769L66.0382 64.4471ZM73.6822 68.9614V81.8836H73.9822V68.9614H73.6822ZM73.9074 81.7538L65.1389 76.6759L64.9886 76.9355L73.7571 82.0134L73.9074 81.7538ZM65.1389 76.6759C63.9901 76.0106 63.2828 74.7836 63.2828 73.4561H62.9828C62.9828 74.8907 63.7472 76.2166 64.9886 76.9355L65.1389 76.6759ZM63.2828 73.4561V66.1218H62.9828V73.4561H63.2828ZM63.2828 66.1218C63.2828 64.7464 64.7727 63.8875 65.963 64.5769L66.1133 64.3173C64.7231 63.5121 62.9828 64.5153 62.9828 66.1218H63.2828ZM65.963 64.5769L73.7571 69.0912L73.9074 68.8316L66.1133 64.3173L65.963 64.5769Z" fill="white"/>
<ellipse cx="1.56223" cy="3.12446" rx="1.56223" ry="3.12446" transform="matrix(0.866025 0.5 0.00820296 0.999966 65.1982 67.7324)" fill="white" stroke="white" stroke-width="0.3" stroke-linejoin="round"/>
<path d="M6.22949 33.3701C6.22949 33.3701 5.91684 33.7223 5.43083 34.2698C4.11284 35.7545 5.23843 38.9062 7.94591 41.3096C10.6534 43.7131 13.9163 44.4571 15.2342 42.9724L16.0329 42.0727L6.22949 33.3701Z" fill="#17171A" stroke="white" stroke-width="0.3"/>
<path fill-rule="evenodd" clip-rule="evenodd" d="M11.3609 43.3826L12.0671 42.587L9.43652 36.2178L16.033 42.0735L15.2343 42.9732C14.453 43.8533 12.9882 43.9503 11.3609 43.3826Z" fill="white"/>
<path d="M11.3609 43.3826L11.2487 43.283L11.1 43.4504L11.3115 43.5242L11.3609 43.3826ZM12.0671 42.587L12.1793 42.6865L12.2416 42.6164L12.2058 42.5297L12.0671 42.587ZM9.43652 36.2178L9.5361 36.1056L9.29788 36.275L9.43652 36.2178ZM16.033 42.0735L16.1451 42.1731L16.2447 42.0609L16.1325 41.9613L16.033 42.0735ZM15.2343 42.9732L15.1221 42.8736L15.2343 42.9732ZM11.473 43.4821L12.1793 42.6865L11.9549 42.4874L11.2487 43.283L11.473 43.4821ZM12.2058 42.5297L9.57516 36.1605L9.29788 36.275L11.9285 42.6442L12.2058 42.5297ZM16.1325 41.9613L9.5361 36.1056L9.33694 36.33L15.9334 42.1857L16.1325 41.9613ZM15.3465 43.0728L16.1451 42.1731L15.9208 41.9739L15.1221 42.8736L15.3465 43.0728ZM11.3115 43.5242C12.9557 44.0978 14.5024 44.0236 15.3465 43.0728L15.1221 42.8736C14.4036 43.683 13.0208 43.8027 11.4103 43.2409L11.3115 43.5242Z" fill="white"/>
<path d="M8.64604 40.5213C11.3532 42.9244 14.6163 43.6689 15.9344 42.1841C17.2525 40.6992 16.1264 37.5474 13.4193 35.1443C10.7121 32.7411 7.44905 31.9967 6.13096 33.4815C4.81286 34.9663 5.9389 38.1181 8.64604 40.5213Z" fill="#17171A" stroke="white" stroke-width="0.3"/>
<path d="M112.746 45.3945C112.746 45.3945 113.258 45.8265 114.053 46.4979C116.208 48.3188 115.265 52.9814 111.945 56.9128C108.624 60.8442 104.185 62.554 102.029 60.7331L100.723 59.6297L112.746 45.3945Z" fill="#17171A" stroke="white" stroke-width="0.3"/>
<path fill-rule="evenodd" clip-rule="evenodd" d="M107.562 60.5214L106.408 59.5465L108.815 50.0479L100.723 59.6296L102.029 60.733C103.307 61.8126 105.388 61.6511 107.562 60.5214Z" fill="white"/>
<path d="M107.562 60.5214L107.659 60.4068L107.83 60.5513L107.631 60.6545L107.562 60.5214ZM106.408 59.5465L106.311 59.6611L106.24 59.6006L106.263 59.5096L106.408 59.5465ZM108.815 50.0479L108.701 49.9511L108.961 50.0847L108.815 50.0479ZM100.723 59.6296L100.626 59.7442L100.511 59.6474L100.608 59.5328L100.723 59.6296ZM107.465 60.636L106.311 59.6611L106.505 59.4319L107.659 60.4068L107.465 60.636ZM106.263 59.5096L108.67 50.011L108.961 50.0847L106.553 59.5833L106.263 59.5096ZM100.608 59.5328L108.701 49.9511L108.93 50.1446L100.837 59.7264L100.608 59.5328ZM101.932 60.8476L100.626 59.7442L100.819 59.515L102.126 60.6184L101.932 60.8476ZM107.631 60.6545C105.441 61.7924 103.283 61.9882 101.932 60.8476L102.126 60.6184C103.332 61.637 105.335 61.5098 107.493 60.3883L107.631 60.6545Z" fill="white"/>
<path d="M110.8 55.9455C107.48 59.8764 103.041 61.5868 100.885 59.7658C98.7285 57.9448 99.6722 53.2819 102.992 49.351C106.312 45.42 110.752 43.7096 112.908 45.5307C115.064 47.3517 114.12 52.0146 110.8 55.9455Z" fill="#17171A" stroke="white" stroke-width="0.3"/>
<path d="M35.6392 52.3468C35.2415 52.1172 34.8639 51.8693 34.1969 52.1992C33.5299 52.5291 30.3534 54.3731 28.9822 55.2784C27.5218 56.2425 26.7144 56.8545 26.0529 58.0002C25.3915 59.1458 15.0005 77.1433 14.0003 78.876C13.0001 80.6087 13.2276 82.1632 14.4201 82.8524C16.8054 84.2295 19.9167 86.0811 19.9167 86.0811L39.6082 54.6939C39.6082 54.6939 36.0368 52.5765 35.6392 52.3468Z" fill="#A878FF" stroke="white" stroke-width="0.3" stroke-miterlimit="10" stroke-linejoin="round"/>
<path fill-rule="evenodd" clip-rule="evenodd" d="M23.9109 79.6282L16.2383 74.9997C18.9085 70.3747 23.1764 62.9826 25.095 59.6594L26.0529 58.0004C26.7143 56.8547 27.5218 56.2427 28.9822 55.2786C29.1363 55.1769 29.3111 55.0612 29.501 54.9356C31.001 53.9433 33.4415 52.3289 34.0336 52.0361C34.6749 51.7189 35.0487 51.9358 35.4299 52.1572C35.4452 52.166 35.4605 52.1749 35.4758 52.1838C35.8734 52.4134 39.4448 54.5309 39.4448 54.5309L23.9109 79.6282Z" fill="white"/>
<path d="M23.9109 79.6282L23.8334 79.7566L23.9604 79.8332L24.0384 79.7071L23.9109 79.6282ZM16.2383 74.9997L16.1084 74.9247L16.0348 75.0521L16.1608 75.1282L16.2383 74.9997ZM25.095 59.6594L25.2249 59.7344V59.7344L25.095 59.6594ZM26.0529 58.0004L26.1828 58.0754L26.0529 58.0004ZM28.9822 55.2786L28.8995 55.1534L28.9822 55.2786ZM29.501 54.9356L29.4182 54.8105L29.501 54.9356ZM34.0336 52.0361L33.9671 51.9016V51.9016L34.0336 52.0361ZM35.4299 52.1572L35.5052 52.0274L35.5052 52.0274L35.4299 52.1572ZM35.4758 52.1838L35.4008 52.3136L35.4008 52.3136L35.4758 52.1838ZM39.4448 54.5309L39.5724 54.6098L39.6528 54.4798L39.5213 54.4018L39.4448 54.5309ZM23.9883 79.4997L16.3158 74.8713L16.1608 75.1282L23.8334 79.7566L23.9883 79.4997ZM24.9651 59.5844C23.0465 62.9076 18.7786 70.2997 16.1084 74.9247L16.3682 75.0747C19.0384 70.4497 23.3063 63.0576 25.2249 59.7344L24.9651 59.5844ZM25.923 57.9254L24.9651 59.5844L25.2249 59.7344L26.1828 58.0754L25.923 57.9254ZM28.8995 55.1534C27.4373 56.1187 26.6033 56.747 25.923 57.9254L26.1828 58.0754C26.8253 56.9625 27.6062 56.3667 29.0648 55.4038L28.8995 55.1534ZM29.4182 54.8105C29.2283 54.9361 29.0535 55.0517 28.8995 55.1534L29.0648 55.4038C29.219 55.302 29.3939 55.1863 29.5837 55.0607L29.4182 54.8105ZM33.9671 51.9016C33.6613 52.0529 32.8942 52.5358 32.0262 53.0976C31.1539 53.6624 30.1681 54.3144 29.4182 54.8105L29.5837 55.0607C30.3339 54.5645 31.3184 53.9132 32.1893 53.3495C33.0646 52.7828 33.8138 52.3121 34.1001 52.1705L33.9671 51.9016ZM35.5052 52.0274C35.3181 51.9188 35.1078 51.7952 34.8574 51.7473C34.5996 51.6981 34.3127 51.7307 33.9671 51.9016L34.1001 52.1705C34.3957 52.0243 34.6164 52.0067 34.8011 52.042C34.9933 52.0787 35.1605 52.1742 35.3546 52.2869L35.5052 52.0274ZM35.5508 52.0539C35.5357 52.0451 35.5205 52.0363 35.5052 52.0274L35.3546 52.2869C35.3699 52.2957 35.3853 52.3047 35.4008 52.3136L35.5508 52.0539ZM39.4448 54.5309C39.5213 54.4018 39.5213 54.4018 39.5213 54.4018C39.5213 54.4018 39.5212 54.4018 39.5212 54.4017C39.521 54.4017 39.5209 54.4016 39.5207 54.4015C39.5202 54.4012 39.5196 54.4008 39.5187 54.4003C39.517 54.3993 39.5144 54.3978 39.5111 54.3958C39.5043 54.3917 39.4942 54.3858 39.4811 54.378C39.4549 54.3624 39.4163 54.3396 39.3671 54.3104C39.2686 54.252 39.1276 54.1684 38.9571 54.0674C38.616 53.8653 38.1571 53.5934 37.6859 53.3144C36.7439 52.7566 35.7506 52.1692 35.5508 52.0539L35.4008 52.3136C35.5987 52.4279 36.5899 53.0141 37.533 53.5725C38.0043 53.8515 38.4631 54.1234 38.8041 54.3255C38.9746 54.4265 39.1157 54.5101 39.2141 54.5685C39.2633 54.5976 39.3019 54.6205 39.3281 54.6361C39.3412 54.6438 39.3513 54.6498 39.3581 54.6538C39.3615 54.6558 39.364 54.6573 39.3657 54.6584C39.3666 54.6589 39.3672 54.6592 39.3677 54.6595C39.3679 54.6596 39.3681 54.6597 39.3682 54.6598C39.3682 54.6598 39.3683 54.6598 39.3683 54.6599C39.3683 54.6599 39.3683 54.6599 39.4448 54.5309ZM24.0384 79.7071L39.5724 54.6098L39.3173 54.4519L23.7833 79.5492L24.0384 79.7071Z" fill="white"/>
<path d="M38.7496 54.7126C39.5331 54.2565 40.2102 55.0999 39.8659 55.6962L27.4164 77.7079C27.1117 78.2467 27.2872 78.93 27.8139 79.2552L41.3198 87.595L33.4357 92.3581C32.8241 92.709 31.989 93.0503 30.8649 92.4013L19.6632 85.934C18.0728 85.0163 17.5977 83.0443 18.6267 81.2619L30.2382 61.1502C30.8997 60.0045 31.3406 59.2408 32.1634 58.6973L38.7496 54.7126Z" fill="#00F0FF" stroke="white" stroke-width="0.3" stroke-miterlimit="10" stroke-linejoin="round"/>
</svg>
