<svg width="101" height="100" viewBox="0 0 101 100" fill="none" xmlns="http://www.w3.org/2000/svg">
<g id="&#230;&#144;&#156;&#231;&#180;&#162;&#230;&#151;&#160;&#230;&#149;&#176;&#230;&#141;&#174;">
<g id="Group 1430104451">
<g id="Group">
<path id="Subtract" d="M30.2101 6.27018C30.1178 6.32389 30.0699 6.43026 30.0907 6.53497C30.1115 6.63967 30.1965 6.71961 30.3023 6.73397L33.2223 7.13016L80.2486 34.2773C81.5098 35.0053 82.285 36.3526 82.2808 37.8088L82.2033 64.428V64.4286L82.1988 91.0791C82.1988 91.1684 82.2465 91.251 82.3238 91.2956C82.4012 91.3403 82.4965 91.3402 82.5739 91.2955L84.2894 90.3041C85.256 89.7456 85.8514 88.7139 85.8514 87.5976V62.6031V62.6024L85.9248 35.9788C85.9293 34.3437 85.0588 32.8312 83.6429 32.0137L36.1867 4.61377C35.2195 4.05533 34.0278 4.05533 33.0606 4.61375L32.4393 4.97247L32.4385 4.97292L30.2101 6.27018Z" fill="white" stroke="#0D0E0E" stroke-width="0.5" stroke-linejoin="round"/>
<path id="Intersect" fill-rule="evenodd" clip-rule="evenodd" d="M84.2042 32.7194L80.9531 34.4595C81.9474 35.2737 82.5373 36.5001 82.5335 37.8095L82.4559 64.4287L82.4515 91.0791L84.167 90.0877C85.0563 89.5738 85.604 88.6246 85.604 87.5975V62.6023L85.6775 35.9781C85.6809 34.7166 85.1334 33.5323 84.2042 32.7194Z" fill="#0D0E0E"/>
<path id="Vector" d="M82.2443 91.2872C82.3215 91.3318 82.4167 91.3319 82.494 91.2874C82.5713 91.2429 82.619 91.1606 82.6193 91.0715L82.7812 37.8106C82.7862 36.175 81.9156 34.6618 80.499 33.844L32.6704 6.23377C31.0684 5.30897 29.0654 6.46167 29.06 8.31145L28.9102 60.3485C28.9099 60.4381 28.9576 60.5209 29.0352 60.5657L82.2443 91.2872Z" fill="white" stroke="#0D0E0E" stroke-width="0.5" stroke-linejoin="round"/>
<path id="Intersect_2" fill-rule="evenodd" clip-rule="evenodd" d="M29.1953 48.3507L29.282 18.2357L44.2943 27.036C45.1544 27.5402 45.8453 28.2884 46.2796 29.1858L50.2847 37.4628C50.7163 38.3548 51.4016 39.0995 52.2548 39.6037L76.1652 53.7325C77.5238 54.5353 78.4272 55.9288 78.6056 57.4968L82.3713 90.6039L82.3699 91.0706L77.3103 88.1494L29.1953 48.3507Z" fill="#E1E5E5"/>
</g>
<g id="Group_2">
<path id="Subtract_2" d="M17.6101 20.3506C17.517 20.4039 17.4683 20.5108 17.4891 20.6161C17.51 20.7213 17.5957 20.8016 17.7022 20.8154L20.0397 21.1189L36.0936 30.3856C36.7811 30.7825 37.3373 31.3719 37.6936 32.0812L42.348 41.3475C42.748 42.1438 43.3723 42.8056 44.144 43.2512L69.352 57.8084C70.3246 58.3701 71.0215 59.3093 71.277 60.403L77.6141 87.522L77.7745 93.633C77.7768 93.7209 77.8252 93.8012 77.9019 93.8443C77.9786 93.8874 78.0723 93.8871 78.1487 93.8433L80.8462 92.2983L80.8469 92.2978L82.4203 91.3894C82.5157 91.3343 82.5638 91.2233 82.5388 91.116L74.9076 58.4588C74.6205 57.2303 73.8378 56.1755 72.7453 55.5447L47.5463 40.9957C46.8594 40.5991 46.3036 40.0102 45.9473 39.3015L41.2838 30.0251C40.8836 29.2291 40.2593 28.5677 39.4877 28.1223L23.0294 18.622C22.2847 18.1921 21.3673 18.1922 20.6226 18.6221L20.123 18.9105L20.1223 18.9109L17.6101 20.3506Z" fill="white" stroke="#0D0E0E" stroke-width="0.5" stroke-linejoin="round"/>
<path id="Vector_2" d="M38.1386 31.8565C37.7385 31.06 37.1139 30.398 36.3418 29.9524L19.6877 20.3392C18.1406 19.4462 16.2718 20.8241 16.6675 22.5661L25.8482 62.98C26.0855 64.0245 26.7478 64.9227 27.6754 65.4582L76.6586 93.735C77.9384 94.4738 79.4825 93.328 79.1463 91.889L71.7622 60.2892C71.4752 59.061 70.6926 58.0062 69.6003 57.3754L44.3924 42.8179C43.7053 42.4211 43.1494 41.8318 42.7932 41.1228L38.1386 31.8565Z" fill="white" stroke="#0D0E0E" stroke-width="0.5" stroke-linejoin="round"/>
</g>
</g>
</g>
</svg>
