<svg width="28" height="28" viewBox="0 0 28 28" fill="none" xmlns="http://www.w3.org/2000/svg">
<g id="Frame" clip-path="url(#clip0_13085_134370)">
<g id="Group">
<path id="Vector" d="M14.0545 14.6123L25.0643 8.2168L25.0278 20.9556L14.0181 27.3511L14.0545 14.6123Z" fill="white" stroke="white" stroke-width="0.5" stroke-linejoin="round"/>
<path id="Vector_2" d="M2.97217 8.21707L13.9819 1.81641L25.0646 8.21707L14.0548 14.6125L2.97217 8.21707Z" fill="#17171A" stroke="white" stroke-width="0.5" stroke-linejoin="round"/>
<path id="Vector_3" d="M14.0547 14.6123L14.0182 27.3511L2.93555 20.9556L2.972 8.2168L14.0547 14.6123Z" fill="#17171A" stroke="white" stroke-width="0.5" stroke-linejoin="round"/>
<path id="Vector_4" d="M8.12168 14.26C9.19436 14.8788 10.0607 16.3795 10.0556 17.612C10.0556 18.4164 9.68428 18.896 9.12731 18.9734V22.002L7.0851 20.8263V17.7976C6.27027 16.7301 5.85255 15.2295 6.46624 14.3064C6.60033 14.1053 6.80146 13.9867 7.04384 13.9712C7.41 13.9506 7.77615 14.0589 8.12168 14.2549V14.26Z" fill="#00C2B7"/>
</g>
</g>
<defs>
<clipPath id="clip0_13085_134370">
<rect width="28" height="28" fill="white"/>
</clipPath>
</defs>
</svg>
