<svg width="28" height="28" viewBox="0 0 28 28" fill="none" xmlns="http://www.w3.org/2000/svg">
<g id="Frame">
<g id="Group 1430104399">
<g id="Group">
<path id="Vector" d="M20.0169 23.8393L17.0273 25.5767C17.3582 25.3833 17.6653 25.1729 17.9452 24.9422C19.2924 23.8342 20.0135 22.2767 20.0186 20.1847L23.0081 18.4473C23.0031 20.5393 22.2803 22.0968 20.9348 23.2048C20.6549 23.4355 20.3478 23.6476 20.0169 23.8393Z" fill="#0D0E0E" stroke="#0D0E0E" stroke-width="0.5" stroke-linejoin="round"/>
<path id="Vector_2" d="M4.02393 2.7374L7.01348 1L15.032 2.55416L12.0424 4.29156L4.02393 2.7374Z" fill="white" stroke="#0D0E0E" stroke-width="0.5" stroke-linejoin="round"/>
<path id="Vector_3" d="M20.0421 11.9854L23.0316 10.248L23.0096 18.4464L20.02 20.1838L20.0421 11.9854Z" fill="#0D0E0E" stroke="#0D0E0E" stroke-width="0.5" stroke-linejoin="round"/>
<path id="Vector_4" d="M12.0425 4.29209L15.032 2.55469L23.0319 10.2491L20.0423 11.9865L12.0425 4.29209Z" fill="white" stroke="#0D0E0E" stroke-width="0.5" stroke-linejoin="round"/>
<path id="Vector_5" d="M12.0423 4.29147L20.0438 11.9859L20.0201 20.1843C20.015 22.2763 19.2922 23.8339 17.9467 24.9418C16.5656 26.0769 14.5669 26.7454 11.9778 26.9999C9.40054 23.7626 7.41033 20.7917 6.03941 18.0668C4.78726 15.5761 4.08483 13.3246 4.00679 11.331L4 10.9357L4.02375 2.7373L12.0423 4.29147Z" fill="white" stroke="#0D0E0E" stroke-width="0.5" stroke-linejoin="round"/>
<path id="Union" fill-rule="evenodd" clip-rule="evenodd" d="M12.6086 9.6146L10.8844 8.61912V15.5875L12.6086 16.583V9.6146ZM11.7464 20.1167C12.3178 20.4466 12.781 20.1792 12.781 19.5194C12.781 18.8597 12.3178 18.0575 11.7464 17.7276C11.1751 17.3977 10.7119 17.6651 10.7119 18.3249C10.7119 18.9846 11.1751 19.7869 11.7464 20.1167Z" fill="#00C2B7"/>
</g>
</g>
</g>
</svg>
