<svg width="28" height="28" viewBox="0 0 28 28" fill="none" xmlns="http://www.w3.org/2000/svg">
<g id="Frame" clip-path="url(#clip0_13085_134342)">
<g id="Group">
<path id="Vector" d="M13.2918 23.7509L17.1903 21.4805L17.1847 24.5815L13.2808 26.8519L13.2918 23.7509Z" fill="#17171A" stroke="white" stroke-width="0.5" stroke-linejoin="round"/>
<path id="Vector_2" d="M13.3084 16.6132L17.2124 14.3428L17.2013 18.1471L13.2974 20.4174L13.3084 16.6132Z" fill="#17171A" stroke="white" stroke-width="0.5" stroke-linejoin="round"/>
<path id="Vector_3" d="M16.742 22.4051L20.646 20.1348L20.6349 23.4684L16.731 25.7387L16.742 22.4051Z" fill="white" stroke="white" stroke-width="0.5" stroke-linejoin="round"/>
<path id="Vector_4" d="M13.2974 20.4169L17.2013 18.1465L20.6457 20.1345L16.7417 22.4048L13.2974 20.4169Z" fill="#17171A" stroke="white" stroke-width="0.5" stroke-linejoin="round"/>
<g id="Union">
<path fill-rule="evenodd" clip-rule="evenodd" d="M13.9669 4.74121L10.0636 7.0112C9.65382 7.24932 9.39355 7.75877 9.39355 8.48419C9.39355 9.94056 10.418 11.7181 11.6861 12.4491L11.687 12.4485L11.686 12.4546C12.3229 12.8256 12.9043 12.8588 13.3196 12.6152L17.2165 10.3489L17.2236 10.3448M15.5806 10.1842L15.59 10.1787C14.3164 9.44771 13.2975 7.67017 13.2975 6.2138C13.2975 5.48878 13.5575 4.97949 13.9669 4.74121M15.5806 10.1842H15.59C16.2232 10.5531 16.8016 10.588 17.2165 10.3489" fill="#00C2B7"/>
<path d="M10.0636 7.0112L10.1892 7.22736L10.1893 7.22732L10.0636 7.0112ZM13.9669 4.74121L14.183 4.61559C14.1497 4.55825 14.095 4.51651 14.0309 4.49954C13.9667 4.48256 13.8985 4.49176 13.8412 4.5251L13.9669 4.74121ZM11.6861 12.4491L11.5612 12.6656C11.6388 12.7104 11.7344 12.7102 11.8118 12.6652L11.6861 12.4491ZM11.687 12.4485L11.9337 12.4895C11.9495 12.394 11.9088 12.2978 11.8291 12.2428C11.7494 12.1878 11.6451 12.1837 11.5614 12.2324L11.687 12.4485ZM11.686 12.4546L11.4394 12.4136C11.4224 12.516 11.4705 12.6183 11.5602 12.6706L11.686 12.4546ZM13.3196 12.6152L13.1939 12.399L13.1931 12.3995L13.3196 12.6152ZM17.2165 10.3489L17.3422 10.565L17.3422 10.565L17.2165 10.3489ZM17.2236 10.3448L17.3492 10.5609C17.4686 10.4915 17.5091 10.3385 17.4397 10.2191L17.2236 10.3448ZM15.59 10.1787L15.7157 10.3948C15.7929 10.3499 15.8403 10.2672 15.84 10.178C15.8398 10.0887 15.7919 10.0063 15.7145 9.96184L15.59 10.1787ZM15.5806 10.1842L15.3409 10.2552C15.3697 10.3525 15.4545 10.4228 15.5555 10.4329L15.5806 10.1842ZM15.59 10.1842L15.7158 9.96817C15.6776 9.94591 15.6342 9.93418 15.59 9.93418V10.1842ZM10.1893 7.22732L14.0926 4.95732L13.8412 4.5251L9.93791 6.79509L10.1893 7.22732ZM9.64355 8.48419C9.64355 7.81346 9.88213 7.40579 10.1892 7.22736L9.93799 6.79505C9.4255 7.09285 9.14355 7.70408 9.14355 8.48419H9.64355ZM11.8109 12.2325C11.2239 11.8941 10.6793 11.3035 10.2808 10.6136C9.88226 9.92371 9.64355 9.15811 9.64355 8.48419H9.14355C9.14355 9.26663 9.41707 10.118 9.84781 10.8637C10.2786 11.6094 10.8802 12.2731 11.5612 12.6656L11.8109 12.2325ZM11.5614 12.2324L11.5604 12.2329L11.8118 12.6652L11.8127 12.6646L11.5614 12.2324ZM11.9327 12.4956L11.9337 12.4895L11.4404 12.4075L11.4394 12.4136L11.9327 12.4956ZM13.1931 12.3995C12.883 12.5815 12.4025 12.5827 11.8119 12.2386L11.5602 12.6706C12.2432 13.0685 12.9256 13.1361 13.4461 12.8308L13.1931 12.3995ZM17.0908 10.1328L13.1939 12.399L13.4453 12.8313L17.3422 10.565L17.0908 10.1328ZM17.0979 10.1287L17.0908 10.1328L17.3422 10.565L17.3492 10.5609L17.0979 10.1287ZM17.4397 10.2191L14.183 4.61559L13.7507 4.86683L17.0074 10.4704L17.4397 10.2191ZM15.4644 9.96256L15.4549 9.96807L15.7063 10.4003L15.7157 10.3948L15.4644 9.96256ZM13.0475 6.2138C13.0475 6.99598 13.3195 7.84726 13.7496 8.59315C14.1797 9.33906 14.7815 10.0029 15.4656 10.3955L15.7145 9.96184C15.125 9.62351 14.5805 9.03307 14.1827 8.34338C13.785 7.65366 13.5475 6.88799 13.5475 6.2138H13.0475ZM13.8411 4.52514C13.3291 4.82313 13.0475 5.43412 13.0475 6.2138H13.5475C13.5475 5.54344 13.7858 5.13585 14.0926 4.95728L13.8411 4.52514ZM13.7272 4.81227L15.3409 10.2552L15.8203 10.1131L14.2066 4.67015L13.7272 4.81227ZM15.5806 10.4342H15.59V9.93418H15.5806V10.4342ZM15.4641 10.4002C16.1433 10.7959 16.8218 10.865 17.3413 10.5655L17.0916 10.1323C16.7815 10.3111 16.3031 10.3103 15.7158 9.96817L15.4641 10.4002ZM17.2415 10.1001L15.6056 9.93544L15.5555 10.4329L17.1914 10.5976L17.2415 10.1001Z" fill="white"/>
</g>
<path id="Vector_5" d="M7.89844 3.28422L11.8024 1.01384C12.777 0.44901 14.1282 0.526535 15.6122 1.38485C18.5692 3.09595 20.9615 7.23248 20.9504 10.6325C20.9504 12.3159 20.3468 13.5065 19.3888 14.0602L15.4848 16.3306C16.4428 15.7713 17.0409 14.5863 17.0464 12.9029C17.0575 9.50286 14.6653 5.36633 11.7083 3.65524C10.2187 2.79692 8.87304 2.71386 7.89844 3.28422Z" fill="#17171A" stroke="white" stroke-width="0.5" stroke-linejoin="round"/>
<path id="Vector_6" d="M13.3087 16.6135L13.2976 20.4178L16.7419 22.4058L16.7309 25.7394L13.2865 23.7514L13.2754 26.8524L10.0138 24.9697L10.0415 14.7308C7.88744 12.6874 6.33139 9.45906 6.33693 6.71798C6.348 3.31794 8.75683 1.95017 11.7083 3.65573C14.6598 5.36129 17.0576 9.50336 17.0465 12.9034C17.041 15.6445 15.4683 17.0676 13.3087 16.6135ZM11.6862 12.4549C12.9543 13.1858 13.9898 12.5988 13.9898 11.1425C13.9898 9.6861 12.9709 7.90855 11.6973 7.1776C10.4236 6.44664 9.39364 7.03362 9.39364 8.48999C9.39364 9.94636 10.4125 11.7239 11.6862 12.4549Z" fill="#17171A" stroke="white" stroke-width="0.5" stroke-linejoin="round"/>
</g>
</g>
<defs>
<clipPath id="clip0_13085_134342">
<rect width="28" height="28" fill="white"/>
</clipPath>
</defs>
</svg>
