<svg width="65" height="64" viewBox="0 0 65 64" fill="none" xmlns="http://www.w3.org/2000/svg">
<path d="M32.5 64C50.1731 64 64.5 49.6731 64.5 32C64.5 14.3269 50.1731 0 32.5 0C14.8269 0 0.5 14.3269 0.5 32C0.5 49.6731 14.8269 64 32.5 64Z" fill="#FF910E"/>
<path d="M30.1001 43.4831C30.1001 44.1507 30.3653 44.7908 30.8373 45.2628C31.3093 45.7348 31.9494 46 32.617 46C33.2845 46 33.9246 45.7348 34.3966 45.2628C34.8686 44.7908 35.1338 44.1507 35.1338 43.4831C35.1338 42.8156 34.8686 42.1755 34.3966 41.7035C33.9246 41.2315 33.2845 40.9663 32.617 40.9663C31.9494 40.9663 31.3093 41.2315 30.8373 41.7035C30.3653 42.1755 30.1001 42.8156 30.1001 43.4831ZM31.3585 36.8764H33.8754C34.0484 36.8764 34.19 36.7348 34.19 36.5618V18.3146C34.19 18.1416 34.0484 18 33.8754 18H31.3585C31.1855 18 31.0439 18.1416 31.0439 18.3146V36.5618C31.0439 36.7348 31.1855 36.8764 31.3585 36.8764Z" fill="white"/>
</svg>
