<svg width="67" height="61" viewBox="0 0 67 61" fill="none" xmlns="http://www.w3.org/2000/svg">
<g clip-path="url(#clip0_1439_9564)">
<path d="M55.2751 10.7259C55.2547 10.5733 55.2125 10.4237 55.1495 10.2811L53.6141 7.2819C52.0399 4.26767 49.2265 1.93826 45.7816 0.796887C42.3367 -0.344485 38.5369 -0.206188 35.2031 1.1819L16.6664 9.06107C16.3397 9.20281 16.0478 9.40302 15.8079 9.64975C15.5681 9.89647 15.3854 10.1847 15.2706 10.4971H14.0841C10.4159 10.5204 6.90529 11.8574 4.31144 14.219C1.7176 16.5805 0.249069 19.7768 0.22348 23.1165V48.2917C0.22339 51.6468 1.68058 54.8658 4.27718 57.2465C6.87378 59.6273 10.3991 60.9765 14.0841 61H52.8743C56.5593 60.9765 60.0846 59.6273 62.6812 57.2465C65.2778 54.8658 66.735 51.6468 66.7349 48.2917V23.1165C66.7224 20.1559 65.5681 17.2934 63.4736 15.0287C61.379 12.764 58.4773 11.2411 55.2751 10.7259ZM37.5481 5.7569C39.5493 4.92168 41.8312 4.83743 43.9001 5.52239C45.9691 6.20735 47.6586 7.60643 48.6031 9.4169L49.1474 10.4971H26.3814L37.5481 5.7569ZM61.1795 43.2973H49.2312C48.0538 43.4293 46.8591 43.3322 45.7261 43.0122C44.5931 42.6922 43.5477 42.1567 42.6591 41.4412C41.7705 40.7258 41.059 39.8466 40.5717 38.8619C40.0844 37.8772 39.8324 36.8095 39.8324 35.7295C39.8324 34.6495 40.0844 33.5818 40.5717 32.5971C41.059 31.6124 41.7705 30.7333 42.6591 30.0178C43.5477 29.3023 44.5931 28.7668 45.7261 28.4468C46.8591 28.1269 48.0538 28.0297 49.2312 28.1617H61.1795V43.2973ZM49.2312 23.1165C45.5551 23.1165 42.0296 24.446 39.4302 26.8126C36.8309 29.1792 35.3706 32.389 35.3706 35.7359C35.3706 39.0827 36.8309 42.2925 39.4302 44.6591C42.0296 47.0257 45.5551 48.3552 49.2312 48.3552H61.1795C61.1795 50.3775 60.2972 52.317 58.7265 53.7469C57.1559 55.1769 55.0257 55.9802 52.8045 55.9802H14.0841C11.8629 55.9802 9.7327 55.1769 8.16209 53.7469C6.59147 52.317 5.70911 50.3775 5.70911 48.3552V23.1165C5.70911 21.0942 6.59147 19.1548 8.16209 17.7248C9.7327 16.2948 11.8629 15.4915 14.0841 15.4915H52.8743C55.0955 15.4915 57.2257 16.2948 58.7963 17.7248C60.367 19.1548 61.2493 21.0942 61.2493 23.1165H49.2312Z" fill="#113366"/>
<path d="M44.3318 35.7358C44.3318 36.7412 44.6593 37.724 45.2728 38.56C45.8863 39.3959 46.7583 40.0475 47.7785 40.4322C48.7987 40.817 49.9213 40.9176 51.0044 40.7215C52.0875 40.5253 53.0823 40.0412 53.8632 39.3303C54.644 38.6194 55.1758 37.7136 55.3912 36.7275C55.6066 35.7415 55.4961 34.7194 55.0735 33.7905C54.6509 32.8617 53.9353 32.0678 53.0171 31.5092C52.0989 30.9506 51.0194 30.6525 49.9151 30.6525C49.1819 30.6525 48.4559 30.784 47.7785 31.0394C47.1011 31.2949 46.4856 31.6693 45.9671 32.1414C45.4487 32.6134 45.0374 33.1738 44.7568 33.7905C44.4762 34.4073 44.3318 35.0683 44.3318 35.7358ZM12.9954 34.8335H28.4333C28.5947 34.8344 28.7527 34.7913 28.887 34.7098C29.0213 34.6282 29.1258 34.512 29.187 34.376C29.2469 34.2421 29.2629 34.0952 29.2332 33.9532C29.2035 33.8111 29.1293 33.6799 29.0195 33.5754L24.1481 29.1402C23.9963 29.002 23.7905 28.9242 23.5758 28.9242C23.4695 28.9242 23.3642 28.9432 23.266 28.9803C23.1677 29.0173 23.0785 29.0716 23.0033 29.1401C22.9281 29.2085 22.8685 29.2898 22.8278 29.3792C22.7871 29.4686 22.7662 29.5645 22.7662 29.6612C22.7663 29.8567 22.8516 30.0441 23.0035 30.1823L26.4931 33.3594H12.9954C12.7806 33.3594 12.5747 33.437 12.4229 33.5753C12.2711 33.7135 12.1858 33.901 12.1858 34.0965C12.185 34.1933 12.2057 34.2894 12.2464 34.3789C12.2872 34.4684 12.3473 34.5495 12.4231 34.6175C12.4967 34.6877 12.5857 34.7432 12.6842 34.7804C12.7828 34.8176 12.8887 34.8357 12.9954 34.8335ZM28.4333 39.3958H12.9954C12.832 39.3941 12.6718 39.4368 12.535 39.5182C12.3983 39.5997 12.2913 39.7163 12.2277 39.8533C12.2131 39.9461 12.2131 40.0402 12.2277 40.1329C12.2271 40.2309 12.2491 40.328 12.2924 40.4178C12.3357 40.5075 12.3992 40.588 12.4789 40.654L16.5408 44.3648C16.6145 44.435 16.7034 44.4905 16.8019 44.5277C16.9005 44.5649 17.0064 44.583 17.1131 44.5808C17.2194 44.5808 17.3247 44.5618 17.4229 44.5247C17.5211 44.4877 17.6104 44.4334 17.6855 44.3649C17.7607 44.2965 17.8203 44.2152 17.861 44.1258C17.9017 44.0364 17.9227 43.9405 17.9227 43.8437C17.9234 43.7469 17.9028 43.6508 17.862 43.5613C17.8212 43.4718 17.7612 43.3907 17.6854 43.3227L14.9495 40.9208H28.4333C28.648 40.9208 28.8539 40.8432 29.0057 40.7049C29.1576 40.5667 29.2429 40.3792 29.2429 40.1837C29.2485 40.0832 29.2318 39.9826 29.1938 39.888C29.1559 39.7935 29.0974 39.7068 29.0218 39.6333C28.9462 39.5598 28.8552 39.5008 28.7541 39.46C28.653 39.4192 28.5439 39.3974 28.4333 39.3958Z" fill="#113366"/>
<path d="M17.0572 45.1019C16.8799 45.1021 16.7043 45.0695 16.5412 45.0061C16.378 44.9428 16.2307 44.85 16.108 44.7333L12.0462 41.0225C11.9196 40.9131 11.8195 40.7809 11.7522 40.6343C11.685 40.4877 11.6519 40.3299 11.6553 40.1711C11.6469 40.0095 11.6804 39.8484 11.753 39.7008C11.8611 39.4818 12.0352 39.2951 12.2551 39.1623C12.4749 39.0296 12.7316 38.9564 12.9953 38.9511H28.4333C28.7289 39.0242 28.99 39.1839 29.1761 39.4056C29.3622 39.6272 29.463 39.8984 29.463 40.1774C29.463 40.4564 29.3622 40.7276 29.1761 40.9493C28.99 41.1709 28.7289 41.3306 28.4333 41.4038H16.2058L17.9924 43.0177C18.2385 43.2501 18.3783 43.5591 18.3833 43.8819C18.3783 44.2047 18.2385 44.5137 17.9924 44.7461C17.7407 44.9672 17.4069 45.0942 17.0572 45.1019ZM12.9953 39.9042C12.9359 39.9027 12.8773 39.9177 12.8275 39.9472C12.7776 39.9767 12.7388 40.0193 12.7162 40.0694V40.349L16.792 44.0598C16.848 44.1045 16.9199 44.1291 16.9944 44.1291C17.0689 44.1291 17.1408 44.1045 17.1968 44.0598C17.2481 44.007 17.2777 43.9396 17.2805 43.8692C17.2827 43.8356 17.2763 43.8021 17.2618 43.7712C17.2472 43.7403 17.225 43.7129 17.1968 43.6913L13.6793 40.4506H28.4333C28.5018 40.4371 28.5632 40.4026 28.6072 40.3529C28.6512 40.3032 28.6752 40.2413 28.6752 40.1774C28.6752 40.1136 28.6512 40.0516 28.6072 40.0019C28.5632 39.9522 28.5018 39.9177 28.4333 39.9042H12.9953ZM12.9953 35.3165C12.6456 35.3087 12.3119 35.1817 12.0601 34.9606C11.9357 34.8477 11.8381 34.7128 11.7733 34.5641C11.7085 34.4155 11.6778 34.2563 11.6833 34.0965C11.6833 33.7594 11.8303 33.4362 12.0921 33.1979C12.3539 32.9595 12.7089 32.8256 13.0791 32.8256H25.3066L22.6266 30.5C22.5004 30.3886 22.4 30.2553 22.3315 30.108C22.263 29.9606 22.2277 29.8022 22.2277 29.6422C22.2277 29.4822 22.263 29.3238 22.3315 29.1764C22.4 29.0291 22.5004 28.8958 22.6266 28.7844C22.8831 28.5736 23.2163 28.457 23.5618 28.457C23.9073 28.457 24.2405 28.5736 24.497 28.7844L29.3685 33.2196C29.5467 33.3831 29.6692 33.5901 29.7212 33.8156C29.7733 34.0411 29.7525 34.2754 29.6616 34.4904C29.5535 34.7095 29.3794 34.8962 29.1596 35.0289C28.9397 35.1616 28.683 35.2349 28.4193 35.2402H12.9814L12.9953 35.3165ZM12.9953 33.8296C12.92 33.8329 12.849 33.8624 12.797 33.9121C12.745 33.9618 12.7161 34.0278 12.7162 34.0965C12.7122 34.1302 12.7162 34.1644 12.7277 34.1967C12.7393 34.229 12.7582 34.2587 12.7832 34.2839C12.8083 34.3091 12.8389 34.3292 12.873 34.3429C12.9071 34.3566 12.9441 34.3635 12.9814 34.3633H28.4333C28.4918 34.3641 28.5493 34.3489 28.5983 34.3196C28.6473 34.2904 28.6856 34.2484 28.7081 34.1991C28.7306 34.1499 28.7364 34.0956 28.7248 34.0434C28.7131 33.9911 28.6845 33.9432 28.6426 33.9058L23.7712 29.4706C23.719 29.4241 23.6488 29.398 23.5758 29.398C23.5027 29.398 23.4325 29.4241 23.3803 29.4706C23.3493 29.4936 23.3244 29.5227 23.3075 29.5558C23.2906 29.5888 23.2821 29.6248 23.2826 29.6613C23.2837 29.7283 23.3138 29.7923 23.3664 29.8392L27.7493 33.8296H12.9953Z" fill="#113366"/>
</g>
<defs>
<clipPath id="clip0_1439_9564">
<rect width="67" height="61" fill="white"/>
</clipPath>
</defs>
</svg>
