<svg width="111" height="20" viewBox="0 0 111 20" fill="none" xmlns="http://www.w3.org/2000/svg">
<path d="M8.27197 7.17803H13.2487L18.3399 12.2391C18.6711 12.5684 18.6728 13.1038 18.3433 13.4348L11.8141 20H6.68741L8.23733 18.4925L13.928 12.835L8.30957 7.17761" fill="#0D0E0E"/>
<path d="M10.3174 12.8224H5.34066L0.249453 7.76131C-0.0817379 7.43208 -0.0834276 6.8966 0.246073 6.56567L6.77526 0H11.902L10.352 1.50755L4.66138 7.16497L10.2798 12.8224" fill="#0D0E0E"/>
<path d="M77.0239 15.4149L75.3579 9.18992L75.1178 8.04363L74.8626 9.18992L73.2116 15.4149H70.51L67.4931 4.58887H70.0597L71.6957 11.6894L71.9658 12.979L72.236 11.6894L74.1272 4.58887H76.2284L78.1046 11.6894L78.3747 12.979L78.6449 11.6894L80.2809 4.58887H82.7124L79.6955 15.4149H77.0239Z" fill="#0D0E0E"/>
<path fill-rule="evenodd" clip-rule="evenodd" d="M76.9263 15.542L75.2342 9.21943L75.1138 8.64477L74.9857 9.22006L73.309 15.542H70.4134L67.3257 4.46173H70.1605L71.8194 11.6621L71.9656 12.3599L72.1123 11.66L74.0294 4.46173H76.3259L78.2279 11.6601L78.3745 12.3599L78.5207 11.6621L80.1797 4.46173H82.8794L79.7917 15.542H76.9263ZM78.3745 12.979L78.1044 11.6894L76.2282 4.58885H74.1269L72.2358 11.6894L71.9656 12.979L71.6955 11.6894L70.0595 4.58885H67.4929L70.5098 15.4149H73.2114L74.8624 9.1899L75.1175 8.04362L75.3577 9.1899L77.0237 15.4149H79.6953L82.7121 4.58885H80.2807L78.6447 11.6894L78.3745 12.979Z" fill="#0D0E0E"/>
<path d="M84.5471 10.0305H82.1819C82.4292 8.21352 83.8669 7.10229 86.0003 7.10229C88.381 7.10229 89.6177 8.45379 89.6177 10.3309V13.4243C89.6177 14.4754 89.7104 15.016 89.8496 15.4365H87.407C87.3298 15.1662 87.2834 14.8208 87.2679 14.4304C86.6186 15.3013 85.6293 15.6768 84.6399 15.6768C83.0631 15.6768 81.8882 14.8959 81.8882 13.3492C81.8882 12.253 82.5375 11.412 83.8515 10.9616C84.9336 10.6162 85.9694 10.5111 87.2525 10.496V10.3158C87.2525 9.42986 86.8041 8.96435 85.8921 8.96435C85.0882 8.96435 84.6553 9.39983 84.5471 10.0305ZM84.2534 13.199C84.2534 13.7396 84.6708 14.085 85.3665 14.085C86.4177 14.085 87.2525 13.2591 87.2525 12.1479V11.8325C84.8563 11.8776 84.2534 12.4482 84.2534 13.199Z" fill="#0D0E0E"/>
<path d="M92.9294 4.45984H90.5783V15.54H92.9294V4.45984Z" fill="#0D0E0E"/>
<path d="M96.2446 4.45984H93.8935V15.54H96.2446V4.45984Z" fill="#0D0E0E"/>
<path d="M104.426 8.50067C104.054 8.05741 103.588 7.70999 103.04 7.46769C102.493 7.22569 101.877 7.10229 101.211 7.10229C100.395 7.10229 99.6592 7.28769 99.0227 7.65308C98.3848 8.01967 97.8786 8.52883 97.5176 9.16737C97.1565 9.80531 96.9736 10.5457 96.9736 11.3672C96.9736 12.1888 97.1512 12.9779 97.5011 13.6258C97.852 14.2757 98.3564 14.7854 99 15.1422C99.6424 15.4968 100.397 15.6768 101.243 15.6768C102.281 15.6768 103.162 15.4156 103.863 14.9002C104.538 14.4042 105.002 13.7045 105.254 12.8288H102.887C102.763 13.1268 102.587 13.3805 102.336 13.5593C102.039 13.7701 101.656 13.8771 101.196 13.8771C100.797 13.8771 100.455 13.78 100.18 13.5889C99.9041 13.3978 99.693 13.1154 99.5544 12.7485C99.4712 12.5305 99.4122 12.2798 99.3775 12.001H105.296L105.307 11.9273C105.413 11.2591 105.386 10.6259 105.227 10.0455C105.067 9.46358 104.798 8.94394 104.426 8.50067ZM99.4149 10.4669C99.4511 10.2983 99.4999 10.1228 99.5619 9.96285C99.7062 9.59116 99.9145 9.30514 100.182 9.11406C100.447 8.92297 100.778 8.82653 101.165 8.82653C101.65 8.82653 102.047 8.98377 102.347 9.29316C102.632 9.58757 102.793 9.9898 102.828 10.4669H99.4152H99.4149Z" fill="#0D0E0E"/>
<path d="M111 9.23643V7.25492H109.303V4.45966H106.967V7.25492H105.518V9.23643H106.967V12.48C106.967 14.2833 107.322 15.6086 109.536 15.5676L110.925 15.5404V13.6825H110.236C109.252 13.6825 109.307 13.1087 109.307 12.0431L109.303 9.23643H111H111Z" fill="#0D0E0E"/>
<path d="M29.9038 9.74187C30.334 9.49748 30.6785 9.19318 30.9294 8.83438C31.2153 8.42586 31.3605 7.95923 31.3605 7.44828C31.3605 6.49167 31.003 5.74501 30.2986 5.22866C29.6026 4.71831 28.645 4.45984 27.4514 4.45984H23.1356V15.5405H27.6239C28.8809 15.5405 29.8873 15.2482 30.6151 14.6711C31.3485 14.0892 31.7209 13.2742 31.7209 12.2484C31.7209 11.6239 31.5458 11.0866 31.2009 10.6518C30.8914 10.263 30.4558 9.95721 29.9041 9.74187H29.9038ZM25.4712 6.45692H27.2637C27.8259 6.45692 28.2504 6.56594 28.5261 6.78039C28.7985 6.99214 28.9309 7.27037 28.9309 7.63068C28.9309 7.99098 28.7985 8.28329 28.5261 8.49594C28.2504 8.71038 27.8259 8.8194 27.2637 8.8194H25.4712V6.45692ZM28.8458 13.1679C28.5351 13.4171 28.0606 13.5432 27.4359 13.5432H25.4712V10.8315H27.4359C28.0603 10.8315 28.5354 10.9534 28.8473 11.1927C29.1566 11.4314 29.3069 11.7464 29.3069 12.1571C29.3069 12.5889 29.156 12.9196 28.8458 13.1682V13.1679Z" fill="#0D0E0E"/>
<path d="M34.8751 7.25446H32.524V15.5399H34.8751V7.25446Z" fill="#0D0E0E"/>
<path d="M58.0983 8.50067C57.7261 8.05741 57.2597 7.70999 56.7119 7.46769C56.1647 7.22569 55.5492 7.10229 54.8834 7.10229C54.0674 7.10229 53.3312 7.28769 52.6948 7.65308C52.0569 8.01967 51.5507 8.52883 51.1896 9.16737C50.8286 9.80531 50.6457 10.5457 50.6457 11.3672C50.6457 12.1888 50.8232 12.9779 51.1732 13.6258C51.524 14.2757 52.0284 14.7854 52.6721 15.1422C53.3145 15.4968 54.0692 15.6768 54.9149 15.6768C55.953 15.6768 56.8344 15.4156 57.5349 14.9002C58.2096 14.4042 58.6736 13.7045 58.9263 12.8288H56.5592C56.4347 13.1268 56.2593 13.3805 56.0081 13.5593C55.7112 13.7701 55.3277 13.8771 54.8679 13.8771C54.4691 13.8771 54.1275 13.78 53.8524 13.5889C53.5761 13.3978 53.3651 13.1154 53.2265 12.7485C53.1432 12.5305 53.0843 12.2798 53.0495 12.001H58.9676L58.9793 11.9273C59.0849 11.2591 59.0583 10.6259 58.899 10.0455C58.7395 9.46358 58.4701 8.94394 58.0983 8.50067ZM53.087 10.4669C53.1232 10.2983 53.172 10.1228 53.234 9.96285C53.3782 9.59116 53.5866 9.30514 53.8536 9.11406C54.1195 8.92297 54.4503 8.82653 54.837 8.82653C55.3217 8.82653 55.7195 8.98377 56.0195 9.29316C56.3039 9.58757 56.4652 9.9898 56.4997 10.4669H53.0873H53.087Z" fill="#0D0E0E"/>
<path d="M34.9248 4.45966H32.4754V6.45674H34.9248V4.45966Z" fill="#0D0E0E"/>
<path d="M47.8001 8.19458C47.522 7.86034 47.196 7.60127 46.8284 7.42216C46.3896 7.20982 45.8762 7.10229 45.3023 7.10229C44.5997 7.10229 43.9698 7.27571 43.431 7.61714C42.8927 7.95827 42.4658 8.44047 42.1626 9.04936C41.8605 9.65675 41.707 10.3699 41.707 11.1698C41.707 11.9698 41.8683 12.641 42.1868 13.2526C42.506 13.8663 42.9484 14.3551 43.5016 14.7061C44.056 15.058 44.6883 15.2365 45.381 15.2365C45.904 15.2365 46.3818 15.1233 46.8003 14.8996C47.1317 14.7225 47.4092 14.4883 47.628 14.2023V15.1044C47.628 15.6636 47.481 16.0928 47.1921 16.3788C46.9024 16.6648 46.4617 16.8092 45.8821 16.8092C45.3828 16.8092 44.99 16.696 44.7152 16.4722C44.4904 16.2892 44.294 16.049 44.2482 15.5405H41.9815C42.0024 16.2521 42.2114 16.7316 42.5063 17.1518C42.8371 17.6226 43.3023 17.9907 43.8902 18.245C44.4725 18.4963 45.1481 18.6239 45.898 18.6239C47.1568 18.6239 48.1591 18.3073 48.876 17.6837C49.5975 17.0566 49.9633 16.1784 49.9633 15.0742V7.25444H47.8001V8.19458ZM47.3861 12.2705C47.237 12.5784 47.0266 12.8198 46.7599 12.9869C46.4934 13.154 46.1719 13.2391 45.8037 13.2391C45.2714 13.2391 44.8577 13.0579 44.538 12.6847C44.2195 12.3136 44.0581 11.8039 44.0581 11.1695C44.0581 10.5352 44.2195 10.0254 44.538 9.65376C44.8535 9.28567 45.2795 9.09938 45.8037 9.09938C46.3279 9.09938 46.791 9.28837 47.1167 9.66215C47.4454 10.0389 47.6121 10.5514 47.6121 11.1842C47.6121 11.5942 47.5361 11.9593 47.3861 12.2702V12.2705Z" fill="#0D0E0E"/>
<path d="M64.6722 9.23643V7.25492H62.9751V4.45966H60.6395V7.25492H59.19V9.23643H60.6395V12.48C60.6395 14.2833 60.9945 15.6086 63.2077 15.5676L64.597 15.5404V13.6825H63.9076C62.9239 13.6825 62.9787 13.1087 62.9787 12.0431L62.9748 9.23643H64.6719H64.6722Z" fill="#0D0E0E"/>
<path d="M41.1358 9.23643V7.25492H39.4387V4.45966H37.1031V7.25492H35.6536V9.23643H37.1031V12.48C37.1031 14.2833 37.4582 15.6086 39.6713 15.5676L41.0607 15.5404V13.6825H40.3712C39.3875 13.6825 39.4423 13.1087 39.4423 12.0431L39.4384 9.23643H41.1355H41.1358Z" fill="#0D0E0E"/>
</svg>
