<svg width="101" height="100" viewBox="0 0 101 100" fill="none" xmlns="http://www.w3.org/2000/svg">
<g id="&#230;&#144;&#156;&#231;&#180;&#162;&#230;&#151;&#160;&#230;&#149;&#176;&#230;&#141;&#174;">
<g id="Group 1430104451">
<g id="Group">
<path id="Subtract" d="M30.2101 6.27018C30.1178 6.32389 30.0699 6.43026 30.0907 6.53497C30.1115 6.63967 30.1965 6.71961 30.3023 6.73397L33.2223 7.13016L80.2486 34.2773C81.5098 35.0053 82.285 36.3526 82.2808 37.8088L82.2033 64.428V64.4286L82.1988 91.0791C82.1988 91.1684 82.2465 91.251 82.3238 91.2956C82.4012 91.3403 82.4965 91.3402 82.5739 91.2955L84.2894 90.3041C85.256 89.7456 85.8514 88.7139 85.8514 87.5976V62.6031V62.6024L85.9248 35.9788C85.9293 34.3437 85.0588 32.8312 83.6429 32.0137L36.1867 4.61377C35.2195 4.05533 34.0278 4.05533 33.0606 4.61375L32.4393 4.97247L32.4385 4.97292L30.2101 6.27018Z" fill="white" stroke="#0D0E0E" stroke-width="0.5" stroke-linejoin="round"/>
<path id="Intersect" fill-rule="evenodd" clip-rule="evenodd" d="M84.2042 32.7192L80.9531 34.4594C81.9474 35.2736 82.5373 36.5 82.5335 37.8094L82.4559 64.4285L82.4515 91.079L84.167 90.0875C85.0563 89.5736 85.604 88.6245 85.604 87.5974V62.6022L85.6775 35.9779C85.6809 34.7165 85.1334 33.5322 84.2042 32.7192Z" fill="#0D0E0E"/>
<path id="Vector" d="M82.2443 91.2871C82.3215 91.3317 82.4167 91.3317 82.494 91.2873C82.5713 91.2428 82.619 91.1605 82.6193 91.0713L82.7812 37.8105C82.7862 36.1749 81.9156 34.6616 80.499 33.8439L32.6704 6.23365C31.0684 5.30885 29.0654 6.46155 29.06 8.31133L28.9102 60.3484C28.9099 60.4379 28.9576 60.5208 29.0352 60.5656L82.2443 91.2871Z" fill="white" stroke="#0D0E0E" stroke-width="0.5" stroke-linejoin="round"/>
<path id="Intersect_2" fill-rule="evenodd" clip-rule="evenodd" d="M29.1953 48.3508L29.282 18.2358L44.2943 27.0361C45.1544 27.5403 45.8453 28.2885 46.2796 29.1859L50.2847 37.4629C50.7163 38.3549 51.4016 39.0997 52.2548 39.6038L76.1652 53.7326C77.5238 54.5354 78.4272 55.929 78.6056 57.4969L82.3713 90.6041L82.3699 91.0708L77.3103 88.1495L29.1953 48.3508Z" fill="#E1E5E5"/>
</g>
<g id="Group_2">
<path id="Subtract_2" d="M17.6101 20.3506C17.517 20.404 17.4683 20.5108 17.4891 20.6161C17.51 20.7214 17.5957 20.8016 17.7022 20.8154L20.0397 21.119L36.0936 30.3857C36.7811 30.7825 37.3373 31.372 37.6936 32.0813L42.348 41.3475C42.748 42.1438 43.3723 42.8056 44.144 43.2513L69.352 57.8085C70.3246 58.3702 71.0215 59.3094 71.277 60.4031L77.6141 87.5221L77.7745 93.633C77.7768 93.721 77.8252 93.8013 77.9019 93.8444C77.9786 93.8875 78.0723 93.8871 78.1487 93.8434L80.8462 92.2983L80.8469 92.2979L82.4203 91.3895C82.5157 91.3344 82.5638 91.2234 82.5388 91.1161L74.9076 58.4588C74.6205 57.2304 73.8378 56.1756 72.7453 55.5448L47.5463 40.9957C46.8594 40.5991 46.3036 40.0102 45.9473 39.3016L41.2838 30.0251C40.8836 29.2292 40.2593 28.5677 39.4877 28.1224L23.0294 18.6221C22.2847 18.1922 21.3673 18.1922 20.6226 18.6222L20.123 18.9106L20.1223 18.911L17.6101 20.3506Z" fill="white" stroke="#0D0E0E" stroke-width="0.5" stroke-linejoin="round"/>
<path id="Vector_2" d="M38.1386 31.8566C37.7385 31.06 37.1139 30.3981 36.3418 29.9525L19.6877 20.3393C18.1406 19.4462 16.2718 20.8242 16.6675 22.5662L25.8482 62.9801C26.0855 64.0246 26.7478 64.9228 27.6754 65.4583L76.6586 93.7351C77.9384 94.4739 79.4825 93.328 79.1463 91.8891L71.7622 60.2893C71.4752 59.061 70.6926 58.0063 69.6003 57.3755L44.3924 42.818C43.7053 42.4212 43.1494 41.8319 42.7932 41.1229L38.1386 31.8566Z" fill="white" stroke="#0D0E0E" stroke-width="0.5" stroke-linejoin="round"/>
</g>
</g>
</g>
</svg>
