<svg width="101" height="100" viewBox="0 0 101 100" fill="none" xmlns="http://www.w3.org/2000/svg">
<g id="&#231;&#169;&#186;&#231;&#138;&#182;&#230;&#128;&#129;">
<g id="Group 1430104453">
<g id="Group">
<path id="Vector" d="M80.8993 49.3291L35.7912 23.1147L35.7656 15.2299L80.8737 41.4443L80.8993 49.3291Z" fill="#0D0E0E" stroke="#0D0E0E" stroke-width="0.5" stroke-linejoin="round"/>
<path id="Vector_2" d="M34.647 12.7659L79.7487 38.9803C80.4399 39.3835 80.8687 40.2347 80.8751 41.4443L35.767 15.2299C35.767 14.0203 35.3318 13.1691 34.6406 12.7659H34.647Z" fill="#0D0E0E" stroke="#0D0E0E" stroke-width="0.5" stroke-linejoin="round"/>
<path id="Union" d="M36.5733 9.45065L81.6738 35.6543C80.4776 34.9615 78.8167 35.0593 76.9901 36.1195C73.3676 38.2123 70.4235 43.3066 70.4363 47.473L70.5452 81.1692L70.519 81.1576L70.5388 81.1691C70.5452 83.6075 68.8235 86.5899 66.7051 87.8123C65.6363 88.4331 64.6635 88.4843 63.9659 88.0811L18.8594 61.8676C19.5633 62.2762 20.529 62.2182 21.597 61.5979C23.7155 60.3755 25.4435 57.3867 25.4307 54.9547L25.4524 54.9673L25.4371 54.9548L25.3283 21.2588C25.3155 17.0924 28.2595 11.9978 31.882 9.90501C33.7188 8.84901 35.3765 8.74665 36.5733 9.44425V9.45065Z" fill="white" stroke="#0D0E0E" stroke-width="0.5" stroke-linejoin="round"/>
<path id="Vector_3" d="M60.1081 82.3532L15 56.1388L17.7201 54.5644L62.8281 80.7788L60.1081 82.3532Z" fill="white" stroke="#0D0E0E" stroke-width="0.5" stroke-linejoin="round"/>
<path id="Union_2" d="M60.1181 87.19L60.1209 87.1852L60.1081 82.3532L15 56.1388L15.0128 60.9772C15.0192 63.0444 15.7488 64.5036 16.9328 65.1884L62.0409 91.4028C60.8633 90.718 60.1209 89.2588 60.1209 87.1916L60.1181 87.19Z" fill="white" stroke="#0D0E0E" stroke-width="0.5" stroke-linejoin="round"/>
</g>
<path id="Vector_4" d="M76.9929 36.1194C80.6346 34.0202 83.5914 35.7034 83.6042 39.8698L83.6234 47.7546L80.897 49.329L80.8778 41.4442C80.8714 39.0058 79.1369 38.0202 77.0185 39.2426C74.9001 40.465 73.1592 43.4602 73.1656 45.8986L73.2744 79.5946C73.2872 83.761 70.3432 88.8554 66.7207 90.9482C63.0982 93.041 60.135 91.3514 60.1222 87.1914L60.1094 82.353L62.8294 80.7786L62.8422 85.617C62.8486 88.0554 64.5831 89.041 66.7079 87.8122C68.8327 86.5834 70.5544 83.601 70.5416 81.169L70.4328 47.473C70.42 43.3066 73.364 38.2122 76.9865 36.1194H76.9929Z" fill="#E1E5E5" stroke="#0D0E0E" stroke-width="0.5" stroke-linejoin="round"/>
<path id="Union_3" fill-rule="evenodd" clip-rule="evenodd" d="M33.6719 35.3092L61.1924 51.3206L61.1846 48.7719L33.6719 32.7606V35.3092ZM33.6719 46.5092L61.1924 62.5206L61.1846 59.9719L33.6719 43.9606V46.5092Z" fill="#E1E5E5"/>
</g>
</g>
</svg>
