<svg width="111" height="20" viewBox="0 0 111 20" fill="none" xmlns="http://www.w3.org/2000/svg">
<path d="M8.27206 7.17803H13.2488L18.34 12.2391C18.6712 12.5684 18.6729 13.1038 18.3434 13.4348L11.8142 20H6.6875L8.23742 18.4925L13.9281 12.835L8.30966 7.17761" fill="#0D0E0E"/>
<path d="M10.3174 12.8224H5.34066L0.249453 7.76131C-0.0817379 7.43208 -0.0834276 6.8966 0.246073 6.56567L6.77526 0H11.902L10.352 1.50755L4.66138 7.16497L10.2798 12.8224" fill="#0D0E0E"/>
<path d="M77.0239 15.4149L75.3579 9.18992L75.1178 8.04363L74.8626 9.18992L73.2116 15.4149H70.51L67.4932 4.58887H70.0597L71.6957 11.6894L71.9659 12.979L72.236 11.6894L74.1272 4.58887H76.2285L78.1046 11.6894L78.3748 12.979L78.6449 11.6894L80.2809 4.58887H82.7124L79.6956 15.4149H77.0239Z" fill="#0D0E0E"/>
<path fill-rule="evenodd" clip-rule="evenodd" d="M76.9263 15.542L75.2341 9.21943L75.1138 8.64477L74.9857 9.22006L73.309 15.542H70.4134L67.3257 4.46173H70.1604L71.8194 11.6621L71.9656 12.3599L72.1122 11.66L74.0294 4.46173H76.3259L78.2279 11.6601L78.3745 12.3599L78.5207 11.6621L80.1797 4.46173H82.8793L79.7916 15.542H76.9263ZM78.3745 12.979L78.1043 11.6894L76.2282 4.58885H74.1269L72.2358 11.6894L71.9656 12.979L71.6954 11.6894L70.0594 4.58885H67.4929L70.5097 15.4149H73.2114L74.8624 9.1899L75.1175 8.04362L75.3577 9.1899L77.0237 15.4149H79.6953L82.7121 4.58885H80.2806L78.6446 11.6894L78.3745 12.979Z" fill="#0D0E0E"/>
<path d="M84.5471 10.0305H82.1819C82.4292 8.21352 83.8669 7.10229 86.0003 7.10229C88.381 7.10229 89.6177 8.45379 89.6177 10.3309V13.4243C89.6177 14.4754 89.7104 15.016 89.8496 15.4365H87.407C87.3298 15.1662 87.2834 14.8208 87.2679 14.4304C86.6186 15.3013 85.6293 15.6768 84.6399 15.6768C83.0631 15.6768 81.8882 14.8959 81.8882 13.3492C81.8882 12.253 82.5375 11.412 83.8515 10.9616C84.9336 10.6162 85.9694 10.5111 87.2525 10.496V10.3158C87.2525 9.42986 86.8041 8.96435 85.8921 8.96435C85.0882 8.96435 84.6553 9.39983 84.5471 10.0305ZM84.2534 13.199C84.2534 13.7396 84.6708 14.085 85.3665 14.085C86.4177 14.085 87.2525 13.2591 87.2525 12.1479V11.8325C84.8563 11.8776 84.2534 12.4482 84.2534 13.199Z" fill="#0D0E0E"/>
<path d="M92.9293 4.45984H90.5781V15.54H92.9293V4.45984Z" fill="#0D0E0E"/>
<path d="M96.2445 4.45984H93.8933V15.54H96.2445V4.45984Z" fill="#0D0E0E"/>
<path d="M104.426 8.50067C104.054 8.05741 103.588 7.70999 103.04 7.46769C102.493 7.22569 101.877 7.10229 101.211 7.10229C100.395 7.10229 99.6592 7.28769 99.0227 7.65308C98.3848 8.01967 97.8786 8.52883 97.5176 9.16737C97.1565 9.80531 96.9736 10.5457 96.9736 11.3672C96.9736 12.1888 97.1512 12.9779 97.5011 13.6258C97.852 14.2757 98.3564 14.7854 99 15.1422C99.6424 15.4968 100.397 15.6768 101.243 15.6768C102.281 15.6768 103.162 15.4156 103.863 14.9002C104.538 14.4042 105.002 13.7045 105.254 12.8288H102.887C102.763 13.1268 102.587 13.3805 102.336 13.5593C102.039 13.7701 101.656 13.8771 101.196 13.8771C100.797 13.8771 100.455 13.78 100.18 13.5889C99.9041 13.3978 99.693 13.1154 99.5544 12.7485C99.4712 12.5305 99.4122 12.2798 99.3775 12.001H105.296L105.307 11.9273C105.413 11.2591 105.386 10.6259 105.227 10.0455C105.067 9.46358 104.798 8.94394 104.426 8.50067ZM99.4149 10.4669C99.4511 10.2983 99.4999 10.1228 99.5619 9.96285C99.7062 9.59116 99.9145 9.30514 100.182 9.11406C100.447 8.92297 100.778 8.82653 101.165 8.82653C101.65 8.82653 102.047 8.98377 102.347 9.29316C102.632 9.58757 102.793 9.9898 102.828 10.4669H99.4152H99.4149Z" fill="#0D0E0E"/>
<path d="M111 9.23643V7.25492H109.303V4.45966H106.967V7.25492H105.518V9.23643H106.967V12.48C106.967 14.2833 107.322 15.6086 109.536 15.5676L110.925 15.5404V13.6825H110.235C109.252 13.6825 109.307 13.1087 109.307 12.0431L109.303 9.23643H111H111Z" fill="#0D0E0E"/>
<path d="M29.9037 9.74187C30.3339 9.49748 30.6785 9.19318 30.9293 8.83438C31.2152 8.42586 31.3604 7.95923 31.3604 7.44828C31.3604 6.49167 31.003 5.74501 30.2986 5.22866C29.6026 4.71831 28.6449 4.45984 27.4514 4.45984H23.1355V15.5405H27.6238C28.8808 15.5405 29.8873 15.2482 30.615 14.6711C31.3484 14.0892 31.7208 13.2742 31.7208 12.2484C31.7208 11.6239 31.5457 11.0866 31.2008 10.6518C30.8913 10.263 30.4557 9.95721 29.904 9.74187H29.9037ZM25.4711 6.45692H27.2637C27.8259 6.45692 28.2504 6.56594 28.5261 6.78039C28.7985 6.99214 28.9308 7.27037 28.9308 7.63068C28.9308 7.99098 28.7985 8.28329 28.5261 8.49594C28.2504 8.71038 27.8259 8.8194 27.2637 8.8194H25.4711V6.45692ZM28.8458 13.1679C28.535 13.4171 28.0606 13.5432 27.4358 13.5432H25.4711V10.8315H27.4358C28.0603 10.8315 28.5353 10.9534 28.8473 11.1927C29.1565 11.4314 29.3068 11.7464 29.3068 12.1571C29.3068 12.5889 29.1559 12.9196 28.8458 13.1682V13.1679Z" fill="#0D0E0E"/>
<path d="M34.8751 7.25446H32.5239V15.5399H34.8751V7.25446Z" fill="#0D0E0E"/>
<path d="M58.0981 8.50067C57.726 8.05741 57.2596 7.70999 56.7117 7.46769C56.1645 7.22569 55.549 7.10229 54.8832 7.10229C54.0672 7.10229 53.3311 7.28769 52.6946 7.65308C52.0567 8.01967 51.5505 8.52883 51.1894 9.16737C50.8284 9.80531 50.6455 10.5457 50.6455 11.3672C50.6455 12.1888 50.823 12.9779 51.173 13.6258C51.5238 14.2757 52.0282 14.7854 52.6719 15.1422C53.3143 15.4968 54.069 15.6768 54.9147 15.6768C55.9529 15.6768 56.8342 15.4156 57.5347 14.9002C58.2094 14.4042 58.6734 13.7045 58.9261 12.8288H56.5591C56.4345 13.1268 56.2591 13.3805 56.0079 13.5593C55.711 13.7701 55.3275 13.8771 54.8677 13.8771C54.4689 13.8771 54.1274 13.78 53.8522 13.5889C53.5759 13.3978 53.3649 13.1154 53.2263 12.7485C53.1431 12.5305 53.0841 12.2798 53.0494 12.001H58.9674L58.9791 11.9273C59.0848 11.2591 59.0581 10.6259 58.8989 10.0455C58.7393 9.46358 58.4699 8.94394 58.0981 8.50067ZM53.0868 10.4669C53.123 10.2983 53.1718 10.1228 53.2338 9.96285C53.3781 9.59116 53.5864 9.30514 53.8534 9.11406C54.1193 8.92297 54.4501 8.82653 54.8368 8.82653C55.3215 8.82653 55.7194 8.98377 56.0193 9.29316C56.3037 9.58757 56.4651 9.9898 56.4995 10.4669H53.0871H53.0868Z" fill="#0D0E0E"/>
<path d="M34.9247 4.45966H32.4753V6.45674H34.9247V4.45966Z" fill="#0D0E0E"/>
<path d="M47.8 8.19458C47.5219 7.86034 47.1958 7.60127 46.8282 7.42216C46.3894 7.20982 45.876 7.10229 45.3021 7.10229C44.5995 7.10229 43.9697 7.27571 43.4308 7.61714C42.8926 7.95827 42.4657 8.44047 42.1624 9.04936C41.8604 9.65675 41.7068 10.3699 41.7068 11.1698C41.7068 11.9698 41.8681 12.641 42.1867 13.2526C42.5058 13.8663 42.9482 14.3551 43.5015 14.7061C44.0559 15.058 44.6881 15.2365 45.3808 15.2365C45.9038 15.2365 46.3816 15.1233 46.8001 14.8996C47.1315 14.7225 47.409 14.4883 47.6278 14.2023V15.1044C47.6278 15.6636 47.4808 16.0928 47.192 16.3788C46.9022 16.6648 46.4615 16.8092 45.882 16.8092C45.3826 16.8092 44.9899 16.696 44.7151 16.4722C44.4902 16.2892 44.2939 16.049 44.2481 15.5405H41.9813C42.0023 16.2521 42.2112 16.7316 42.5061 17.1518C42.8369 17.6226 43.3021 17.9907 43.89 18.245C44.4723 18.4963 45.1479 18.6239 45.8978 18.6239C47.1566 18.6239 48.1589 18.3073 48.8759 17.6837C49.5973 17.0566 49.9631 16.1784 49.9631 15.0742V7.25444H47.8V8.19458ZM47.3859 12.2705C47.2369 12.5784 47.0264 12.8198 46.7597 12.9869C46.4933 13.154 46.1717 13.2391 45.8035 13.2391C45.2713 13.2391 44.8576 13.0579 44.5378 12.6847C44.2193 12.3136 44.058 11.8039 44.058 11.1695C44.058 10.5352 44.2193 10.0254 44.5378 9.65376C44.8534 9.28567 45.2793 9.09938 45.8035 9.09938C46.3277 9.09938 46.7908 9.28837 47.1165 9.66215C47.4452 10.0389 47.612 10.5514 47.612 11.1842C47.612 11.5942 47.5359 11.9593 47.3859 12.2702V12.2705Z" fill="#0D0E0E"/>
<path d="M64.6721 9.23643V7.25492H62.975V4.45966H60.6394V7.25492H59.1899V9.23643H60.6394V12.48C60.6394 14.2833 60.9945 15.6086 63.2077 15.5676L64.597 15.5404V13.6825H63.9076C62.9239 13.6825 62.9786 13.1087 62.9786 12.0431L62.9747 9.23643H64.6718H64.6721Z" fill="#0D0E0E"/>
<path d="M41.1357 9.23643V7.25492H39.4387V4.45966H37.1031V7.25492H35.6536V9.23643H37.1031V12.48C37.1031 14.2833 37.4581 15.6086 39.6713 15.5676L41.0606 15.5404V13.6825H40.3712C39.3875 13.6825 39.4423 13.1087 39.4423 12.0431L39.4384 9.23643H41.1354H41.1357Z" fill="#0D0E0E"/>
</svg>
