<svg width="101" height="100" viewBox="0 0 101 100" fill="none" xmlns="http://www.w3.org/2000/svg">
<g clip-path="url(#clip0_12959_134009)">
<path d="M85.6983 40.9985V48.3335C85.6983 44.3735 83.0883 40.4135 77.8683 37.3985C67.5033 31.4135 50.6883 31.4135 40.3983 37.3985C35.2833 40.3685 32.7183 44.2685 32.7183 48.1835V40.8485C32.7483 36.9485 35.3133 33.0485 40.4283 30.0635C50.7183 24.0785 67.5483 24.0785 77.8983 30.0635C83.1183 33.0785 85.7133 37.0385 85.7133 40.9985H85.6983Z" fill="#E1E5E5" stroke="#0D0E0E" stroke-width="0.5" stroke-linejoin="round"/>
<path d="M91.6983 41.0286V48.3637C91.6683 53.1487 88.5183 57.9337 82.2483 61.5787C69.6183 68.9137 49.0083 68.9137 36.2883 61.5787C29.8983 57.8887 26.7033 53.0287 26.7183 48.1837V40.8486C26.7183 45.6937 29.9133 50.5537 36.3183 54.2437C49.0383 61.5937 69.6483 61.5937 82.2783 54.2437C88.5483 50.5987 91.6833 45.8137 91.6983 41.0286Z" fill="#0D0E0E" stroke="#0D0E0E" stroke-width="0.5" stroke-linejoin="round"/>
<path d="M82.1132 27.6187C94.8332 34.9687 94.8932 46.9088 82.2782 54.2438C69.6632 61.5789 49.0382 61.5789 36.3182 54.2438C23.5982 46.9088 23.5382 34.9687 36.1682 27.6187C48.7982 20.2687 69.4082 20.2837 82.1282 27.6187H82.1132ZM40.5332 51.7838C50.8982 57.7688 67.7132 57.7688 78.0032 51.7838C88.2932 45.7988 88.2482 36.0637 77.8832 30.0787C67.5182 24.0937 50.7032 24.0937 40.4132 30.0787C30.1232 36.0637 30.1682 45.7988 40.5332 51.7838Z" fill="white" stroke="#0D0E0E" stroke-width="0.5" stroke-linejoin="round"/>
<path fill-rule="evenodd" clip-rule="evenodd" d="M13.8481 67.5189L13.8684 67.5072C13.8616 67.511 13.8549 67.5149 13.8481 67.5189ZM36.8879 55.4138C36.153 54.9939 35.4781 54.9489 34.9981 55.2339L13.8684 67.5072C14.347 67.2352 15.0134 67.2848 15.7381 67.6989L15.7383 67.6988C17.2082 68.5539 18.3931 70.6088 18.3931 72.2887C18.3931 73.1117 18.1052 73.7043 17.6421 73.9819L17.6131 73.9987C17.6229 73.9933 17.6325 73.9876 17.6421 73.9819L38.7631 61.7137C39.2431 61.4437 39.5431 60.8437 39.5431 60.0037C39.5431 58.3087 38.3581 56.2687 36.8881 55.4137L36.8879 55.4138Z" fill="white"/>
<path d="M13.8481 67.5189L13.7205 67.3039C13.6022 67.3742 13.5629 67.5269 13.6326 67.6455C13.7023 67.7642 13.8547 67.8042 13.9737 67.7351L13.8481 67.5189ZM34.9981 55.2339L35.1237 55.4501L35.1258 55.4488L34.9981 55.2339ZM36.8879 55.4138L36.7639 55.6308C36.8412 55.675 36.9362 55.6747 37.0132 55.6301L36.8879 55.4138ZM15.7381 67.6989L15.6141 67.916C15.6915 67.9602 15.7866 67.9599 15.8637 67.9151L15.7381 67.6989ZM15.7383 67.6988L15.864 67.4827C15.7864 67.4375 15.6904 67.4375 15.6127 67.4827L15.7383 67.6988ZM17.6131 73.9987L17.4876 73.7826C17.3687 73.8516 17.3279 74.0035 17.3961 74.1228C17.4643 74.2421 17.6159 74.284 17.7357 74.2166L17.6131 73.9987ZM38.7631 61.7137L38.6405 61.4958L38.6376 61.4975L38.7631 61.7137ZM36.8881 55.4137L37.0138 55.1976C36.9363 55.1524 36.8405 55.1524 36.7628 55.1973L36.8881 55.4137ZM13.9737 67.7351L13.9939 67.7233L13.7428 67.291L13.7226 67.3027L13.9737 67.7351ZM13.7449 67.2898C13.7367 67.2944 13.7286 67.2992 13.7205 67.3039L13.9758 67.7339C13.9811 67.7307 13.9865 67.7276 13.9919 67.7245L13.7449 67.2898ZM35.1258 55.4488C35.4992 55.2271 36.0725 55.2358 36.7639 55.6308L37.012 55.1967C36.2336 54.752 35.457 54.6707 34.8705 55.0189L35.1258 55.4488ZM13.9939 67.7233L35.1237 55.45L34.8726 55.0177L13.7428 67.291L13.9939 67.7233ZM15.8622 67.4819C15.0945 67.0432 14.3289 66.958 13.7449 67.2898L13.9919 67.7245C14.3651 67.5125 14.9324 67.5264 15.6141 67.916L15.8622 67.4819ZM15.6127 67.4827L15.6126 67.4828L15.8637 67.9151L15.8639 67.915L15.6127 67.4827ZM18.6431 72.2887C18.6431 71.3944 18.3294 70.4178 17.8334 69.5594C17.3373 68.7008 16.6454 67.9372 15.864 67.4827L15.6126 67.9149C16.3012 68.3155 16.9366 69.0068 17.4005 69.8095C17.8644 70.6123 18.1431 71.5032 18.1431 72.2887H18.6431ZM17.7706 74.1963C18.3359 73.8575 18.6431 73.1629 18.6431 72.2887H18.1431C18.1431 73.0605 17.8744 73.5511 17.5136 73.7675L17.7706 74.1963ZM17.5165 73.7657L17.4876 73.7826L17.7387 74.2149L17.7677 74.1981L17.5165 73.7657ZM17.7357 74.2166C17.7474 74.21 17.7591 74.2033 17.7706 74.1963L17.5135 73.7675C17.5059 73.772 17.4983 73.7765 17.4906 73.7808L17.7357 74.2166ZM38.6376 61.4975L17.5165 73.7657L17.7677 74.1981L38.8887 61.9299L38.6376 61.4975ZM39.2931 60.0037C39.2931 60.7916 39.0134 61.2861 38.6406 61.4958L38.8857 61.9316C39.4729 61.6013 39.7931 60.8958 39.7931 60.0037H39.2931ZM36.7624 55.6298C37.4514 56.0305 38.0869 56.7185 38.5505 57.519C39.0142 58.3196 39.2931 59.2104 39.2931 60.0037H39.7931C39.7931 59.102 39.4795 58.1253 38.9832 57.2684C38.4868 56.4114 37.7948 55.6518 37.0138 55.1976L36.7624 55.6298ZM37.0132 55.6301L37.0134 55.63L36.7628 55.1973L36.7627 55.1974L37.0132 55.6301Z" fill="#0D0E0E"/>
<path d="M15.7381 67.6989C17.2081 68.5539 18.3931 70.594 18.3931 72.289C18.3931 73.984 17.1931 74.659 15.7231 73.804C14.2531 72.949 13.0681 70.909 13.0831 69.214C13.0981 67.5189 14.2831 66.8439 15.7381 67.6989Z" fill="white" stroke="#0D0E0E" stroke-width="0.5" stroke-linejoin="round"/>
<path fill-rule="evenodd" clip-rule="evenodd" d="M6.45309 69.3599L6.31822 69.4382H6.30322C6.35208 69.41 6.40205 69.3839 6.45309 69.3599ZM27.2982 59.2866C26.1212 58.6075 25.0638 58.5507 24.2882 58.9982L6.45309 69.3599C7.2171 69 8.22244 69.1055 9.33322 69.7382L9.34573 69.731C11.6949 71.0855 13.5782 74.3786 13.5782 77.0738C13.5632 78.4238 13.0982 79.3538 12.3332 79.8038L30.3032 69.3637C31.0682 68.9137 31.5482 67.9687 31.5482 66.6337C31.5482 63.9337 29.6432 60.6337 27.3032 59.2837L27.2982 59.2866Z" fill="white"/>
<path d="M6.31822 69.4382V69.6882C6.36234 69.6882 6.40566 69.6765 6.44381 69.6544L6.31822 69.4382ZM6.30322 69.4382L6.17829 69.2217C6.08027 69.2782 6.03246 69.3936 6.06173 69.5029C6.091 69.6122 6.19006 69.6882 6.30322 69.6882V69.4382ZM24.2882 58.9982L24.1633 58.7816L24.1626 58.782L24.2882 58.9982ZM27.2982 59.2866L27.1733 59.5031C27.2508 59.5479 27.3464 59.5477 27.4238 59.5027L27.2982 59.2866ZM9.33322 69.7382L9.20948 69.9555C9.28683 69.9995 9.38176 69.9991 9.45873 69.9544L9.33322 69.7382ZM9.34573 69.731L9.47061 69.5144C9.3931 69.4697 9.2976 69.4698 9.22022 69.5148L9.34573 69.731ZM13.5782 77.0738L13.8282 77.0765V77.0738H13.5782ZM12.3332 79.8038L12.2064 79.5883C12.0876 79.6582 12.0478 79.811 12.1173 79.9299C12.1869 80.0489 12.3396 80.0892 12.4587 80.0199L12.3332 79.8038ZM30.3032 69.3637L30.4287 69.5799L30.4299 69.5792L30.3032 69.3637ZM27.3032 59.2837L27.4281 59.0671C27.3505 59.0224 27.255 59.0225 27.1776 59.0675L27.3032 59.2837ZM6.44381 69.6544L6.57868 69.576L6.32751 69.1437L6.19264 69.2221L6.44381 69.6544ZM6.30322 69.6882H6.31822V69.1882H6.30322V69.6882ZM6.34656 69.1337C6.28925 69.1607 6.23315 69.19 6.17829 69.2217L6.42815 69.6548C6.471 69.63 6.51484 69.6071 6.55963 69.586L6.34656 69.1337ZM24.4132 59.2147C25.0853 58.8269 26.0434 58.8512 27.1733 59.5031L27.4231 59.07C26.1991 58.3638 25.0423 58.2745 24.1633 58.7816L24.4132 59.2147ZM6.57868 69.576L24.4138 59.2143L24.1626 58.782L6.32751 69.1437L6.57868 69.576ZM9.45696 69.521C8.30548 68.8651 7.21072 68.7266 6.34656 69.1337L6.55963 69.586C7.22348 69.2733 8.13941 69.3459 9.20948 69.9555L9.45696 69.521ZM9.22022 69.5148L9.20771 69.522L9.45873 69.9544L9.47125 69.9472L9.22022 69.5148ZM13.8282 77.0738C13.8282 75.6723 13.3402 74.1325 12.5596 72.775C11.779 71.4175 10.6924 70.2189 9.47061 69.5144L9.22085 69.9475C10.3482 70.5976 11.3778 71.7227 12.1262 73.0242C12.8745 74.3257 13.3282 75.7801 13.3282 77.0738H13.8282ZM12.4599 80.0193C13.3272 79.5091 13.8126 78.4779 13.8281 77.0765L13.3282 77.071C13.3137 78.3697 12.8692 79.1984 12.2064 79.5883L12.4599 80.0193ZM30.1776 69.1476L12.2076 79.5876L12.4587 80.0199L30.4287 69.5799L30.1776 69.1476ZM31.2982 66.6337C31.2982 67.9133 30.8403 68.7577 30.1764 69.1482L30.4299 69.5792C31.2961 69.0697 31.7982 68.0242 31.7982 66.6337H31.2982ZM27.1782 59.5002C28.3011 60.1481 29.334 61.274 30.0867 62.5775C30.8394 63.881 31.2982 65.3381 31.2982 66.6337H31.7982C31.7982 65.2293 31.3044 63.6865 30.5197 62.3274C29.7349 60.9684 28.6452 59.7693 27.4281 59.0671L27.1782 59.5002ZM27.4238 59.5027L27.4287 59.4999L27.1776 59.0675L27.1726 59.0704L27.4238 59.5027Z" fill="#0D0E0E"/>
<path d="M9.33324 69.7381C11.6732 71.0881 13.5782 74.3882 13.5782 77.0882C13.5782 79.7882 11.6582 80.8682 9.31824 79.5182C6.97824 78.1682 5.07324 74.8682 5.07324 72.1681C5.07324 69.4681 6.99324 68.3731 9.33324 69.7231V69.7381Z" fill="white" stroke="#0D0E0E" stroke-width="0.5" stroke-linejoin="round"/>
</g>
<defs>
<clipPath id="clip0_12959_134009">
<rect width="100" height="100" fill="white" transform="translate(0.5)"/>
</clipPath>
</defs>
</svg>
