<svg xmlns="http://www.w3.org/2000/svg" fill="none" viewBox="0 0 1440 948"><g clip-path="url(#a)"><path fill="#fff" d="M0 0h1440v948H0z"/><g filter="url(#b)"><mask id="c" width="1440" height="948" x="0" y="0" maskUnits="userSpaceOnUse" style="mask-type:luminance"><path fill="#fff" d="M1440 0H0v948h1440V0Z"/></mask><g mask="url(#c)"><path fill="#fff" d="M1440 0H0v948h1440V0Z"/><path fill="url(#d)" d="M1824.83 1155.72c-.01 0-.01 0 0-.01 20.64-35.17 42.48-69.86 64.1-104.35 80.66-128.641 155.13-265.811 187.86-410.562 40.92-180.929 25.31-364.255-48.79-523.234-150.56-322.971-507.25-534.438-883.79-498.131-376.536 36.306-745.763 333.093-841.354 699.576-27.483 105.376-33.7 213.257-62.175 318.481-28.474 105.223-85.059 213.075-181.545 270.935-101.413 60.825-225.155 53.721-330.832 22.994-105.677-30.727-202.734-82.528-310.945-106.136-293.143-63.953-641.819 111.394-793.499 389.667-62.27 114.25-90.3 241.96-86.63 365.16 3.48 116.67 34.94 229.88 92.03 327.01 29.38 49.99 65.59 95.67 108.05 135.01 212.75 197.15 565.543 231.33 852.797 92.69 122.853-59.29 232.211-145.57 351.573-212.48 119.361-66.9 257.929-114.9 382.698-85.74 153.833 35.95 247.801 178.76 302.473 323.25 54.667 144.48 84.694 302.75 172.293 428.08 160.283 229.31 516.046 293.76 784.996 142.2 268.94-151.55 415.92-499.3 324.28-767.3-70.12-205.1-249.61-350.63-179.84-595.73 21-73.79 56.41-143.51 96.25-211.37v-.01Z" opacity=".52"/><path fill="url(#e)" fill-opacity=".5" d="M-379.83 1700.62h.006c12.642 40.14 24.079 80.84 35.521 121.26 42.648 150.71 96.126 302.62 184.359 427.95 110.285 156.65 261.606 271.83 434.835 325.52 351.933 109.04 761.359-16.47 994.669-328.9 233.3-312.42 261.91-799.86 47.34-1126.86-61.7-94.02-140.07-173.555-200.96-268.227-60.9-94.672-104.31-212.611-81.74-326.333 23.72-119.536 114.97-209.013 211.81-268.331 96.84-59.318 203.84-97.45 296.98-163.636 252.31-179.3 359.73-566.866 251.66-875.501-44.38-126.717-122.82-236.632-219.78-319.252-91.82-78.22-200.4-132.71-314.44-156.49-58.67-12.25-118.8-16.29-178.39-11.17-298.635 25.62-569.487 271.073-662.451 586.33-39.762 134.826-49.476 278.074-80.978 415.518C307.108-130.059 247.8 8.934 138.924 83.903 4.69 176.338-169.931 149.012-318.574 90.554-467.21 32.096-609.335-54.728-766.131-74.783c-286.889-36.696-583.009 190.034-653.379 500.279s94.22 663.454 363.16 779.354c205.807 88.69 441.813 52.65 581.271 275.8 41.984 67.18 70.858 142.53 95.244 219.96.001.01.003.01.005.01Z" opacity=".52"/><path fill="url(#f)" fill-opacity=".5" d="M338.65 1946.56c.003 0 .005 0 .005.01 2.078 42.02 2.848 84.29 3.694 126.27 3.139 156.58 16.453 317.04 70.124 460.54 67.083 179.35 184.361 328.93 338.398 424.52 312.949 194.17 740.869 175.87 1045.649-67.67 304.79-243.53 455.78-707.97 330.89-1078.44-35.92-106.52-91.62-203.22-126.59-310.16-34.97-106.95-47.14-232 3.46-336.36 53.19-109.68 164.13-173.273 272.84-206.275 108.7-33.002 221.89-42.942 328.76-83.52 289.49-109.932 491.48-457.882 464.99-783.747-10.88-133.79-58.97-259.908-131.89-364.272-69.06-98.823-160.34-178.904-264.66-230.643-53.68-26.626-110.84-45.69-169.79-55.746-295.45-50.443-619.62 118.828-789.33 400.454-72.58 120.442-118.22 256.603-183.48 381.659-65.25 125.055-157.8 244.605-282.11 289.718-153.28 55.624-315.326-14.807-444.366-108.818-129.032-94.009-244.589-213.825-391.233-272.73-268.317-107.782-612.2 37.006-758.776 319.474-146.577 282.469-76.678 665.706 154.229 845.596 176.706 137.66 414.184 162.25 492.67 413.3 23.63 75.58 32.507 155.76 36.512 236.84h.004Z" opacity=".52"/><path fill="url(#g)" fill-opacity=".6" d="M653.365 1083.39h.005c14.192 38.23 27.244 77.06 40.287 115.62 48.622 143.77 107.778 288.18 199.258 405.17 114.345 146.23 266.365 250.34 436.565 293.86 345.79 88.41 735.74-52.96 946.18-366.66 210.44-313.69 214.3-786.794-9.25-1092.805-64.29-87.986-143.98-161.142-207.52-249.797-63.53-88.655-111.29-200.676-95.01-311.827 17.1-116.832 101.01-207.86 191.79-269.975 90.79-62.114 192.44-104.221 279.31-172.801 235.33-185.788 320.31-566.075 200.68-859.495-49.11-120.47-130.37-223.02-228.2-298.25-92.66-71.24-200.36-118.69-311.84-136.16-57.36-8.99-115.73-9.98-173.13-2.13-287.65 39.32-537.68 290.03-612.21 599.64-31.88 132.41-34.28 271.506-58.04 406.047-23.76 134.541-74.35 271.934-176.01 349.78-125.346 95.981-295.61 78.031-442.265 28.69-146.647-49.342-288.383-126.451-441.048-138.232-279.336-21.557-554.723 212.26-607.642 515.917C-467.644 203.639-291.164 537.45-25.33 636.521c203.434 75.816 429.988 29.464 575.803 238.631 43.898 62.968 75.511 134.478 102.886 208.228.001.01.003.01.006.01Z" opacity=".52"/><path fill="url(#h)" fill-opacity=".5" d="M4411.2 364.141v-.006c20.65-35.18 42.48-69.861 64.11-104.36 80.65-128.636 155.13-265.806 187.86-410.557 40.91-180.929 25.31-364.255-48.8-523.234-150.56-322.971-507.25-534.434-883.78-498.134-376.54 36.31-745.77 333.096-841.36 699.579-27.48 105.376-33.7 213.257-62.17 318.48-28.48 105.224-85.06 213.076-181.55 270.936-101.41 60.824-225.15 53.721-330.83 22.994-105.68-30.727-202.74-82.528-310.95-106.136-293.14-63.953-641.81 111.394-793.49 389.669-62.28 114.252-90.3 241.962-86.63 365.162 3.48 116.664 34.94 229.876 92.03 327.006 29.37 49.99 65.59 95.67 108.05 135.01 212.74 197.15 565.54 231.33 852.79 92.69 122.86-59.29 232.21-145.57 351.57-212.48 119.37-66.9 257.93-114.91 382.7-85.74 153.84 35.95 247.8 178.76 302.48 323.25 54.66 144.48 84.69 302.75 172.29 428.08 160.28 229.31 516.05 293.76 784.99 142.2 268.95-151.55 415.92-499.3 324.29-767.3-70.13-205.095-249.61-350.628-179.84-595.732 21-73.788 56.41-143.504 96.24-211.37v-.007Z" opacity=".52"/></g></g></g><defs><radialGradient id="d" cx="0" cy="0" r="1" gradientTransform="matrix(1756.74442 -648.38637 539.9815 1463.03118 -347.563 1270.32)" gradientUnits="userSpaceOnUse"><stop stop-color="#9BD1FF"/><stop offset="1" stop-color="#fff"/></radialGradient><radialGradient id="e" cx="0" cy="0" r="1" gradientTransform="matrix(1781.80092 -3239.98537 2705.73447 1487.99442 -152.178 2097.65)" gradientUnits="userSpaceOnUse"><stop stop-color="#9BD1FF"/><stop offset=".732" stop-color="#fff"/></radialGradient><radialGradient id="f" cx="0" cy="0" r="1" gradientTransform="matrix(-562.8758 3965.38992 -3314.48476 -470.48167 1450.3078 106.647)" gradientUnits="userSpaceOnUse"><stop stop-color="#9BD1FF"/><stop offset="1" stop-color="#fff"/></radialGradient><radialGradient id="g" cx="0" cy="0" r="1" gradientTransform="matrix(2747.87166 439.64585 -365.88547 2286.85503 376.8227 -60.4361)" gradientUnits="userSpaceOnUse"><stop stop-color="#9BD1FF"/><stop offset=".44" stop-color="#fff"/></radialGradient><radialGradient id="h" cx="0" cy="0" r="1" gradientTransform="matrix(184.06601 -668.33857 558.49909 153.8153 1173.6156 141.0169)" gradientUnits="userSpaceOnUse"><stop stop-color="#9BD1FF"/><stop offset="1" stop-color="#fff"/></radialGradient><clipPath id="a"><path fill="#fff" d="M0 0h1440v948H0z"/></clipPath><filter id="b" width="1472" height="980" x="-16" y="-16" color-interpolation-filters="sRGB" filterUnits="userSpaceOnUse"><feFlood flood-opacity="0" result="BackgroundImageFix"/><feBlend in="SourceGraphic" in2="BackgroundImageFix" result="shape"/><feGaussianBlur result="effect1_foregroundBlur_34_10037" stdDeviation="8"/></filter></defs></svg>