<svg width="622" height="676" viewBox="0 0 622 676" fill="none" xmlns="http://www.w3.org/2000/svg">
<g clip-path="url(#clip0_118_5698)">
<path d="M547.043 157.133C542.393 154.876 536.782 156.82 534.524 161.47C533.204 164.19 533.287 167.304 534.676 169.917L527.55 181.224C527.192 181.783 527.102 182.471 527.277 183.117C527.458 183.75 527.903 184.282 528.508 184.576L536.936 188.667C537.528 188.955 538.234 188.981 538.843 188.731C539.453 188.481 539.944 187.973 540.162 187.346L544.638 174.753C547.561 174.233 550.042 172.378 551.368 169.646C553.625 164.997 551.681 159.385 547.031 157.128L547.043 157.133Z" fill="#845ED6" stroke="black" stroke-width="1.5" stroke-miterlimit="10"/>
<path d="M542.461 123.698C546.969 114.41 558.193 110.522 567.481 115.03C576.768 119.539 580.656 130.762 576.148 140.05L572.864 146.815L585.499 152.949L588.783 146.184C596.672 129.933 589.876 110.289 573.614 102.395C557.352 94.5009 537.725 101.319 529.837 117.57L526.553 124.335L539.188 130.469L542.472 123.703L542.461 123.698Z" fill="#845ED6" stroke="black" stroke-width="1.5" stroke-miterlimit="10"/>
<path d="M591.01 157.664L584.698 154.6L585.499 152.949L572.864 146.816L572.063 148.466L538.376 132.114L539.177 130.463L526.553 124.335L525.752 125.986L519.428 122.916C518.266 122.352 516.867 122.837 516.303 123.999L490.753 176.634C488.496 181.283 490.445 186.883 495.095 189.14L554.053 217.76C558.703 220.017 564.303 218.067 566.56 213.418L592.11 160.783C592.674 159.621 592.19 158.222 591.027 157.658L591.01 157.664ZM544.643 174.742L540.168 187.335C539.95 187.961 539.464 188.458 538.849 188.72C538.239 188.97 537.534 188.943 536.941 188.655L528.514 184.564C527.921 184.277 527.464 183.739 527.283 183.105C527.102 182.472 527.198 181.771 527.555 181.212L534.681 169.906C533.281 167.287 533.204 164.19 534.53 161.459C536.787 156.809 542.399 154.865 547.049 157.122C551.698 159.379 553.642 164.991 551.385 169.641C550.065 172.361 547.567 174.222 544.655 174.747L544.643 174.742Z" fill="#FF794B" stroke="black" stroke-width="1.5" stroke-miterlimit="10"/>
<path d="M555.928 667.666C587.932 676.283 621.134 656.591 630.086 623.681C639.038 590.772 620.351 557.108 588.347 548.491C556.343 539.873 523.141 559.565 514.189 592.475C505.237 625.384 523.924 659.048 555.928 667.666Z" fill="#EB8865"/>
<path d="M554.1 672.467C550.148 671.407 546.171 669.882 542.413 668.112C537.18 665.641 532.462 662.393 528.284 658.832C520.799 652.403 515.051 644.609 511.14 635.631C507.395 627.154 505.436 618.242 505.364 609.074C505.374 604.045 505.807 599.129 506.985 594.26L507.465 591.949L508.086 589.676L508.163 589.392C509.352 585.594 510.643 581.975 512.318 578.613C515.373 572.418 519.377 566.63 524.214 561.676C530.505 555.282 537.833 550.081 546.082 546.499C555.513 542.472 565.389 540.699 575.709 541.18C579.894 541.388 583.963 542.022 587.953 542.94L588.236 543.016L590.494 543.621L590.917 543.735C594.831 544.937 598.807 546.461 602.527 548.374C609.683 552.123 616.066 557.038 621.536 563.08C626.865 569.084 631.036 575.997 633.846 583.46C638.597 596.018 639.431 609.051 636.606 622.169C635.414 627.644 633.517 632.929 630.913 638.025C627.64 644.466 623.315 650.32 618.157 655.341C611.944 661.451 604.912 666.121 597.062 669.353C584.586 674.545 571.488 675.911 558.129 673.243C556.782 673.186 555.37 672.807 554.1 672.467ZM562.891 660.796C564.151 660.067 565.308 659.157 566.568 658.428C572.738 654.136 578.179 649.191 582.991 643.773C578.682 641.245 574.116 639.105 569.254 637.496L562.891 660.796ZM523.232 636.282C527.569 643.697 533.18 649.777 540.065 654.521C537.241 647.664 535.445 640.93 534.329 633.922C530.553 634.434 526.841 635.268 523.232 636.282ZM591.555 649.577C587.244 654.825 582.343 659.458 576.737 663.901C584.673 663.132 592.29 660.753 599.308 656.689C596.809 654.189 594.272 651.831 591.555 649.577ZM544.819 633.228C546.228 641.383 548.921 649.272 552.821 657.18L558.989 634.59C554.356 633.805 549.646 633.303 544.819 633.228ZM516.682 598.691C515.007 608.153 515.746 617.653 518.873 626.726C523.523 625.229 528.34 624.233 533.219 623.56C532.95 616.779 533.426 610.045 534.748 603.537L516.682 598.691ZM597.926 641.222C601.554 644.025 604.924 647.217 608.075 650.654C615.392 644.383 620.864 636.549 624.233 627.541L607.013 622.922C604.664 629.306 601.648 635.359 597.926 641.222ZM572.047 627.266C578.141 629.358 583.938 631.981 589.401 635.276C592.53 630.473 594.953 625.482 596.851 620.196L575.539 614.479L572.047 627.266ZM544.911 606.263C543.899 611.634 543.451 617.156 543.748 622.725C549.821 622.676 555.879 623.234 561.923 624.398L565.415 611.611L544.911 606.263ZM626.885 617.274C627.703 612.614 627.918 607.944 627.568 603.124C627.204 598.909 626.377 594.723 625.191 590.745C620.682 592.28 616.007 593.313 611.269 594.024C611.372 600.304 610.871 606.574 609.665 612.655L626.885 617.274ZM599.503 609.929C600.399 604.985 600.832 600.069 600.701 595.002C594.128 595.221 587.646 594.549 581.178 593.272L578.191 604.212L599.503 609.929ZM537.542 593.308C539.556 587.596 542.134 582.036 545.419 576.665C541.406 573.607 537.832 570.056 534.437 566.4C527.762 572.539 522.728 579.88 519.475 588.462L537.542 593.308ZM568.028 601.486L571.016 590.546C565.063 588.492 559.265 585.869 553.944 582.612C552.025 585.757 548.815 592.52 547.563 595.996L568.028 601.486ZM584.112 583.08C589.271 584.159 594.624 584.528 599.772 584.536C598.313 575.453 595.391 566.74 590.94 558.075L584.112 583.08ZM560.252 573.935C564.56 576.463 569.126 578.603 573.989 580.212L580.662 555.775C572.55 561.071 565.773 567.029 560.252 573.935ZM542.858 559.968C545.216 562.43 549.316 566.275 551.405 568.055C556.193 562.172 561.608 556.763 567.793 551.866C559.113 552.587 550.635 555.344 542.858 559.968ZM604.271 561.956C605.344 564.683 606.378 567.553 607.169 570.205C608.56 574.542 609.45 579.051 610.198 583.521C613.832 582.971 617.544 582.137 621.051 580.943C616.933 573.281 611.258 566.88 604.271 561.956Z" fill="#84DFFF" stroke="black" stroke-width="1.5" stroke-miterlimit="2" stroke-linejoin="round"/>
<path d="M390.781 474.471C382.206 462.959 369.725 465.218 364.566 467.779C362.909 455.439 349.521 451.395 343.081 451.954C322.228 453.776 321.646 474.775 325.312 492.857C328.239 507.328 335.052 519.381 338.089 523.601C342.779 523.045 355.885 520.42 370.804 514.432C389.45 506.949 401.512 488.86 390.791 474.468L390.781 474.471Z" fill="url(#paint0_linear_118_5698)" stroke="black" stroke-width="1.49876"/>
<path d="M-4.86131 346.652L124.151 346.652L124.151 441.782L-4.86132 441.782L-4.86131 346.652Z" fill="white"/>
<path d="M-4.20959 347.303L-4.2096 441.13L123.5 441.13L123.5 347.303L-4.20959 347.303ZM-5.51276 346L124.803 346L124.803 442.433L-5.51276 442.433L-5.51276 346Z" fill="black"/>
<path d="M5.564 357.077L115.029 357.077L115.029 431.356L5.564 431.356L5.564 357.077Z" fill="#FF794B"/>
<path d="M6.21524 357.728L6.21523 430.705L114.377 430.705L114.377 357.728L6.21524 357.728ZM4.91208 356.425L115.68 356.425L115.68 432.008L4.91207 432.008L4.91208 356.425Z" fill="black"/>
<path d="M64.2059 385.095C58.808 385.095 54.4322 380.719 54.4322 375.321C54.4322 369.923 58.808 365.547 64.2059 365.547C69.6037 365.547 73.9796 369.923 73.9796 375.321C73.9796 380.719 69.6037 385.095 64.2059 385.095Z" fill="#FFECE6" stroke="black" stroke-width="1.5" stroke-miterlimit="10"/>
<mask id="mask0_118_5698" style="mask-type:luminance" maskUnits="userSpaceOnUse" x="6" y="357" width="109" height="74">
<path d="M6.21594 357.728L114.378 357.728L114.378 430.705L6.21594 430.705L6.21594 357.728Z" fill="white"/>
</mask>
<g mask="url(#mask0_118_5698)">
<path d="M150.437 440.883C142.227 432.803 110.534 397.396 98.5709 383.987C96.1601 381.276 91.8987 381.407 89.6312 384.248L70.6182 408.187C68.3246 411.067 63.9851 411.145 61.5873 408.343L31.1586 372.715C28.6565 369.783 24.0433 370.03 21.8671 373.236L-23.2613 439.814C-23.8477 440.674 -24.1865 441.691 -24.2517 442.733L-24.7078 450.083C-24.9163 453.38 -22.349 456.195 -19.039 456.286L146.149 460.99C149.446 461.082 152.157 458.436 152.157 455.139L152.157 445.04C152.157 443.476 151.531 441.977 150.423 440.883L150.437 440.883Z" fill="#845ED6" stroke="black" stroke-width="1.5" stroke-miterlimit="10"/>
<path d="M230.867 478.166C234.347 478.166 237.162 475.338 237.162 471.859L237.162 461.759C237.162 460.065 236.497 458.462 235.285 457.276C227.179 449.288 196.321 414.833 183.432 400.394C182.247 399.064 180.526 398.296 178.741 398.296C176.812 398.296 175.001 399.169 173.802 400.68L154.789 424.619C153.76 425.909 152.222 426.652 150.567 426.652C148.912 426.652 147.491 425.961 146.462 424.763L116.033 389.134C114.834 387.727 113.088 386.919 111.251 386.919C109.153 386.919 107.211 387.948 106.025 389.682L60.8966 456.26C60.2581 457.198 59.8932 458.28 59.828 459.4L59.3719 466.75C59.2677 468.47 59.841 470.112 61.0139 471.389C62.1737 472.666 63.7636 473.383 65.4837 473.435L230.854 478.14L230.867 478.166Z" fill="#C0E6FF"/>
<path d="M111.264 387.388C109.413 387.388 107.576 388.261 106.416 389.955L61.2878 456.533C60.7013 457.394 60.3625 458.41 60.2973 459.452L59.8413 466.802C59.6327 470.099 62.2 472.914 65.51 473.005L230.698 477.71C230.698 477.71 230.815 477.71 230.868 477.71C234.086 477.71 236.706 475.103 236.706 471.859L236.706 461.759C236.706 460.195 236.08 458.697 234.973 457.602C226.763 449.522 195.07 414.116 183.107 400.706C181.947 399.403 180.344 398.752 178.754 398.752C177.047 398.752 175.34 399.494 174.167 400.967L155.154 424.906C153.981 426.378 152.287 427.121 150.58 427.121C148.873 427.121 147.309 426.444 146.136 425.075L115.708 389.447C114.535 388.066 112.893 387.401 111.264 387.401M111.264 386.476C113.245 386.476 115.108 387.336 116.398 388.848L146.827 424.476C147.765 425.571 149.134 426.209 150.58 426.209C152.027 426.209 153.499 425.531 154.45 424.346L173.464 400.407C174.754 398.778 176.682 397.852 178.754 397.852C180.67 397.852 182.507 398.673 183.785 400.107C196.66 414.533 227.505 448.975 235.611 456.95C236.901 458.228 237.618 459.935 237.618 461.759L237.618 471.859C237.618 475.586 234.595 478.609 230.868 478.609L230.672 478.609L65.4839 473.904C63.6334 473.852 61.9393 473.07 60.6883 471.702C59.4373 470.334 58.8248 468.575 58.9291 466.724L59.3851 459.374C59.4633 458.162 59.8543 457.003 60.5319 455.999L105.66 389.421C106.924 387.571 109.009 386.45 111.251 386.45L111.264 386.476Z" fill="black"/>
<path d="M142.252 485.451C145.732 485.451 148.547 482.623 148.547 479.143L148.547 469.044C148.547 467.35 147.882 465.747 146.67 464.561C138.564 456.573 107.706 422.117 94.8175 407.678C93.6316 406.336 91.9114 405.58 90.1261 405.58C88.1975 405.58 86.3861 406.453 85.1872 407.965L66.1741 431.904C65.1446 433.194 63.6069 433.937 61.9519 433.937C60.2969 433.937 58.8764 433.246 57.8469 432.047L27.4182 396.419C26.2193 395.012 24.4731 394.204 22.6356 394.204C20.5375 394.204 18.5958 395.233 17.41 396.966L-27.7184 463.545C-28.3569 464.483 -28.7218 465.564 -28.7869 466.685L-29.2431 474.035C-29.3473 475.755 -28.7739 477.397 -27.6011 478.674C-26.4413 479.951 -24.8514 480.668 -23.1312 480.72L142.239 485.425L142.252 485.451Z" fill="#C0E6FF"/>
<path d="M22.6494 394.66C20.7989 394.66 18.9615 395.533 17.8017 397.227L-27.3267 463.805C-27.9131 464.665 -28.2519 465.682 -28.3171 466.724L-28.7732 474.074C-28.9817 477.371 -26.4145 480.186 -23.1045 480.277L142.084 484.981C142.084 484.981 142.201 484.981 142.253 484.981C145.472 484.981 148.091 482.375 148.091 479.13L148.091 469.031C148.091 467.467 147.466 465.968 146.358 464.874C138.148 456.794 106.455 421.387 94.4924 407.978C93.3326 406.675 91.7297 406.023 90.1399 406.023C88.4328 406.023 86.7256 406.766 85.5528 408.239L66.5397 432.178C65.3669 433.65 63.6728 434.393 61.9656 434.393C60.2585 434.393 58.6947 433.715 57.5219 432.347L27.0931 396.719C25.9203 395.337 24.2783 394.673 22.6494 394.673M22.6494 393.748C24.6302 393.748 26.4937 394.608 27.7838 396.119L58.2125 431.748C59.1508 432.842 60.5191 433.481 61.9656 433.481C63.4121 433.481 64.8847 432.803 65.836 431.617L84.8491 407.678C86.1392 406.049 88.0679 405.124 90.1399 405.124C92.0555 405.124 93.893 405.945 95.1701 407.379C108.058 421.818 138.891 456.247 146.997 464.235C148.287 465.512 149.003 467.219 149.003 469.044L149.003 479.143C149.003 482.87 145.98 485.894 142.253 485.894L142.058 485.894L-23.1305 481.189C-24.981 481.137 -26.6751 480.355 -27.9262 478.987C-29.1772 477.619 -29.7897 475.859 -29.6854 474.009L-29.2293 466.659C-29.1511 465.447 -28.7602 464.287 -28.0825 463.284L17.0458 396.706C18.3099 394.855 20.3949 393.735 22.6364 393.735L22.6494 393.748Z" fill="black"/>
</g>
<path d="M-24.4225 393.313L100.194 359.922L124.816 451.811L0.198974 485.202L-24.4225 393.313Z" fill="white"/>
<path d="M-23.6244 393.774L0.659839 484.404L124.018 451.35L99.7334 360.72L-23.6244 393.774ZM-25.2204 392.853L100.655 359.124L125.614 452.272L-0.261637 486L-25.2204 392.853Z" fill="black"/>
<path d="M-11.6542 400.685L94.081 372.353L113.306 444.102L7.57077 472.434L-11.6542 400.685Z" fill="#FF794B"/>
<path d="M-10.8565 401.146L8.03119 471.636L112.508 443.641L93.62 373.151L-10.8565 401.146ZM-12.4526 400.224L94.5414 371.555L114.104 444.563L7.10972 473.232L-12.4526 400.224Z" fill="black"/>
<path d="M52.241 412.57C47.0271 413.968 41.6678 410.873 40.2708 405.659C38.8737 400.446 41.9679 395.086 47.1818 393.689C52.3957 392.292 57.755 395.386 59.1521 400.6C60.5491 405.814 57.4549 411.173 52.241 412.57Z" fill="#FFECE6" stroke="black" stroke-width="1.5" stroke-miterlimit="10"/>
<mask id="mask1_118_5698" style="mask-type:luminance" maskUnits="userSpaceOnUse" x="-11" y="373" width="124" height="99">
<path d="M-10.8558 400.968L93.4772 373.151L112.508 443.819L8.17537 471.636L-10.8558 400.968Z" fill="white"/>
</mask>
<g mask="url(#mask1_118_5698)">
<path d="M149.933 444.344C139.904 438.629 100.088 412.479 85.047 402.565C82.0137 400.559 77.9361 401.782 76.4893 405.118L64.3887 433.204C62.9269 436.584 58.7602 437.777 55.7157 435.679L17.0615 408.989C13.8825 406.792 9.49587 408.219 8.23229 411.885L-17.9436 488.003C-18.285 488.987 -18.3468 490.059 -18.1377 491.086L-16.6605 498.325C-16.0016 501.573 -12.7903 503.639 -9.57272 502.876L151.042 464.929C154.247 464.169 156.172 460.909 155.312 457.715L152.677 447.929C152.269 446.414 151.275 445.123 149.921 444.348L149.933 444.344Z" fill="#845ED6" stroke="black" stroke-width="1.5" stroke-miterlimit="10"/>
<path d="M237.319 459.594C240.676 458.699 242.654 455.235 241.747 451.864L239.112 442.079C238.67 440.437 237.611 439.056 236.132 438.218C226.227 432.564 187.464 407.122 171.262 396.449C169.771 395.466 167.911 395.164 166.188 395.623C164.327 396.119 162.807 397.431 162.045 399.204L149.944 427.29C149.288 428.805 147.998 429.92 146.401 430.346C144.804 430.772 143.253 430.468 141.947 429.572L103.293 402.882C101.769 401.827 99.8735 401.494 98.1006 401.966C96.0762 402.506 94.4712 404.003 93.7791 405.988L67.6034 482.105C67.232 483.178 67.1621 484.32 67.3916 485.423L68.8688 492.661C69.2169 494.355 70.1985 495.798 71.6633 496.734C73.1155 497.672 74.8365 497.958 76.5099 497.566L237.3 459.572L237.319 459.594Z" fill="#C0E6FF"/>
<path d="M98.236 402.418C96.4505 402.894 94.9053 404.213 94.2282 406.152L68.0526 482.269C67.7111 483.253 67.6494 484.325 67.8585 485.352L69.3356 492.59C69.9945 495.838 73.2058 497.905 76.4233 497.142L237.036 459.196C237.036 459.196 237.149 459.166 237.2 459.152C240.305 458.324 242.153 455.125 241.306 451.981L238.672 442.196C238.264 440.681 237.27 439.39 235.915 438.614C225.886 432.899 186.07 406.75 171.03 396.836C169.571 395.872 167.854 395.653 166.32 396.062C164.673 396.501 163.219 397.66 162.472 399.388L150.371 427.474C149.624 429.203 148.183 430.358 146.536 430.797C144.889 431.237 143.203 430.983 141.715 429.959L103.061 403.269C101.569 402.233 99.8111 402.011 98.2394 402.43M97.998 401.534C99.9092 401.024 101.932 401.378 103.571 402.511L142.225 429.2C143.415 430.019 144.902 430.286 146.298 429.914C147.694 429.541 148.938 428.506 149.546 427.112L161.647 399.027C162.467 397.116 164.086 395.724 166.086 395.191C167.934 394.698 169.921 395.02 171.527 396.081C187.713 406.744 226.46 432.178 236.361 437.819C237.939 438.724 239.076 440.194 239.552 441.961L242.187 451.746C243.159 455.357 241.03 459.064 237.434 460.023L237.246 460.074L76.6328 498.02C74.8337 498.445 72.9951 498.124 71.4311 497.12C69.8671 496.116 68.8172 494.569 68.4351 492.749L66.9579 485.511C66.7172 484.317 66.7919 483.093 67.1839 481.946L93.3595 405.829C94.0965 403.711 95.816 402.089 97.9786 401.512L97.998 401.534Z" fill="black"/>
<path d="M153.609 489.566C156.966 488.671 158.944 485.207 158.037 481.836L155.402 472.051C154.96 470.409 153.901 469.027 152.422 468.19C142.517 462.536 103.754 437.094 87.5522 426.42C86.0579 425.425 84.2009 425.135 82.4783 425.595C80.6174 426.091 79.0974 427.403 78.3349 429.176L66.2344 457.262C65.5776 458.777 64.2876 459.892 62.6907 460.318C61.0938 460.744 59.5431 460.44 58.237 459.544L19.583 432.854C18.0591 431.799 16.1634 431.465 14.3905 431.938C12.3661 432.478 10.7612 433.975 10.0691 435.959L-16.1066 512.077C-16.478 513.15 -16.5479 514.292 -16.3184 515.395L-14.8412 522.633C-14.4931 524.327 -13.5116 525.77 -12.0468 526.705C-10.5946 527.644 -8.87354 527.93 -7.20019 527.538L153.589 489.544L153.609 489.566Z" fill="#C0E6FF"/>
<path d="M14.523 432.377C12.7375 432.853 11.1924 434.172 10.5152 436.111L-15.6604 512.228C-16.0018 513.212 -16.0636 514.284 -15.8545 515.311L-14.3773 522.549C-13.7185 525.797 -10.5072 527.864 -7.28963 527.101L153.323 489.155C153.323 489.155 153.436 489.125 153.487 489.111C156.592 488.283 158.44 485.084 157.593 481.94L154.959 472.155C154.551 470.64 153.557 469.349 152.202 468.573C142.173 462.858 102.357 436.708 87.3166 426.795C85.8576 425.831 84.1411 425.612 82.6071 426.021C80.9599 426.46 79.5065 427.619 78.759 429.347L66.6585 457.433C65.911 459.162 64.4702 460.317 62.823 460.756C61.1758 461.196 59.4902 460.942 58.0016 459.918L19.3478 433.228C17.8558 432.192 16.0981 431.97 14.5264 432.389M14.285 431.493C16.1963 430.983 18.2187 431.337 19.8578 432.47L58.5116 459.159C59.7025 459.978 61.1893 460.245 62.585 459.873C63.9807 459.5 65.2248 458.465 65.8333 457.071L77.9338 428.986C78.7537 427.075 80.3733 425.683 82.3725 425.15C84.2209 424.657 86.2079 424.979 87.8141 426.04C104.016 436.713 142.747 462.137 152.652 467.79C154.23 468.696 155.367 470.165 155.843 471.933L158.477 481.718C159.449 485.329 157.321 489.036 153.725 489.995L153.536 490.045L-7.07681 527.991C-8.87588 528.417 -10.7145 528.095 -12.2785 527.091C-13.8425 526.088 -14.8924 524.541 -15.2745 522.721L-16.7517 515.483C-16.9924 514.288 -16.9177 513.064 -16.5256 511.918L9.64997 435.801C10.3869 433.683 12.1064 432.06 14.2691 431.484L14.285 431.493Z" fill="black"/>
</g>
<path d="M256.826 479.841C267.835 465.059 283.861 467.96 290.485 471.248C292.613 455.404 309.804 450.212 318.073 450.929C344.848 453.268 345.594 480.231 340.888 503.449C337.13 522.029 328.382 537.505 324.482 542.924C318.461 542.21 301.632 538.839 282.476 531.151C258.535 521.543 243.046 498.316 256.813 479.836L256.826 479.841Z" fill="url(#paint1_linear_118_5698)" stroke="black" stroke-width="1.49876"/>
<path d="M314.089 339.062C314.105 339.062 314.12 339.062 314.135 339.06L320.11 338.524C320.14 338.521 320.17 338.516 320.199 338.508C321.47 338.164 322.343 337.975 323.139 337.802C323.356 337.755 323.566 337.71 323.778 337.662C324.775 337.44 325.764 337.188 327.378 336.629L327.209 336.142L327.378 336.629C348.278 329.391 360.397 308.49 356.927 286.574C355.002 274.411 350.111 263.618 343.423 253.548C340.682 249.42 337.829 245.362 334.982 241.311C333.91 239.786 332.838 238.261 331.773 236.735C323.571 224.968 315.967 213.038 313.928 197.525C313.897 197.293 313.715 197.111 313.484 197.081C313.252 197.05 313.029 197.179 312.939 197.395C312.273 199.004 312.094 200.135 311.973 200.899C311.965 200.948 311.957 200.995 311.95 201.041L311.95 201.041C310.1 212.621 304.094 222.063 297.71 231.74C295.597 234.943 293.434 238.124 291.269 241.31C286.285 248.641 281.288 255.991 276.861 263.66C269.456 276.485 266.334 290.708 270.076 305.37C272.404 314.49 276.655 321.771 282.625 327.279C288.593 332.785 296.256 336.495 305.373 338.514C306.258 338.71 308.882 339.062 310.015 339.062H314.089Z" fill="#C0E6FF" stroke="black" stroke-width="1.03215" stroke-linejoin="round"/>
<path d="M313.547 325.781C323.777 324.423 344.345 316.059 344.78 293.462" stroke="black" stroke-width="1.03215" stroke-linecap="round"/>
<path d="M92.9995 -11.9015L131.542 -1.57413C132.365 -1.35366 132.776 -0.431647 132.379 0.316067L104.496 38.3959C104.112 39.1471 104.51 40.0656 105.333 40.2861L136.666 48.6817C137.632 48.9406 137.973 50.1239 137.298 50.8669L71.9825 121.808C70.9935 122.887 69.2406 121.801 69.7587 120.442L91.0286 64.3103C91.31 63.5737 90.8842 62.7597 90.1267 62.5567L61.5496 54.8995C60.8966 54.7246 60.481 54.0813 60.5776 53.4072L91.3381 -10.8209C91.4627 -11.5994 92.2289 -12.108 92.9995 -11.9015Z" fill="#F2BD24" stroke="black" stroke-width="1.5" stroke-miterlimit="10"/>
</g>
<defs>
<linearGradient id="paint0_linear_118_5698" x1="368.179" y1="460.764" x2="338.318" y2="523.718" gradientUnits="userSpaceOnUse">
<stop offset="0.41" stop-color="#9EE558"/>
<stop offset="0.85" stop-color="#84DFFF"/>
</linearGradient>
<linearGradient id="paint1_linear_118_5698" x1="285.847" y1="462.241" x2="324.187" y2="543.074" gradientUnits="userSpaceOnUse">
<stop offset="0.41" stop-color="#F5CF54"/>
<stop offset="0.85" stop-color="#84DFFF"/>
</linearGradient>
<clipPath id="clip0_118_5698">
<rect width="622" height="676" fill="white"/>
</clipPath>
</defs>
</svg>
