<svg width="56" height="56" viewBox="0 0 56 56" fill="none" xmlns="http://www.w3.org/2000/svg">
<path d="M30.2312 16.2988C27.3179 16.2409 24.4509 16.0459 21.6951 15.1123C20.9353 14.8334 20.2084 14.4719 19.5275 14.0343C19.0853 13.7641 19.0939 13.4823 19.5347 13.2034C20.142 12.8031 20.7937 12.4747 21.4769 12.2251C24.724 11.1297 28.0882 10.9245 31.4827 11.0213C34.0564 11.0979 36.607 11.3667 39.052 12.2193C39.7746 12.4707 40.4509 12.8826 41.1243 13.2655C41.5072 13.4823 41.4798 13.8349 41.1127 14.0256C40.2833 14.4592 39.4552 14.9317 38.5708 15.2106C35.857 16.069 33.0333 16.2395 30.2312 16.2988Z" fill="#4CA2FF" fill-opacity="0.4"/>
<path d="M42.5332 32.6398C39.9234 32.6181 37.0607 32.41 34.2963 31.5025C33.5629 31.2463 32.8613 30.9069 32.2052 30.491C31.6098 30.1254 31.62 29.8118 32.2312 29.4491C32.8683 29.0652 33.544 28.7494 34.2471 28.5069C36.5593 27.7352 38.9639 27.4722 41.3916 27.4086C44.6503 27.3219 47.8858 27.4794 51.039 28.4028C51.7251 28.6073 52.3907 28.8748 53.0275 29.2019C53.383 29.3811 53.6517 29.7323 53.9596 30.0069C53.6489 30.2814 53.3815 30.66 53.0202 30.8103C52.0116 31.2481 50.9728 31.6127 49.9119 31.9014C47.5838 32.4953 45.1994 32.6398 42.5332 32.6398Z" fill="#4CA2FF" fill-opacity="0.4"/>
<path d="M53.9697 32.7843C53.9697 33.7886 54.0203 34.7467 53.9408 35.6947C53.9109 35.8748 53.8413 36.0461 53.7371 36.196C53.6328 36.346 53.4966 36.4709 53.3382 36.5618C52.3006 37.043 51.2486 37.5733 50.1431 37.8175C45.0579 38.9577 39.9596 38.9736 34.896 37.6658C33.9842 37.4303 33.1345 36.9433 32.2645 36.5589C31.9755 36.4303 31.8657 36.1788 31.8729 35.8363C31.8931 34.8623 31.8801 33.8883 31.8801 32.8681C35.3859 34.4042 39.1142 34.7699 42.8931 34.7568C46.672 34.7438 50.409 34.3594 53.9697 32.7843Z" fill="#4CA2FF" fill-opacity="0.4"/>
<path d="M31.9812 39.0328C39.3164 41.4273 46.6343 41.4389 53.9725 38.8811C53.9725 39.8247 53.9985 40.8464 53.9508 41.8652C53.9407 42.0877 53.7095 42.3551 53.5086 42.5083C52.5838 43.2077 51.4927 43.5444 50.3887 43.8204C46.9956 44.6658 43.5462 44.7843 40.0737 44.543C38.0751 44.3984 36.0982 44.1224 34.208 43.4346C33.5609 43.1791 32.94 42.8617 32.354 42.4866C32.2531 42.4117 32.1692 42.3163 32.1077 42.2068C32.0462 42.0972 32.0085 41.9759 31.9971 41.8508C31.958 40.8883 31.9812 39.9288 31.9812 39.0328Z" fill="#4CA2FF" fill-opacity="0.4"/>
<path d="M19.3816 16.5228C22.9278 18.0661 26.6619 18.4014 30.4466 18.3898C34.2313 18.3782 37.9611 17.9953 41.5622 16.3566C41.5622 16.819 41.5724 17.2236 41.5622 17.6398C41.5449 18.2034 41.5015 18.7684 41.4842 19.3334C41.4712 19.767 41.1952 20.0011 40.8744 20.2106C39.8122 20.9115 38.6128 21.2785 37.3903 21.5329C32.7546 22.527 27.9617 22.5358 23.3224 21.5589C22.9871 21.4881 22.675 21.2915 22.3671 21.1254C21.4871 20.6441 20.6085 20.1571 19.7414 19.6514C19.5969 19.5632 19.4047 19.371 19.4004 19.2178C19.3643 18.3334 19.3816 17.436 19.3816 16.5228Z" fill="#4CA2FF" fill-opacity="0.4"/>
<path d="M25.3267 24.1542C30.8729 24.6528 36.279 24.6268 41.4928 22.4432V25.1976C40.6605 25.2568 39.8382 25.2944 39.0189 25.3782C36.5087 25.6383 34.0275 26.0242 31.7558 27.2221C31.3895 27.3968 31.0511 27.6247 30.7515 27.8984C30.4134 28.2366 30.055 28.3088 29.6128 28.2756C28.948 28.225 28.279 28.2337 27.6142 28.1802C27.4596 28.1687 27.2197 28.0357 27.1807 27.9158C26.7608 26.5736 26.1354 25.3047 25.3267 24.1542Z" fill="#4CA2FF" fill-opacity="0.4"/>
<path d="M29.7615 36.4361V40.3378L24.7441 39.9043C24.9811 39.5863 25.1517 39.3999 25.2759 39.1817C25.76 38.3407 26.2485 37.5011 26.6936 36.6384C26.8381 36.3624 26.9696 36.2684 27.2716 36.2944C28.0765 36.3638 28.8858 36.397 29.7615 36.4361Z" fill="#4CA2FF" fill-opacity="0.4"/>
<path d="M29.6547 34.2741L27.5623 34.1585C27.6287 32.8897 27.6923 31.6629 27.7588 30.3941C28.2776 30.3941 28.8701 30.384 29.4597 30.4056C29.5276 30.4056 29.6446 30.5834 29.6461 30.6788C29.6591 31.8478 29.6547 33.0169 29.6547 34.2741Z" fill="#4CA2FF" fill-opacity="0.4"/>
<g clip-path="url(#clip0_807_6738)">
<rect x="3" y="21" width="22" height="22" rx="11" fill="#4CA2FF" fill-opacity="0.4"/>
<rect width="22" height="22" transform="translate(3 21)" fill="#4CA2FF" fill-opacity="0.4"/>
<path fill-rule="evenodd" clip-rule="evenodd" d="M17.0647 30.8596V30.8603C17.6254 31.5636 17.9607 32.4546 17.9607 33.4235C17.9607 34.3923 17.6154 35.3098 17.0393 36.0179L16.9896 36.0789L16.9765 36.0014C16.9654 35.9356 16.9521 35.8689 16.937 35.8019C16.6488 34.5352 15.7093 33.4489 14.1633 32.5694C13.1193 31.9771 12.5217 31.2639 12.3648 30.4536C12.2634 29.9296 12.3388 29.4033 12.4844 28.9525C12.63 28.5018 12.8465 28.1242 13.0305 27.897L13.6318 27.1615C13.7374 27.0326 13.9347 27.0326 14.0402 27.1615L17.0649 30.8598L17.0647 30.8596ZM18.016 30.1248V30.1245L13.9849 25.1956C13.9079 25.1015 13.7638 25.1015 13.6868 25.1956L9.65569 30.1247V30.125L9.64262 30.1413C8.90098 31.0617 8.45703 32.2315 8.45703 33.5049C8.45703 36.4706 10.8652 38.875 13.8359 38.875C16.8065 38.875 19.2147 36.4706 19.2147 33.5049C19.2147 32.2315 18.7707 31.0617 18.0289 30.1412L18.0157 30.1248H18.016ZM10.6204 30.8436L10.981 30.4026L10.9918 30.4841C11.0004 30.5485 11.0109 30.6133 11.0233 30.6785C11.2565 31.9025 12.09 32.9231 13.4833 33.7136C14.6945 34.4028 15.3997 35.1955 15.6029 36.0648C15.6876 36.4277 15.7028 36.7847 15.6662 37.0968L15.6639 37.116L15.6464 37.1246C15.0998 37.3917 14.4852 37.5416 13.8357 37.5416C11.5577 37.5416 9.71086 35.6979 9.71086 33.4235C9.71086 32.447 10.0513 31.5497 10.6202 30.8438L10.6204 30.8436Z" fill="white"/>
</g>
<defs>
<clipPath id="clip0_807_6738">
<rect x="3" y="21" width="22" height="22" rx="11" fill="white"/>
</clipPath>
</defs>
</svg>
