<svg xmlns="http://www.w3.org/2000/svg" fill="none" viewBox="0 0 160 160"><g clip-path="url(#a)"><path fill="#DA8E2F" d="M78.75 131.112c3.613 1.017 7.442 1.017 11.516 0 .507-2.817.815-5.51.938-8.061.03-.861.046-1.409.046-1.643l-11.24-.783c.047 2.677-.368 6.183-1.26 10.487Z"/><path fill="#4E4943" d="M79.054 131.266c-.233 1.208-.48 2.449-.774 3.72a4.93 4.93 0 0 0-.155 1.272c0 1.381.573 2.559 1.703 3.516 1.13.989 2.507 1.476 4.117 1.476h6.686c.279 0 .542-.031.805-.063a5.658 5.658 0 0 0 2.276-.8c.294-.173.572-.377.835-.613 1.146-.957 1.703-2.119 1.703-3.516 0-1.382-.573-2.575-1.703-3.548a6.131 6.131 0 0 0-3.11-1.397 6.086 6.086 0 0 0-.79-.063c-4.086 1.036-7.956 1.036-11.593.016Z"/><path fill="black" d="M90.99 141.875h-6.792c-1.824 0-3.396-.56-4.685-1.648-1.337-1.088-2.013-2.456-2.013-4.073 0-.498.063-.98.189-1.446a88.07 88.07 0 0 0 .77-3.607c0-.016 0-.047.016-.062.88-4.214 1.32-7.665 1.273-10.246 0-.435.346-.777.77-.793h.017c.424 0 .786.342.786.762.031 2.689-.41 6.234-1.305 10.541 0 .015 0 .031-.016.047-.236 1.197-.503 2.44-.786 3.7v.031a3.984 3.984 0 0 0-.142 1.057c0 1.135.472 2.083 1.447 2.876l.016.016c1.022.855 2.217 1.275 3.663 1.275h6.793c.251 0 .487-.016.723-.062h.016c.739-.094 1.399-.311 1.996-.685l.016-.015a4.4 4.4 0 0 0 .723-.513c.016-.016.016-.016.032-.016.975-.793 1.446-1.741 1.446-2.876 0-1.135-.471-2.099-1.462-2.923-.802-.668-1.714-1.057-2.767-1.197a9.272 9.272 0 0 0-.692-.062h-.079a.681.681 0 0 1-.251-.078.611.611 0 0 1-.267-.218.728.728 0 0 1-.158-.31c-.015-.078-.031-.172-.015-.265 0-.031 0-.046.015-.078.52-2.736.834-5.394.944-7.898.031-.839.047-1.383.047-1.616a.784.784 0 0 1 .802-.762c.44.015.786.357.77.793 0 .248-.016.777-.063 1.648-.094 2.316-.377 4.757-.817 7.276a7.177 7.177 0 0 1 3.537 1.539c1.337 1.119 2.013 2.503 2.013 4.104 0 1.602-.676 2.97-2.013 4.058a5.614 5.614 0 0 1-.959.684 6.596 6.596 0 0 1-2.61.902c-.283.109-.597.14-.927.14.015 0 .015 0 0 0Z"/><path fill="#4E4943" d="M88.808 109.311c.221-.221.491-.379.792-.474 3.583-1.168 7.166-1.563 10.781-1.215.08 1.057.143 2.131.19 3.236.048.284.064.568.048.884-.048 1.468-.602 2.699-1.665 3.693-1.078 1.011-2.362 1.484-3.836 1.437-1.475-.048-2.727-.6-3.726-1.689a5.486 5.486 0 0 1-1.253-2.021 2.197 2.197 0 0 1-1.41-.694 2.271 2.271 0 0 1-.603-1.61c-.016-.6.222-1.121.682-1.547Z"/><path fill="#DA8E2F" d="M98.386 98.023a32.75 32.75 0 0 1 1.935 7.646c.112.841.208 1.682.304 2.507-3.647-.343-7.277.047-10.876 1.199a35.819 35.819 0 0 0-1.231-6.587c-.624-2.211-2-4.64-4.143-7.287l8.557-4.251c2.559 1.682 4.366 3.94 5.454 6.773Z"/><path fill="black" d="M95.272 118.125h-.202c-1.64-.046-3.048-.681-4.177-1.905a6.516 6.516 0 0 1-1.223-1.827 2.818 2.818 0 0 1-1.392-.836 2.994 2.994 0 0 1-.79-2.121c.031-.821.34-1.502.929-2.06.154-.139.31-.263.48-.371a36.922 36.922 0 0 0-1.115-5.9c-.572-2.09-1.872-4.444-3.868-6.983a.78.78 0 0 1 .124-1.084.779.779 0 0 1 1.083.124c2.135 2.71 3.528 5.233 4.162 7.525a39.895 39.895 0 0 1 1.207 6.674v.186a.767.767 0 0 1-.124.309.717.717 0 0 1-.247.233.558.558 0 0 1-.17.077c-.17.062-.325.155-.465.294l-.015.016a1.292 1.292 0 0 0-.449.975c-.015.403.109.743.387 1.038.232.247.526.387.898.433a.795.795 0 0 1 .65.511 4.765 4.765 0 0 0 1.052 1.704c.85.913 1.872 1.378 3.094 1.409 1.238.031 2.29-.357 3.188-1.208.897-.852 1.346-1.858 1.392-3.082v-.015c.016-.248 0-.496-.03-.712v-.078c-.062-1.068-.124-2.121-.186-3.143-.093-.821-.186-1.657-.294-2.478a33.693 33.693 0 0 0-1.842-7.432c-.99-2.648-2.661-4.785-4.997-6.364a.758.758 0 0 1-.202-1.069.757.757 0 0 1 1.068-.2c2.63 1.78 4.503 4.18 5.601 7.122a34.803 34.803 0 0 1 1.919 7.773c.108.836.201 1.688.294 2.509v.046c.077 1.022.139 2.075.186 3.143.046.31.062.635.046.976-.046 1.641-.681 3.035-1.872 4.165-1.145 1.084-2.522 1.626-4.1 1.626Z"/><path fill="#DA8E2F" d="M96.246 109.215a97.755 97.755 0 0 0-.995-10.796c-.902-3.953-2.566-7.305-5.024-10.074-2.037-2.276-4.603-4.167-7.714-5.628a22.514 22.514 0 0 0-7.481-2.061h-.016c-.03 0-.062-.016-.108-.016-.11 0-.234-.015-.343-.015h-1.928c-.171 0-.327.015-.498.015-.062 0-.124.016-.186.016-2.676.261-5.21.953-7.59 2.076-6.86 3.23-11.105 8.474-12.738 15.687a97.354 97.354 0 0 0-.996 10.796c-.202 10.612 6.797 16.072 20.966 16.395h.249l.84.015h1.477l.84-.015h.249c14.2-.323 21.183-5.783 20.996-16.395Z"/><path fill="black" d="M74.165 126.875H72.68l-.835-.015h-.263c-3.57-.078-6.74-.496-9.413-1.239-2.72-.758-5.009-1.857-6.817-3.296-3.663-2.894-5.457-7.18-5.348-12.752v-.015c.123-3.544.448-7.227.989-10.941 0-.016 0-.031.015-.062.835-3.73 2.35-6.995 4.53-9.719 2.179-2.708 5.054-4.936 8.547-6.623a22.826 22.826 0 0 1 7.79-2.167h.016c.062 0 .124-.015.17-.015h.047l.464-.016c.061 0 .139-.015.216-.015h1.267c.047 0 .109 0 .155.016l.371.015h.185c.078 0 .155.015.232.015.031 0 .078.016.109.016 2.705.279 5.286.99 7.682 2.151 3.169 1.517 5.827 3.497 7.899 5.865 2.52 2.863 4.266 6.391 5.178 10.477 0 .015.015.031.015.062.541 3.714.881 7.397.99 10.941v.015c.092 5.572-1.7 9.858-5.364 12.752-1.809 1.439-4.112 2.538-6.817 3.296-2.674.743-5.843 1.161-9.413 1.239h-.263l-.85.015c.015 0 .015 0 0 0Zm-1.469-1.548h1.469l.834-.015h.248c6.832-.155 11.98-1.579 15.302-4.194a11.863 11.863 0 0 0 3.633-4.782c.804-1.903 1.175-4.178 1.128-6.716a101.143 101.143 0 0 0-.973-10.74c-.866-3.822-2.49-7.103-4.823-9.765-1.948-2.213-4.436-4.054-7.42-5.494a21.34 21.34 0 0 0-7.156-1.996h-.062c-.016 0-.047 0-.062-.016-.108 0-.201-.015-.31-.015l-.37-.031h-1.469l-.479.016c-.046 0-.108.015-.17.015-2.55.248-5.008.928-7.265 2.012-3.292 1.578-5.982 3.667-8.007 6.19-2.025 2.522-3.447 5.571-4.22 9.069-.525 3.652-.865 7.257-.974 10.739-.046 2.538.34 4.813 1.129 6.717a11.87 11.87 0 0 0 3.632 4.782c3.324 2.63 8.47 4.039 15.303 4.194h.247l.835.03Z"/><path fill="black" d="M74.165 126.875H72.68l-.835-.015h-.263c-3.57-.078-6.74-.496-9.413-1.239-2.72-.758-5.009-1.857-6.817-3.296-3.663-2.894-5.457-7.18-5.348-12.752v-.015c.123-3.544.448-7.227.989-10.941 0-.016 0-.031.015-.062.835-3.73 2.35-6.995 4.53-9.719 2.179-2.708 5.054-4.936 8.547-6.623a22.826 22.826 0 0 1 7.79-2.167h.016c.062 0 .124-.015.17-.015h.047l.464-.016c.061 0 .139-.015.216-.015h1.267c.047 0 .109 0 .155.016l.371.015h.185c.078 0 .155.015.232.015.031 0 .078.016.109.016 2.705.279 5.286.99 7.682 2.151 3.169 1.517 5.827 3.497 7.899 5.865 2.52 2.863 4.266 6.391 5.178 10.477 0 .015.015.031.015.062.541 3.714.881 7.397.99 10.941v.015c.092 5.572-1.7 9.858-5.364 12.752-1.809 1.439-4.112 2.538-6.817 3.296-2.674.743-5.843 1.161-9.413 1.239h-.263l-.85.015c.015 0 .015 0 0 0Zm-1.469-1.548h1.469l.834-.015h.248c6.832-.155 11.98-1.579 15.302-4.194a11.863 11.863 0 0 0 3.633-4.782c.804-1.903 1.175-4.178 1.128-6.716a101.143 101.143 0 0 0-.973-10.74c-.866-3.822-2.49-7.103-4.823-9.765-1.948-2.213-4.436-4.054-7.42-5.494a21.34 21.34 0 0 0-7.156-1.996h-.062c-.016 0-.047 0-.062-.016-.108 0-.201-.015-.31-.015l-.37-.031h-1.469l-.479.016c-.046 0-.108.015-.17.015-2.55.248-5.008.928-7.265 2.012-3.292 1.578-5.982 3.667-8.007 6.19-2.025 2.522-3.447 5.571-4.22 9.069-.525 3.652-.865 7.257-.974 10.739-.046 2.538.34 4.813 1.129 6.717a11.87 11.87 0 0 0 3.632 4.782c3.324 2.63 8.47 4.039 15.303 4.194h.247l.835.03Z"/><path fill="#A87D4F" d="M74.375 80.625c.146.016.313.016.458.016.063 0 .105.015.167.015-.125 0-.27-.016-.396-.016-.083 0-.166-.015-.229-.015Z"/><path fill="#D3CBB4" d="M89.985 107.217c0-.155 0-.31-.015-.481V88.422c-1.978-2.298-4.489-4.209-7.532-5.684a21.492 21.492 0 0 0-7.319-2.082c-.03 0-.076-.016-.121-.016-.107 0-.229-.015-.335-.015h-.882v25.567c-.031.342-.031.699-.031 1.056 0 .327.015.637.03.963.168 2.423.944 4.52 2.344 6.276 1.597 2.003 3.514 3.013 5.751 3.013 2.237 0 4.154-1.01 5.736-3.013 1.491-1.864 2.282-4.101 2.374-6.695 0-.031 0-.047.015-.078-.015-.171-.015-.326-.015-.497Z"/><path fill="black" d="M74.173 126.875H72.688l-.835-.015h-.263c-3.572-.078-6.741-.496-9.416-1.239-2.722-.758-5.01-1.857-6.82-3.296-3.664-2.894-5.458-7.18-5.35-12.752v-.015c.124-3.544.449-7.227.99-10.941 0-.016 0-.031.016-.062.835-3.73 2.35-6.995 4.53-9.719 2.18-2.708 5.056-4.936 8.551-6.623a22.839 22.839 0 0 1 7.793-2.167h.016c.061 0 .123-.015.17-.015h.046l.464-.016c.062 0 .14-.015.216-.015h1.268c.047 0 .109 0 .155.016l.371.015H74.76c.108 0 .201.015.31.015.061 0 .123.016.185.031a22.883 22.883 0 0 1 7.53 2.136c3.17 1.517 5.83 3.497 7.902 5.865 2.52 2.863 4.267 6.391 5.18 10.477 0 .015.015.031.015.062.541 3.714.881 7.397.99 10.941v.015c.092 5.572-1.701 9.858-5.366 12.752-1.809 1.439-4.113 2.538-6.819 3.296-2.675.743-5.845 1.161-9.417 1.239h-.263l-.834.015c.015 0 .015 0 0 0Zm-1.47-1.548h1.47l.834-.015h.248c6.834-.155 11.983-1.579 15.308-4.194a11.864 11.864 0 0 0 3.634-4.782c.804-1.903 1.175-4.178 1.128-6.716a101.093 101.093 0 0 0-.974-10.74c-.866-3.822-2.49-7.103-4.824-9.765-1.948-2.213-4.438-4.054-7.422-5.494a21.337 21.337 0 0 0-7.175-1.996h-.03c-.016 0-.047 0-.078-.016-.108 0-.201-.015-.31-.015l-.37-.031h-1.469l-.48.016c-.046 0-.108.015-.17.015-2.551.248-5.01.928-7.267 2.012-3.294 1.578-5.984 3.667-8.01 6.19-2.025 2.522-3.448 5.571-4.221 9.069-.526 3.652-.866 7.257-.974 10.739-.047 2.538.34 4.813 1.129 6.717a11.871 11.871 0 0 0 3.633 4.782c3.325 2.63 8.474 4.039 15.308 4.194h.248l.835.03Z"/><path fill="#DA8E2F" d="M56.25 131.112c3.613 1.017 7.442 1.017 11.516 0 .507-2.817.815-5.51.938-8.061.03-.861.046-1.409.046-1.643l-11.24-.783c.047 2.677-.368 6.183-1.26 10.487Z"/><path fill="#4E4943" d="M56.554 131.266c-.233 1.208-.48 2.449-.774 3.72a4.93 4.93 0 0 0-.155 1.272c0 1.381.573 2.559 1.703 3.516 1.13.989 2.507 1.476 4.117 1.476h6.686c.279 0 .542-.031.805-.063a5.658 5.658 0 0 0 2.276-.8c.294-.173.572-.377.835-.613 1.146-.957 1.703-2.119 1.703-3.516 0-1.382-.573-2.575-1.703-3.548a6.131 6.131 0 0 0-3.11-1.397 6.086 6.086 0 0 0-.79-.063c-4.086 1.036-7.956 1.036-11.593.016Z"/><path fill="black" d="M68.49 141.875h-6.792c-1.824 0-3.396-.56-4.685-1.648-1.337-1.088-2.013-2.456-2.013-4.073 0-.498.063-.98.189-1.446a82.71 82.71 0 0 0 .77-3.607c0-.016 0-.047.016-.062.88-4.214 1.32-7.665 1.273-10.246 0-.435.346-.777.77-.793.441 0 .787.342.803.762.031 2.689-.41 6.234-1.305 10.541 0 .015 0 .031-.016.047-.236 1.197-.503 2.44-.786 3.7v.031a3.984 3.984 0 0 0-.142 1.057c0 1.135.472 2.083 1.447 2.876l.016.016c1.022.855 2.217 1.275 3.663 1.275h6.793c.251 0 .487-.016.723-.062h.016c.739-.094 1.399-.311 1.996-.685l.016-.015a4.4 4.4 0 0 0 .723-.513c.016-.016.016-.016.032-.016.975-.793 1.446-1.741 1.446-2.876 0-1.15-.471-2.099-1.462-2.923-.802-.668-1.714-1.057-2.767-1.197a9.272 9.272 0 0 0-.692-.062h-.079a.681.681 0 0 1-.251-.078.611.611 0 0 1-.267-.218.728.728 0 0 1-.158-.31c-.015-.078-.031-.172-.015-.265 0-.031 0-.046.015-.078.52-2.736.834-5.394.944-7.898.031-.839.047-1.383.047-1.616a.792.792 0 0 1 .786-.762h.016c.44.015.786.357.77.793 0 .248-.016.777-.063 1.648-.094 2.316-.377 4.757-.817 7.276a7.177 7.177 0 0 1 3.537 1.539c1.337 1.119 2.013 2.503 2.013 4.104 0 1.602-.676 2.97-2.013 4.058a5.614 5.614 0 0 1-.959.684 6.596 6.596 0 0 1-2.61.902c-.283.109-.597.14-.927.14.015 0 .015 0 0 0Z"/><path fill="#4E4943" d="M64.927 109.936a1.938 1.938 0 0 0-.793-.474c-3.582-1.168-7.164-1.563-10.778-1.215a101.34 101.34 0 0 0-.19 3.236 4.047 4.047 0 0 0-.031.884c.047 1.468.602 2.699 1.664 3.693 1.078 1.011 2.361 1.484 3.835 1.437 1.474-.048 2.727-.6 3.725-1.689a5.484 5.484 0 0 0 1.252-2.021c.57-.063 1.046-.3 1.41-.694a2.272 2.272 0 0 0 .603-1.61c0-.6-.238-1.121-.697-1.547Z"/><path fill="#DA8E2F" d="M55.364 98.648c-.96 2.492-1.6 5.03-1.935 7.646-.112.841-.208 1.682-.304 2.507 3.647-.343 7.277.047 10.876 1.199.192-2.18.608-4.376 1.231-6.587.624-2.211 2-4.64 4.143-7.287l-8.557-4.251c-2.559 1.682-4.366 3.94-5.454 6.773Z"/><path fill="black" d="M58.493 118.704c-1.567 0-2.947-.543-4.11-1.627-1.195-1.131-1.83-2.525-1.877-4.167-.016-.341 0-.666.046-.976.062-1.069.124-2.122.187-3.144v-.031c.093-.837.186-1.673.294-2.51a35.423 35.423 0 0 1 1.923-7.776c1.102-2.943 2.978-5.344 5.584-7.095a.784.784 0 0 1 1.07.202.782.782 0 0 1-.201 1.069c-2.327 1.58-4.017 3.717-5.01 6.366-.9 2.401-1.52 4.911-1.846 7.436-.108.821-.201 1.657-.294 2.478a98.103 98.103 0 0 0-.187 3.145v.077c-.03.217-.046.465-.03.713v.015c.03 1.239.496 2.246 1.395 3.098.9.852 1.955 1.239 3.195 1.208 1.241-.031 2.25-.495 3.102-1.409a4.558 4.558 0 0 0 1.055-1.704.775.775 0 0 1 .651-.511c.373-.047.667-.186.9-.434.28-.31.403-.635.388-1.038a1.294 1.294 0 0 0-.45-.976l-.016-.015a1.242 1.242 0 0 0-.465-.295c-.062-.015-.108-.046-.17-.077a.753.753 0 0 1-.372-.558.378.378 0 0 1 0-.186 39.299 39.299 0 0 1 1.21-6.676c.62-2.293 2.016-4.833 4.156-7.528a.77.77 0 0 1 1.086-.124c.34.263.387.759.124 1.084-2.001 2.54-3.304 4.895-3.878 6.986a36.224 36.224 0 0 0-1.117 5.902c.171.109.326.232.481.372.59.558.9 1.239.93 2.06a2.99 2.99 0 0 1-.79 2.122 2.827 2.827 0 0 1-1.396.837 6.534 6.534 0 0 1-1.225 1.828c-1.133 1.208-2.544 1.859-4.188 1.905-.031-.046-.093-.046-.155-.046Z"/><path fill="#DA8E2F" d="M66.778 21.193c.69-.559 1.42-.857 2.215-.912 2.633-.12 5.16.658 7.579 2.332.604.419 1.05 1.015 1.35 1.78.291.753.371 1.587.264 2.484-.393 3.659-1.336 7.207-2.794 10.639-.199.461-.445.86-.715 1.2l-12.56-3.376a6.47 6.47 0 0 1 .046-1.706c.604-3.43 1.605-6.848 3.017-10.263.37-.883.896-1.61 1.598-2.178Zm-.395 9.686c-.21.76-.102 1.476.289 2.154.39.677.96 1.102 1.709 1.296l1.508.379c.757.206 1.459.105 2.136-.29a2.735 2.735 0 0 0 1.313-1.728l1.117-4.146c.197-.751.09-1.467-.301-2.145-.39-.677-.96-1.102-1.718-1.309l-1.496-.388a2.76 2.76 0 0 0-2.136.29 2.735 2.735 0 0 0-1.313 1.728l-1.108 4.16Z"/><path fill="#D3CBB4" d="M66.324 33.198c-.382-.668-.484-1.375-.271-2.13l1.13-4.123c.201-.744.641-1.324 1.317-1.719a2.734 2.734 0 0 1 2.125-.302l1.483.374c.764.19 1.315.615 1.698 1.283.383.667.485 1.375.284 2.119l-1.118 4.114c-.213.754-.653 1.334-1.316 1.72a2.734 2.734 0 0 1-2.125.301l-1.496-.364c-.764-.19-1.328-.606-1.71-1.273Z"/><path fill="black" d="M74.474 38.983a.825.825 0 0 1-.489-.167.762.762 0 0 1-.096-1.076 4.01 4.01 0 0 0 .591-1 35.995 35.995 0 0 0 2.706-10.252c.086-.754.023-1.453-.215-2.078-.25-.615-.597-1.08-1.052-1.407-2.224-1.539-4.585-2.265-6.988-2.176-.618.044-1.199.291-1.752.728-.582.476-1.032 1.103-1.348 1.858-1.355 3.28-2.337 6.624-2.91 9.927-.074.515-.102 1.014-.047 1.471a.763.763 0 0 1-.668.848.755.755 0 0 1-.843-.666 7.11 7.11 0 0 1 .055-1.898c.6-3.42 1.61-6.88 3.005-10.285a6.33 6.33 0 0 1 1.791-2.442l.012-.01c.802-.642 1.683-1 2.621-1.076 0 0 .013-.01.022.003 2.745-.117 5.409.706 7.931 2.44.715.495 1.246 1.205 1.609 2.1l.009.011c.323.867.428 1.802.305 2.813a37.716 37.716 0 0 1-2.81 10.675c-.227.515-.503.991-.83 1.372a.767.767 0 0 1-.609.287Zm-3.956-3.83a3.49 3.49 0 0 1-.942-.133l-1.472-.382c-.935-.252-1.665-.793-2.153-1.65-.491-.835-.612-1.74-.367-2.69l1.09-4.095c.255-.939.797-1.673 1.654-2.165a3.536 3.536 0 0 1 2.684-.378l1.473.382a3.482 3.482 0 0 1 2.153 1.65c.5.847.62 1.751.366 2.69l-1.078 4.086c-.246.95-.809 1.681-1.644 2.177-.572.336-1.153.506-1.764.508Zm-1.43-9.793c-.49.292-.8.698-.944 1.247l-1.078 4.086a1.923 1.923 0 0 0 .206 1.529c.29.49.672.795 1.219.937l1.472.383c.547.142 1.036.08 1.535-.2.477-.284.786-.69.943-1.248L73.531 28a1.923 1.923 0 0 0-.206-1.53c-.28-.477-.671-.795-1.218-.937l-1.473-.383c-.568-.145-1.057-.083-1.547.21Z"/><path fill="#DA8E2F" d="M129.064 45.186c-1.416-2.458-3.111-4.619-5.118-6.498-2.023-1.879-4.216-3.382-6.612-4.493-2.458-1.128-4.993-1.801-7.607-1.989a308.563 308.563 0 0 0-22.914-.955h-.794c-6.3-.016-12.632.157-19.025.517a21.193 21.193 0 0 0-9.972 3.053 22.376 22.376 0 0 0-3.391 2.505 24.289 24.289 0 0 0-4.03 4.666c-2.022 3.006-3.375 6.373-4.075 10.068-.731 3.852-.7 7.766.093 11.743.311 1.503.623 2.99.95 4.463 5.49 19.775 20.44 26.79 44.817 21.043l5.118-1.346c.39-.11.763-.204 1.151-.313a345.122 345.122 0 0 0 9.272-2.694C125.61 79.524 134.291 70.224 133 57.04c-.249-1.237-.514-2.49-.809-3.742a28.465 28.465 0 0 0-3.127-8.11Z"/><path fill="black" d="M76.642 91.875c-.515 0-1.014-.016-1.513-.031-5.01-.156-9.505-1.153-13.33-2.929-3.839-1.791-7.116-4.424-9.754-7.85-2.606-3.396-4.635-7.649-6.04-12.633 0-.016 0-.032-.015-.032-.328-1.464-.656-2.96-.968-4.44-.827-4.034-.858-8.068-.11-11.993.719-3.77 2.139-7.228 4.2-10.297a25.224 25.224 0 0 1 4.166-4.782 23.825 23.825 0 0 1 3.528-2.586c3.183-1.9 6.68-2.96 10.378-3.162 6.4-.358 12.845-.53 19.135-.514h.796c7.71.031 15.467.358 23.052.95 2.7.203 5.353.888 7.882 2.056 2.466 1.138 4.76 2.695 6.836 4.611a28.116 28.116 0 0 1 5.275 6.636 30.186 30.186 0 0 1 3.262 8.24c.296 1.262.562 2.524.811 3.754 0 .032.016.047.016.078.328 3.38.016 6.543-.936 9.44-.968 2.897-2.591 5.576-4.839 7.96-2.231 2.368-5.134 4.517-8.615 6.37-3.465 1.855-7.616 3.474-12.33 4.83-3.09.934-6.227 1.838-9.317 2.679l-1.17.327-5.136 1.355h-.015c-5.525 1.309-10.66 1.963-15.249 1.963ZM47.504 68.026c1.342 4.783 3.293 8.864 5.774 12.088 2.482 3.21 5.556 5.701 9.177 7.384 3.637 1.698 7.913 2.632 12.72 2.788 4.839.156 10.348-.483 16.357-1.885l5.119-1.34a43.37 43.37 0 0 0 1.155-.31c3.09-.842 6.212-1.746 9.286-2.68h.016c4.604-1.324 8.662-2.913 12.018-4.72 3.34-1.791 6.102-3.832 8.225-6.075 2.091-2.227 3.605-4.704 4.495-7.383.889-2.664 1.186-5.624.874-8.755a78.49 78.49 0 0 0-.796-3.66 28.807 28.807 0 0 0-3.091-7.82 26.911 26.911 0 0 0-4.994-6.278c-1.951-1.807-4.12-3.27-6.43-4.33-2.373-1.075-4.839-1.73-7.351-1.916a319.728 319.728 0 0 0-22.943-.95h-.796a325.93 325.93 0 0 0-19.041.514 20.83 20.83 0 0 0-9.645 2.928 21.793 21.793 0 0 0-3.294 2.415 23.766 23.766 0 0 0-3.917 4.501c-1.95 2.882-3.277 6.153-3.964 9.705-.718 3.707-.687 7.54.093 11.387.313 1.464.625 2.944.953 4.392Z"/><path fill="#D3CBB5" d="M129.651 44.942a28.349 28.349 0 0 0-2.096-3.106c-.281-.31-.578-.62-.875-.931-3.551-3.51-7.836-5.28-12.873-5.28-5.036 0-9.321 1.77-12.872 5.295-3.55 3.525-5.333 7.78-5.333 12.78 0 .963.062 1.91.203 2.826v.047c.188.87.375 1.692.563 2.484 1.095 4.892 1.861 8.23 2.284 10.032 1.532 6.413-1.095 10.295-7.883 11.661-6.788 1.351-14.155 2.423-22.116 3.23-4.285.42-8.43.42-12.403 0 7.914 6.817 19.754 8.386 35.535 4.72l5.146-1.335c.391-.108.767-.201 1.157-.31 3.113-.839 6.21-1.74 9.322-2.671 18.785-5.388 27.512-14.612 26.214-27.687-.25-1.227-.516-2.469-.813-3.711a29.378 29.378 0 0 0-1.877-5.466c-.36-.9-.798-1.74-1.283-2.578Zm-7.335-.031c3.19 2.438 5.192 5.73 6.006 9.876.813 4.146.187 7.95-1.861 11.382-.266.466-.564.885-.861 1.305-.359.496-.75.962-1.173 1.382-1.783 1.863-3.988 3.043-6.6 3.54-2.737.528-5.318.202-7.789-.978a15.037 15.037 0 0 1-2.565-1.584c-2.675-2.034-4.505-4.69-5.506-7.935a17.753 17.753 0 0 1-.484-1.941c-.814-4.146-.188-7.95 1.861-11.382 2.049-3.432 4.927-5.513 8.618-6.227 3.722-.73 7.163.14 10.354 2.562Z"/><path fill="#4E4943" d="M128.405 54.608c-.812-4.158-2.813-7.46-6.001-9.905-3.188-2.43-6.642-3.302-10.345-2.585-3.704.716-6.564 2.803-8.611 6.245-2.048 3.442-2.657 7.258-1.86 11.416.125.67.297 1.324.484 1.947 1.001 3.27 2.845 5.918 5.501 7.959a15.063 15.063 0 0 0 2.563 1.588c2.454 1.184 5.048 1.511 7.783.981 2.61-.498 4.813-1.682 6.595-3.55.422-.421.812-.888 1.172-1.387.297-.405.594-.84.859-1.308 2.048-3.426 2.673-7.242 1.86-11.4Z"/><path fill="#4E4943" d="M128.405 55.233c-.812-4.158-2.813-7.46-6.001-9.905-3.188-2.43-6.642-3.302-10.345-2.585-3.704.716-6.564 2.803-8.611 6.245-2.048 3.442-2.657 7.258-1.86 11.416.125.67.297 1.324.484 1.947 1.001 3.27 2.845 5.918 5.501 7.959a15.063 15.063 0 0 0 2.563 1.588c2.454 1.184 5.048 1.511 7.783.981 2.61-.498 4.813-1.682 6.595-3.55.422-.421.812-.888 1.172-1.387.297-.405.594-.84.859-1.308 2.048-3.426 2.673-7.242 1.86-11.4Z"/><path fill="black" d="M76.642 91.875c-.515 0-1.014-.016-1.513-.031-5.01-.156-9.505-1.153-13.33-2.929-3.839-1.791-7.116-4.424-9.754-7.85-2.606-3.396-4.635-7.649-6.04-12.633 0-.016 0-.032-.015-.032-.328-1.464-.656-2.96-.968-4.44-.827-4.034-.858-8.068-.11-11.993.719-3.77 2.139-7.228 4.2-10.297a25.224 25.224 0 0 1 4.166-4.782 23.825 23.825 0 0 1 3.528-2.586c3.183-1.9 6.68-2.96 10.378-3.162 6.4-.358 12.845-.53 19.135-.514h.796c7.71.031 15.467.358 23.052.95 2.7.203 5.353.888 7.882 2.056 2.466 1.138 4.76 2.695 6.836 4.611a28.116 28.116 0 0 1 5.275 6.636 30.186 30.186 0 0 1 3.262 8.24c.296 1.262.562 2.524.811 3.754 0 .032.016.047.016.078.328 3.38.016 6.543-.936 9.44-.968 2.897-2.591 5.576-4.839 7.96-2.231 2.368-5.134 4.517-8.615 6.37-3.465 1.855-7.616 3.474-12.33 4.83-3.09.934-6.227 1.838-9.317 2.679l-1.17.327-5.136 1.355h-.015c-5.525 1.309-10.66 1.963-15.249 1.963ZM47.504 68.026c1.342 4.783 3.293 8.864 5.774 12.088 2.482 3.21 5.556 5.701 9.177 7.384 3.637 1.698 7.913 2.632 12.72 2.788 4.839.156 10.348-.483 16.357-1.885l5.119-1.34a43.37 43.37 0 0 0 1.155-.31c3.09-.842 6.212-1.746 9.286-2.68h.016c4.604-1.324 8.662-2.913 12.018-4.72 3.34-1.791 6.102-3.832 8.225-6.075 2.091-2.227 3.605-4.704 4.495-7.383.889-2.664 1.186-5.624.874-8.755a78.49 78.49 0 0 0-.796-3.66 28.807 28.807 0 0 0-3.091-7.82 26.911 26.911 0 0 0-4.994-6.278c-1.951-1.807-4.12-3.27-6.43-4.33-2.373-1.075-4.839-1.73-7.351-1.916a319.728 319.728 0 0 0-22.943-.95h-.796a325.93 325.93 0 0 0-19.041.514 20.83 20.83 0 0 0-9.645 2.928 21.793 21.793 0 0 0-3.294 2.415 23.766 23.766 0 0 0-3.917 4.501c-1.95 2.882-3.277 6.153-3.964 9.705-.718 3.707-.687 7.54.093 11.387.313 1.464.625 2.944.953 4.392Z"/><path fill="black" d="M111.219 53.447a1.214 1.214 0 0 0-.534-.829 1.089 1.089 0 0 0-.93-.191 1.19 1.19 0 0 0-.793.542 1.274 1.274 0 0 0-.183.972c.077.35.244.637.519.828.289.207.594.271.93.207a1.16 1.16 0 0 0 .793-.557c.198-.287.259-.622.198-.972Zm8.752-1.769a1.214 1.214 0 0 0-.534-.829 1.111 1.111 0 0 0-.945-.19 1.19 1.19 0 0 0-.793.541c-.183.287-.259.621-.183.972.061.35.244.637.519.829.289.207.594.27.93.207a1.16 1.16 0 0 0 .793-.558c.213-.303.289-.621.213-.972Z"/><path fill="black" d="M110.184 55.625a2.17 2.17 0 0 1-1.158-.344c-.453-.3-.75-.734-.86-1.258-.109-.524 0-1.049.313-1.483a2.08 2.08 0 0 1 1.314-.838 2.09 2.09 0 0 1 1.548.3c.469.299.766.733.876 1.257.109.524 0 1.048-.329 1.483a2.02 2.02 0 0 1-1.313.838c-.125.03-.251.045-.391.045Zm.031-2.47c-.031 0-.078 0-.11.014a.568.568 0 0 0-.328.195.42.42 0 0 0-.062.36.531.531 0 0 0 .203.314h.015c.126.075.219.105.36.075a.452.452 0 0 0 .313-.21s0-.015.016-.015c.078-.12.109-.21.078-.344a.436.436 0 0 0-.219-.3.473.473 0 0 0-.266-.09Zm8.961.808c-.407 0-.798-.12-1.157-.345a1.957 1.957 0 0 1-.86-1.257c-.11-.524 0-1.049.312-1.483a2.083 2.083 0 0 1 1.314-.839 2.09 2.09 0 0 1 1.548.3c.469.3.766.734.876 1.258.109.524 0 1.048-.328 1.482-.313.45-.767.734-1.314.839-.125.03-.266.045-.391.045Zm.031-2.47c-.031 0-.078 0-.109.014a.568.568 0 0 0-.329.195c-.078.12-.109.224-.078.36a.536.536 0 0 0 .203.314c.126.074.219.104.36.074a.452.452 0 0 0 .313-.21s0-.014.016-.014c.078-.12.109-.21.078-.345a.436.436 0 0 0-.219-.3.327.327 0 0 0-.235-.089Z"/><path fill="#DA8E2F" d="M44.043 30.628c-.887-.03-1.666.17-2.335.605-2.165 1.49-3.722 3.632-4.656 6.44-.233.7-.233 1.444-.015 2.235.218.776.654 1.49 1.276 2.142a37.03 37.03 0 0 0 8.61 6.797c.436.249.872.42 1.293.528l8.034-10.258a6.436 6.436 0 0 0-1.059-1.335c-2.538-2.374-5.387-4.5-8.563-6.378-.825-.481-1.682-.745-2.585-.776Zm6.12 7.496c.622.48.965 1.117 1.058 1.893a2.706 2.706 0 0 1-.592 2.08l-.98 1.21c-.483.62-1.106.962-1.885 1.055-.778.093-1.479-.108-2.102-.59L42.3 41.12c-.607-.481-.95-1.117-1.043-1.893a2.662 2.662 0 0 1 .592-2.08l.965-1.21a2.772 2.772 0 0 1 1.884-1.056 2.728 2.728 0 0 1 2.086.59l3.38 2.654Z"/><path fill="#D3CBB4" d="M51.228 40.077c-.093-.764-.436-1.39-1.058-1.863l-3.375-2.612a2.754 2.754 0 0 0-2.084-.58c-.778.091-1.4.443-1.882 1.038l-.965 1.191a2.593 2.593 0 0 0-.59 2.047c.093.764.435 1.39 1.041 1.863l3.36 2.612a2.809 2.809 0 0 0 2.1.58 2.747 2.747 0 0 0 1.882-1.038l.98-1.191c.482-.611.684-1.283.59-2.047Z"/><path fill="black" d="M48.198 50.625c-.062 0-.123 0-.184-.016a5.96 5.96 0 0 1-1.488-.613 38.353 38.353 0 0 1-8.648-7.063c-.706-.755-1.181-1.589-1.442-2.501v-.016c-.26-.96-.245-1.872.031-2.721.981-2.989 2.622-5.317 4.892-6.922 0 0 .015 0 .015-.015.782-.535 1.702-.787 2.73-.755h.015c1.012.047 1.978.346 2.898.896a50.688 50.688 0 0 1 8.572 6.575c.475.472.874.992 1.18 1.526a.787.787 0 0 1-.276 1.07.746.746 0 0 1-1.042-.283 5.341 5.341 0 0 0-.92-1.18 49.708 49.708 0 0 0-8.296-6.324 4.782 4.782 0 0 0-2.193-.692c-.705-.015-1.303.142-1.84.488-1.978 1.4-3.42 3.46-4.294 6.12-.184.55-.184 1.147 0 1.808.184.66.552 1.274 1.074 1.84a36.296 36.296 0 0 0 8.31 6.764c.369.205.722.362 1.074.457.414.094.66.519.568.944a.771.771 0 0 1-.736.613ZM47.4 45.56c-.797 0-1.533-.268-2.193-.802l-3.312-2.69c-.767-.614-1.211-1.447-1.319-2.438-.122-.992.139-1.888.737-2.69l.95-1.227c.614-.787 1.411-1.243 2.377-1.369.981-.11 1.855.142 2.622.755l3.312 2.706c.767.629 1.212 1.447 1.334 2.454a3.545 3.545 0 0 1-.736 2.674l-.95 1.227c-.598.786-1.396 1.258-2.377 1.368-.153.016-.307.032-.445.032Zm-4.891-7.645c-.353.456-.491.96-.414 1.526.06.582.306 1.038.751 1.384l3.328 2.69c.444.362.935.503 1.502.44.552-.063.997-.33 1.35-.786l.966-1.243c.352-.44.475-.944.414-1.51a1.987 1.987 0 0 0-.752-1.4l-3.343-2.674a1.932 1.932 0 0 0-1.502-.44c-.552.062-.997.33-1.35.77l-.95 1.243Z"/><path fill="#CF80A6" d="M70.395 61.898c-.167-.851-.91-1.455-2.23-1.825-1.318-.356-2.823-.36-4.518-.029-1.694.333-3.083.92-4.169 1.747-1.086.828-1.542 1.681-1.375 2.533.167.851.91 1.455 2.227 1.81 1.318.357 2.826.376 4.52.044 1.695-.333 3.084-.92 4.154-1.744 1.099-.845 1.558-1.684 1.391-2.536Zm20.422-6.253c-1.318-.356-2.81-.378-4.505-.045-1.695.332-3.084.92-4.17 1.747-1.085.827-1.542 1.68-1.375 2.532.167.852.906 1.44 2.224 1.797 1.318.356 2.826.375 4.52.043 1.695-.333 3.084-.92 4.154-1.744 1.086-.828 1.561-1.67 1.397-2.507-.17-.866-.912-1.47-2.245-1.823Z"/><path fill="black" d="M61.324 58.798c.65.14 1.323.15 2.03.011a4.973 4.973 0 0 0 1.876-.777l-3.906.766Zm6.054-6.176c-.27-1.458-1.005-2.604-2.17-3.414-1.186-.838-2.484-1.103-3.883-.828-1.4.274-2.5 1.01-3.283 2.233-.803 1.196-1.055 2.52-.766 3.99.264 1.428.993 2.544 2.192 3.363.59.404 1.221.69 1.853.817l3.906-.766a5.313 5.313 0 0 0 1.391-1.453c.804-1.196 1.055-2.52.76-3.942Zm-5.324-2.15c.058.051.113.087.171.139.385.413.578.91.605 1.455a1.78 1.78 0 0 1-.255.979 2.134 2.134 0 0 1-1.84 1.038c-.541.011-1.01-.18-1.41-.59a2.03 2.03 0 0 1-.617-1.437c.001-.566.195-1.045.609-1.457a1.962 1.962 0 0 1 1.435-.58c.497.012.923.15 1.302.453Zm-2.512 6.488a1.082 1.082 0 0 1-.326-.77c-.01-.297.099-.554.343-.775a.99.99 0 0 1 .754-.306c.301-.012.561.095.778.304.204.228.32.488.333.8-.005.3-.114.558-.33.758-.217.2-.482.314-.786.311a1.033 1.033 0 0 1-.766-.322Zm27.49-3.219a5.078 5.078 0 0 0 1.376-1.45c.803-1.196 1.054-2.52.76-3.942-.27-1.458-1.006-2.604-2.187-3.411-1.183-.823-2.468-1.106-3.867-.831-1.4.274-2.5 1.01-3.283 2.233-.803 1.196-1.052 2.535-.766 3.99.264 1.428.997 2.559 2.192 3.363.59.404 1.221.69 1.853.817l3.921-.769Zm-2.428-5.945a1.78 1.78 0 0 1-.255.979 2.05 2.05 0 0 1-.36.448 2.108 2.108 0 0 1-1.465.586c-.541.012-1.01-.18-1.41-.589a2.03 2.03 0 0 1-.617-1.437c.001-.566.195-1.045.609-1.457a1.962 1.962 0 0 1 1.435-.58c.492-.018.92.134 1.281.425.058.052.113.088.174.155.403.425.612.919.608 1.47Zm-3.273 4.891a1.082 1.082 0 0 1-.326-.77c-.01-.297.114-.557.343-.775a.99.99 0 0 1 .754-.306c.301-.012.562.095.794.301.204.227.319.488.332.8-.005.3-.114.558-.33.758-.216.2-.481.314-.785.311-.32 0-.565-.11-.782-.319Zm3.828 1.846a4.975 4.975 0 0 0 1.875-.777l-3.906.766c.648.125 1.32.135 2.03.011Z"/><path fill="white" d="M59.223 55.507c.008.288.106.544.323.745.217.202.464.306.77.307.304-.014.575-.112.795-.308a.988.988 0 0 0 .34-.738 1.178 1.178 0 0 0-.33-.776 1.043 1.043 0 0 0-.783-.289 1.034 1.034 0 0 0-.764.303c-.247.216-.36.467-.351.756Zm3.079-5.444c-.058-.05-.116-.099-.172-.134a1.917 1.917 0 0 0-1.289-.404c-.548.001-1.028.187-1.452.575-.424.389-.636.873-.625 1.42.01.548.214 1.012.611 1.392.398.38.872.577 1.417.562a2.246 2.246 0 0 0 1.5-.584c.15-.137.267-.282.365-.438a1.9 1.9 0 0 0 .265-.953 2.335 2.335 0 0 0-.62-1.436ZM81.24 51.19c.008.288.106.544.323.746.217.201.464.306.77.307.304-.014.575-.113.795-.309a.989.989 0 0 0 .34-.738 1.178 1.178 0 0 0-.33-.775 1.043 1.043 0 0 0-.799-.286 1.035 1.035 0 0 0-.763.302c-.217.21-.347.45-.336.753Zm3.413-3.081a1.9 1.9 0 0 0 .265-.953 2.007 2.007 0 0 0-.584-1.412l-.174-.15a1.917 1.917 0 0 0-1.29-.403c-.548 0-1.028.187-1.452.575-.424.388-.638.858-.625 1.42.01.548.215 1.011.612 1.392.397.38.871.577 1.417.561a2.189 2.189 0 0 0 1.483-.58c.133-.149.25-.294.348-.45Z"/><path fill="black" d="M59.672 65.665a.816.816 0 0 1-.444-.133.753.753 0 0 1-.21-1.075l1.462-2.11a.79.79 0 0 1 1.097-.215c.368.242.46.711.21 1.074l-1.462 2.11a.808.808 0 0 1-.654.35Zm3.58-.388a.728.728 0 0 1-.372-.1.767.767 0 0 1-.316-1.038l1.448-2.595a.805.805 0 0 1 1.06-.318c.378.209.517.67.316 1.038L63.94 64.86a.77.77 0 0 1-.688.418Zm3.474-.524a.654.654 0 0 1-.354-.088.753.753 0 0 1-.33-1.035l1.057-2.047a.789.789 0 0 1 1.058-.333c.39.19.528.65.331 1.035l-1.058 2.047a.785.785 0 0 1-.704.421Zm15.65-3.54a.815.815 0 0 1-.443-.134.753.753 0 0 1-.21-1.074l1.444-2.123a.79.79 0 0 1 1.096-.215c.369.242.46.711.211 1.075l-1.444 2.122a.808.808 0 0 1-.654.349Zm3.581-.388a.73.73 0 0 1-.372-.1.767.767 0 0 1-.316-1.039l1.448-2.594a.805.805 0 0 1 1.06-.319c.378.21.516.67.316 1.039l-1.448 2.595c-.138.278-.4.409-.688.418Zm3.474-.524a.654.654 0 0 1-.354-.088.753.753 0 0 1-.331-1.036l1.061-2.031a.79.79 0 0 1 1.057-.333c.39.19.53.65.332 1.035l-1.061 2.032a.785.785 0 0 1-.704.42Zm-28.43-1.028a1.982 1.982 0 0 1-.164-.015 6.221 6.221 0 0 1-2.158-.944c-1.369-.927-2.216-2.222-2.518-3.845-.327-1.666-.035-3.2.886-4.56.899-1.387 2.188-2.253 3.81-2.571 1.622-.318 3.128 0 4.5.941 1.337.933 2.185 2.228 2.493 3.882.336 1.632.038 3.136-.88 4.511a6.034 6.034 0 0 1-1.595 1.68.719.719 0 0 1-.297.122l-3.923.77-.155.03Zm1.033-10.515c-.287.009-.571.033-.88.094-1.205.236-2.11.854-2.79 1.883-.696 1.033-.908 2.16-.662 3.416.225 1.229.844 2.177 1.878 2.87.464.318.94.539 1.445.66l3.583-.703c.391-.297.749-.681 1.042-1.148l.013-.018c.696-1.032.895-2.14.655-3.367l-.003-.015c-.234-1.274-.853-2.222-1.872-2.918-.77-.494-1.558-.748-2.41-.754Zm20.853 6.223c-.065-.003-.114-.009-.164-.015-.751-.151-1.474-.481-2.142-.947-1.369-.927-2.216-2.222-2.519-3.845-.323-1.65-.03-3.185.89-4.545.898-1.387 2.188-2.253 3.81-2.57 1.622-.319 3.127-.001 4.499.94 1.335.918 2.185 2.229 2.493 3.882.337 1.632.038 3.136-.88 4.511a6.033 6.033 0 0 1-1.594 1.68.717.717 0 0 1-.297.122l-3.924.77c-.061.011-.11.005-.172.017Zm1.033-10.515c-.287.009-.57.033-.88.094-1.205.236-2.11.854-2.79 1.883-.696 1.033-.908 2.16-.662 3.416.225 1.229.844 2.177 1.879 2.87.463.318.94.539 1.444.66l3.584-.703c.39-.297.748-.681 1.041-1.148l.013-.018c.696-1.032.895-2.14.655-3.367l-.003-.015c-.234-1.274-.853-2.222-1.872-2.918-.755-.497-1.542-.751-2.409-.754Zm-28.427 4.883a.786.786 0 0 1-.688-.4.778.778 0 0 1 .323-1.053c2.698-1.457 4.404-3.144 5.063-5.018a.785.785 0 0 1 .997-.478c.412.139.625.569.48.975-.78 2.243-2.734 4.214-5.794 5.868a.871.871 0 0 1-.38.106Zm33.44-6.558c-.031.006-.065-.003-.096.003-3.458-.375-6.013-1.462-7.597-3.242a.75.75 0 0 1 .076-1.084c.33-.285.832-.257 1.104.067 1.318 1.486 3.52 2.406 6.583 2.733.425.042.74.421.697.854-.04.37-.37.654-.767.67ZM118.867 57.973c-.776-.164-1.673-.138-2.679.058-1.006.196-1.862.512-2.534.958-.657.444-.936.88-.855 1.295.081.415.503.714 1.279.878.775.164 1.672.138 2.693-.06 1.021-.2 1.859-.529 2.516-.972.657-.443.954-.866.87-1.297-.084-.432-.515-.696-1.29-.86Z"/><path fill="black" d="M115.479 61.74c-.44.008-.858-.033-1.247-.095-1.151-.189-1.796-.644-1.937-1.367-.141-.722.283-1.402 1.279-2.01.776-.472 1.758-.817 2.894-1.038 1.152-.225 2.178-.257 3.075-.11 1.164.171 1.813.642 1.951 1.35.141.722-.284 1.402-1.283 1.995-.776.472-1.738.828-2.891 1.053a8.96 8.96 0 0 1-1.841.221Zm-1.593-1.787c.075.046.24.136.663.207.696.125 1.54.083 2.487-.102.947-.185 1.729-.46 2.327-.836.35-.222.485-.37.537-.442-.075-.046-.256-.134-.664-.207-.693-.11-1.521-.071-2.468.114-.947.184-1.729.459-2.33.821-.366.224-.498.388-.552.445Z"/></g><defs><clipPath id="a"><path fill="white" d="M0 0h160v160H0z"/></clipPath></defs></svg>