<svg width="328" height="328" viewBox="0 0 328 328" fill="none" xmlns="http://www.w3.org/2000/svg">
<path d="M0.5 164C0.5 73.7014 73.7014 0.5 164 0.5C254.299 0.5 327.5 73.7014 327.5 164C327.5 254.299 254.299 327.5 164 327.5C73.7014 327.5 0.5 254.299 0.5 164Z" stroke="url(#paint0_linear_324_3379)" stroke-opacity="0.24"/>
<path d="M40.5 164C40.5 95.7928 95.7928 40.5 164 40.5C232.207 40.5 287.5 95.7928 287.5 164C287.5 232.207 232.207 287.5 164 287.5C95.7928 287.5 40.5 232.207 40.5 164Z" stroke="url(#paint1_linear_324_3379)" stroke-opacity="0.4"/>
<path d="M72.5 164C72.5 113.466 113.466 72.5 164 72.5C214.534 72.5 255.5 113.466 255.5 164C255.5 214.534 214.534 255.5 164 255.5C113.466 255.5 72.5 214.534 72.5 164Z" stroke="url(#paint2_linear_324_3379)" stroke-opacity="0.64"/>
<path d="M96.5 164C96.5 126.721 126.721 96.5 164 96.5C201.279 96.5 231.5 126.721 231.5 164C231.5 201.279 201.279 231.5 164 231.5C126.721 231.5 96.5 201.279 96.5 164Z" stroke="url(#paint3_linear_324_3379)"/>
<g clip-path="url(#clip0_324_3379)">
<rect width="104" height="104" transform="translate(112 112)" fill="#4CA3FF"/>
<path fill-rule="evenodd" clip-rule="evenodd" d="M178.488 158.609V158.612C181.138 161.937 182.723 166.149 182.723 170.729C182.723 175.309 181.091 179.646 178.367 182.994L178.133 183.282L178.071 182.916C178.018 182.605 177.955 182.289 177.884 181.972C176.521 175.984 172.08 170.849 164.772 166.692C159.837 163.892 157.012 160.52 156.27 156.69C155.79 154.213 156.147 151.725 156.835 149.594C157.524 147.463 158.547 145.678 159.417 144.604L162.26 141.127C162.758 140.518 163.691 140.518 164.19 141.127L178.488 158.61L178.488 158.609ZM182.985 155.136V155.134L163.928 131.834C163.564 131.389 162.884 131.389 162.52 131.834L143.463 155.135V155.136L143.402 155.214C139.896 159.565 137.797 165.094 137.797 171.114C137.797 185.134 149.181 196.5 163.224 196.5C177.267 196.5 188.651 185.134 188.651 171.114C188.651 165.094 186.553 159.565 183.046 155.213L182.983 155.136H182.985ZM148.024 158.533L149.728 156.449L149.78 156.834C149.82 157.138 149.87 157.445 149.928 157.753C151.031 163.539 154.971 168.364 161.558 172.101C167.283 175.359 170.617 179.106 171.577 183.216C171.978 184.931 172.049 186.618 171.876 188.094L171.866 188.185L171.783 188.225C169.199 189.488 166.294 190.197 163.223 190.197C152.454 190.197 143.724 181.481 143.724 170.729C143.724 166.113 145.334 161.871 148.023 158.534L148.024 158.533Z" fill="white"/>
</g>
<path d="M112.5 164C112.5 135.557 135.557 112.5 164 112.5C192.443 112.5 215.5 135.557 215.5 164C215.5 192.443 192.443 215.5 164 215.5C135.557 215.5 112.5 192.443 112.5 164Z" stroke="url(#paint4_linear_324_3379)"/>
<defs>
<linearGradient id="paint0_linear_324_3379" x1="164" y1="0" x2="164" y2="328" gradientUnits="userSpaceOnUse">
<stop stop-color="#C0E6FF"/>
<stop offset="1" stop-color="#4CA2FF"/>
</linearGradient>
<linearGradient id="paint1_linear_324_3379" x1="164" y1="40" x2="164" y2="288" gradientUnits="userSpaceOnUse">
<stop stop-color="#C0E6FF"/>
<stop offset="1" stop-color="#4CA2FF"/>
</linearGradient>
<linearGradient id="paint2_linear_324_3379" x1="164" y1="72" x2="164" y2="256" gradientUnits="userSpaceOnUse">
<stop stop-color="#C0E6FF"/>
<stop offset="1" stop-color="#4CA2FF"/>
</linearGradient>
<linearGradient id="paint3_linear_324_3379" x1="164" y1="96" x2="164" y2="232" gradientUnits="userSpaceOnUse">
<stop stop-color="#C0E6FF"/>
<stop offset="1" stop-color="#4CA2FF"/>
</linearGradient>
<linearGradient id="paint4_linear_324_3379" x1="164" y1="112" x2="164" y2="216" gradientUnits="userSpaceOnUse">
<stop stop-color="#4DA3FF"/>
<stop offset="1" stop-color="#C0E6FF"/>
</linearGradient>
<clipPath id="clip0_324_3379">
<path d="M112 164C112 135.281 135.281 112 164 112C192.719 112 216 135.281 216 164C216 192.719 192.719 216 164 216C135.281 216 112 192.719 112 164Z" fill="white"/>
</clipPath>
</defs>
</svg>
