<svg xmlns="http://www.w3.org/2000/svg" fill="none" viewBox="0 0 73 16"><path fill="#F50032" d="m6.935 7.723-3.418 3.82h3.657c.296 0 .52.072.67.213.15.137.225.314.225.533 0 .21-.075.38-.225.513-.146.132-.37.198-.67.198H2.115c-.355 0-.622-.078-.8-.232-.173-.155-.26-.367-.26-.636 0-.16.062-.32.185-.479.123-.164.378-.462.766-.895L3.12 9.52c.337-.37.65-.714.937-1.033.287-.323.524-.597.71-.82.192-.223.345-.415.459-.574H2.45c-.383 0-.672-.034-.868-.103-.196-.068-.294-.248-.294-.54 0-.214.073-.385.219-.513.15-.127.362-.19.636-.19h4.286c.396 0 .7.058.909.177.214.114.321.321.321.622 0 .1-.02.205-.061.314a1.146 1.146 0 0 1-.137.26c-.05.068-.119.153-.205.253l-.321.349Zm6.877 4.593L12.164 9.61l-1.012.957v1.484c0 .36-.095.638-.287.834a.881.881 0 0 1-.65.287c-.286 0-.512-.096-.676-.287-.164-.192-.246-.474-.246-.848V4.08c0-.415.08-.73.24-.943.159-.219.387-.328.683-.328.287 0 .515.098.683.294.169.196.253.485.253.868v4.525l2.099-2.201c.26-.273.458-.46.595-.56a.82.82 0 0 1 .499-.151c.232 0 .426.075.58.226.156.145.233.33.233.553 0 .274-.253.638-.759 1.094l-.99.91 1.913 3.007c.142.223.242.394.301.513a.673.673 0 0 1 .096.328c0 .296-.082.53-.246.704-.16.169-.372.253-.636.253-.228 0-.403-.062-.527-.185-.123-.123-.289-.346-.498-.67Zm11.122-2.324c0 .606-.158 1.15-.472 1.634-.31.483-.766.861-1.367 1.135-.602.273-1.315.41-2.14.41-.989 0-1.805-.187-2.447-.56a3.303 3.303 0 0 1-1.114-1.074c-.283-.451-.424-.889-.424-1.312 0-.246.084-.456.253-.63a.877.877 0 0 1 .656-.266.76.76 0 0 1 .54.205c.15.137.278.34.383.609.127.319.264.585.41.8.15.214.36.391.629.533.269.136.622.205 1.06.205.601 0 1.089-.14 1.462-.417.378-.283.568-.634.568-1.053 0-.333-.103-.602-.308-.807-.2-.21-.463-.369-.786-.478-.32-.11-.747-.226-1.285-.349-.72-.168-1.324-.364-1.812-.588a2.996 2.996 0 0 1-1.155-.923c-.283-.392-.424-.877-.424-1.456 0-.551.15-1.041.451-1.47.301-.428.736-.756 1.306-.984.57-.232 1.24-.348 2.01-.348.615 0 1.146.077 1.592.232.452.15.825.353 1.122.608.296.251.512.515.649.793s.205.55.205.814c0 .241-.086.46-.26.656a.811.811 0 0 1-.635.287c-.233 0-.41-.057-.534-.17-.118-.12-.248-.31-.39-.575-.182-.378-.4-.672-.655-.882-.256-.214-.666-.321-1.231-.321-.524 0-.948.116-1.271.349-.32.228-.479.503-.479.827 0 .2.055.373.164.52.11.145.26.27.451.375.192.105.385.187.581.246.196.06.52.146.971.26.565.132 1.076.278 1.531.438.46.16.85.353 1.17.58.323.229.573.518.751.869.182.346.274.772.274 1.278Zm6.801-.157h-3.65c.005.424.089.797.253 1.121.168.324.39.567.663.732.278.164.583.246.916.246.223 0 .426-.025.608-.076.187-.054.367-.136.54-.246.174-.114.333-.234.479-.362.146-.128.335-.3.567-.52.096-.082.233-.123.41-.123.192 0 .347.053.465.158.119.104.178.253.178.444 0 .169-.066.367-.198.595-.132.223-.333.44-.602.65-.264.204-.599.375-1.005.512a4.297 4.297 0 0 1-1.387.205c-1.199 0-2.13-.342-2.796-1.025-.666-.684-.998-1.612-.998-2.783 0-.551.082-1.062.246-1.531.164-.474.403-.88.718-1.217a3.079 3.079 0 0 1 1.162-.772c.46-.183.97-.274 1.531-.274.73 0 1.354.155 1.873.465.524.306.916.702 1.176 1.19.26.487.39.984.39 1.49 0 .47-.135.775-.404.916-.269.137-.647.205-1.135.205Zm-3.65-1.06h3.384c-.046-.638-.219-1.114-.52-1.428-.296-.32-.688-.479-1.176-.479-.464 0-.847.162-1.148.486-.296.319-.476.792-.54 1.421Zm8.463-2.16v.226c.328-.433.686-.75 1.073-.95.392-.205.84-.308 1.347-.308.492 0 .932.107 1.32.321.387.214.676.518.867.91.123.227.203.473.24.738.036.264.054.601.054 1.011v3.473c0 .374-.086.656-.26.848a.842.842 0 0 1-.663.287.86.86 0 0 1-.676-.294c-.174-.196-.26-.476-.26-.84V8.925c0-.615-.087-1.085-.26-1.408-.169-.329-.508-.493-1.018-.493-.333 0-.636.1-.91.301a1.689 1.689 0 0 0-.601.814c-.091.278-.137.797-.137 1.558v2.338c0 .378-.089.663-.267.855a.88.88 0 0 1-.676.28.846.846 0 0 1-.663-.294c-.174-.196-.26-.476-.26-.84V6.642c0-.356.077-.62.232-.793.155-.178.367-.267.636-.267.164 0 .312.039.444.116a.811.811 0 0 1 .315.349 1.2 1.2 0 0 1 .123.567Zm11.88 5.49v-.185c-.25.287-.498.522-.744.704a2.712 2.712 0 0 1-.793.403 2.882 2.882 0 0 1-.93.144c-.447 0-.861-.093-1.244-.28a2.943 2.943 0 0 1-.985-.814 3.74 3.74 0 0 1-.635-1.237 5.36 5.36 0 0 1-.212-1.538c0-1.167.285-2.076.854-2.728.57-.651 1.32-.977 2.25-.977.537 0 .99.093 1.36.28.369.182.729.465 1.08.848V3.97c0-.383.075-.672.225-.868.155-.196.374-.294.656-.294.283 0 .5.09.65.273.155.178.232.442.232.793v8.23c0 .356-.082.623-.246.8a.826.826 0 0 1-.636.267.83.83 0 0 1-.635-.273c-.164-.187-.246-.452-.246-.793Zm-3.67-2.742c0 .506.077.937.232 1.292.16.356.376.625.65.807.273.178.572.267.895.267.328 0 .627-.085.896-.253.273-.174.49-.436.65-.787.163-.355.245-.797.245-1.326 0-.496-.082-.923-.246-1.278-.16-.36-.378-.634-.656-.82a1.54 1.54 0 0 0-.902-.287c-.342 0-.648.098-.916.293-.27.192-.479.47-.63.834-.145.36-.218.78-.218 1.258Z"/><g clip-path="url(#a)"><rect width="16" height="16" x="56.5" fill="white" rx="4"/><path fill="#F50032" d="M56.5 0h16v16h-16z"/><path fill="white" d="M59.545 12.836a1.298 1.298 0 0 1 .003-1.838l7.881-7.836A1.296 1.296 0 0 1 69.258 5l-7.88 7.838a1.298 1.298 0 0 1-1.833-.002Zm3.02-8.182c-1.088.032-1.655-1.282-.886-2.052.225-.225.531-.352.85-.352h5.656a2 2 0 0 1 2 2v5.658c0 .318-.126.622-.35.847-.77.768-2.081.2-2.047-.886l.104-3.25a2 2 0 0 0-2.059-2.062l-3.268.097Z"/></g><defs><clipPath id="a"><rect width="16" height="16" x="56.5" fill="white" rx="4"/></clipPath></defs></svg>