<svg width="123" height="143" viewBox="0 0 123 143" fill="none" xmlns="http://www.w3.org/2000/svg">
<g id="&#230;&#156;&#170;&#230;&#160;&#135;&#233;&#162;&#152;-3 1">
<g id="Group 1430104462">
<path id="Vector 2455" d="M12 112.8V124" stroke="white" stroke-width="0.8"/>
<path id="&#229;&#189;&#162;&#231;&#138;&#182; 1 &#230;&#139;&#183;&#232;&#180;&#157; 13" fill-rule="evenodd" clip-rule="evenodd" d="M12.0718 99.7259L12.0153 118.119L2.40039 112.575L2.45242 94.1821L12.0718 99.7259Z" fill="#17171A" stroke="white" stroke-width="0.4" stroke-linejoin="round"/>
<path id="&#229;&#189;&#162;&#231;&#138;&#182; 1 &#230;&#139;&#183;&#232;&#180;&#157; 12" fill-rule="evenodd" clip-rule="evenodd" d="M21.6373 94.179L21.5852 112.572L12.0156 118.119L12.0722 99.7262L21.6373 94.179Z" fill="#17171A" stroke="white" stroke-width="0.4" stroke-linejoin="round"/>
<path id="&#229;&#189;&#162;&#231;&#138;&#182; 1 &#230;&#139;&#183;&#232;&#180;&#157; 20" fill-rule="evenodd" clip-rule="evenodd" d="M21.6373 94.179L21.5852 112.572L12.0156 118.119L12.0722 99.7262L21.6373 94.179Z" fill="white" stroke="white" stroke-width="0.4" stroke-linejoin="round"/>
<path id="&#229;&#189;&#162;&#231;&#138;&#182; 1 &#230;&#139;&#183;&#232;&#180;&#157; 11" fill-rule="evenodd" clip-rule="evenodd" d="M21.637 94.1787L12.0719 99.7214L2.45703 94.1787L12.0221 88.636L21.637 94.1787Z" fill="#17171A" stroke="white" stroke-width="0.4" stroke-linejoin="round"/>
<path id="Vector 2454" d="M12 83.2V94.4" stroke="white" stroke-width="0.8"/>
</g>
<g id="Group 1430104298">
<path id="Vector 2453" d="M110.4 41.5999V52.7999" stroke="white" stroke-width="0.8"/>
<path id="&#229;&#189;&#162;&#231;&#138;&#182; 1 &#230;&#139;&#183;&#232;&#180;&#157; 10" fill-rule="evenodd" clip-rule="evenodd" d="M110.477 19.8934L110.399 47.4858L100.771 41.9431L100.85 14.3428L110.477 19.8934Z" fill="#17171A" stroke="white" stroke-width="0.4" stroke-linejoin="round"/>
<path id="&#229;&#189;&#162;&#231;&#138;&#182; 1 &#230;&#139;&#183;&#232;&#180;&#157; 9" fill-rule="evenodd" clip-rule="evenodd" d="M120.042 14.3428L119.962 41.9318L110.398 47.4745L110.476 19.8855L120.042 14.3428Z" fill="white" stroke="white" stroke-width="0.4" stroke-linejoin="round"/>
<path id="&#229;&#189;&#162;&#231;&#138;&#182; 1 &#230;&#139;&#183;&#232;&#180;&#157; 8" fill-rule="evenodd" clip-rule="evenodd" d="M120.041 14.3427L110.476 19.8854L100.85 14.3427L110.415 8.80005L120.041 14.3427Z" fill="#17171A" stroke="white" stroke-width="0.4" stroke-linejoin="round"/>
<path id="Vector 2452" d="M110.4 3.19995V14.4" stroke="white" stroke-width="0.8"/>
</g>
<g id="Group 1430104285">
<g id="Group">
<path id="Union" d="M27.8051 5.55587L21.0371 9.48387C26.6611 6.21987 34.4451 6.67588 43.0451 11.6359C60.1251 21.4919 73.9251 45.4039 73.8691 65.0279C73.8371 74.7799 70.3971 81.6439 64.8451 84.8679L71.6131 80.9399C77.1651 77.7079 80.6131 70.8519 80.6371 61.0999C80.6931 41.4759 66.8931 17.5719 49.8131 7.70787C41.2131 2.74787 33.4291 2.28387 27.8051 5.55587Z" fill="#17171A" stroke="white" stroke-width="0.4"/>
<path id="Intersect" d="M74.564 36.3162L67.7893 40.2275C71.6282 48.3825 73.8905 57.0587 73.8677 65.0278C73.8357 74.7798 70.3957 81.6438 64.8438 84.8678L71.6117 80.9398C77.1638 77.7078 80.6117 70.8518 80.6357 61.0998C80.6585 53.1354 78.3989 44.4659 74.564 36.3162Z" fill="white"/>
<path id="Vector" d="M64.8408 84.8704C76.901 77.8624 76.8722 55.3066 64.7764 34.4906C52.6806 13.6746 33.0983 2.4809 21.0381 9.48886C8.97785 16.4968 9.00666 39.0526 21.1024 59.8686C33.1982 80.6847 52.7805 91.8783 64.8408 84.8704Z" fill="#00F0FF" stroke="white" stroke-width="0.4"/>
<path id="Vector_2" d="M60.4605 77.3323C70.1086 71.7259 70.0856 53.6813 60.409 37.0284C50.7324 20.3756 35.0665 11.4207 25.4183 17.027C15.7702 22.6334 15.7932 40.678 25.4698 57.3309C35.1464 73.9837 50.8123 82.9386 60.4605 77.3323Z" fill="#17171A" stroke="white" stroke-width="0.4"/>
<g id="Vector_3">
<path d="M44.1777 33.1983L42.2896 34.2023L35.3965 38.0834L42.1547 49.8466L42.1997 49.8766L36.1907 46.415L30.0769 35.8357C29.6723 35.1464 29.6723 34.4121 30.0769 34.1724L37.9889 29.6169L44.1777 33.1834V33.1983Z" fill="white"/>
<path d="M51.895 54.6568C52.2996 55.3461 52.2996 56.0804 51.895 56.3201L43.983 60.8756L37.7942 57.3091L39.6673 56.2902L46.5753 52.4091L39.8022 40.6309L45.7662 44.0775L51.895 54.6418V54.6568Z" fill="white"/>
</g>
</g>
<g id="Group_2">
<path id="Union_2" d="M58.0766 57.1158L51.3086 61.0438C56.9326 57.7798 64.7246 58.2438 73.3166 63.2038C90.3966 73.0598 104.197 96.9638 104.141 116.596C104.109 126.338 100.675 133.198 95.1331 136.426L101.885 132.5V132.508C107.437 129.276 110.885 122.42 110.909 112.668C110.965 93.0358 97.1646 69.1398 80.0846 59.2758C71.4846 54.3078 63.7006 53.8438 58.0766 57.1158Z" fill="#17171A" stroke="white" stroke-width="0.4"/>
<path id="Intersect_2" d="M104.629 87.4446L97.8547 91.356C101.819 99.6367 104.163 108.481 104.14 116.596C104.108 126.338 100.675 133.198 95.1328 136.426L101.884 132.5V132.508C107.436 129.276 110.884 122.42 110.908 112.668C110.931 104.558 108.59 95.7202 104.629 87.4446Z" fill="white"/>
<path id="Vector_4" d="M95.1103 136.433C107.171 129.425 107.142 106.87 95.0459 86.0536C82.9502 65.2375 63.3678 54.0439 51.3076 61.0518C39.2474 68.0598 39.2762 90.6156 51.372 111.432C63.4677 132.248 83.0501 143.441 95.1103 136.433Z" fill="#A878FF" stroke="white" stroke-width="0.4"/>
<path id="Vector_5" d="M90.73 128.895C100.378 123.289 100.355 105.244 90.6785 88.5912C81.0019 71.9383 65.3361 62.9834 55.6879 68.5898C46.0397 74.1961 46.0627 92.2408 55.7394 108.894C65.416 125.546 81.0818 134.501 90.73 128.895Z" fill="#17171A" stroke="white" stroke-width="0.4"/>
<g id="Union_3">
<path d="M65.6387 96.106C67.5125 98.4615 69.3863 100.817 71.2529 103.18H71.2369C71.3169 103.276 71.3809 103.34 71.4449 103.372C71.547 103.427 71.6336 103.42 71.7351 103.412L71.7409 103.412C72.179 103.367 72.6172 103.321 73.0554 103.276C75.3376 103.04 77.6216 102.804 79.9169 102.596C80.2689 102.572 80.3249 102.452 80.1089 101.916C77.8369 96.2597 75.5729 90.6037 73.3089 84.9477C72.7249 83.4917 72.1409 82.0357 71.5329 80.5237C68.5489 84.4757 65.5889 88.3877 62.6289 92.2997C62.6599 92.342 62.686 92.3783 62.7095 92.4111C62.7527 92.4714 62.7875 92.5199 62.8289 92.5717C63.7649 93.7504 64.7018 94.9282 65.6387 96.106Z" fill="white"/>
<path d="M80.3008 104.748L80.2288 104.7L80.2368 104.692C80.1568 104.652 80.1088 104.652 80.0608 104.652L80.0594 104.652C77.3399 104.924 74.6204 105.196 71.9088 105.492C71.7328 105.508 71.5888 105.492 71.4448 105.404C71.3088 105.324 71.1728 105.196 71.0128 104.988C69.4307 102.98 67.8428 100.984 66.2543 98.9868C65.2162 97.6819 64.1779 96.3767 63.1408 95.0677L62.7808 94.6357L62.7328 94.6837C64.3345 98.2234 65.9387 101.761 67.5466 105.306C68.846 108.171 70.1478 111.042 71.4528 113.924L72.0844 113.268C74.8317 110.417 77.5663 107.579 80.3008 104.748Z" fill="white"/>
</g>
</g>
</g>
</g>
</svg>
