<svg width="201" height="200" viewBox="0 0 201 200" fill="none" xmlns="http://www.w3.org/2000/svg">
<path d="M147.909 36.7216C147.909 36.7216 145.363 35.2517 140.271 32.3123C135.179 29.3729 131.021 26.8785 129.542 27.6864C128.064 28.4943 115.698 36.589 115.698 36.589L131.648 45.8899L147.909 36.7216Z" fill="white" stroke="white" stroke-width="0.5" stroke-miterlimit="10" stroke-linejoin="round"/>
<path d="M126.05 94.9983L134.234 89.0749L152.16 55.565L140.062 48.4883L118.26 88.7116C118.26 88.7116 117.738 90.1067 118.798 90.7194C119.859 91.3321 126.05 94.9983 126.05 94.9983Z" fill="white" stroke="white" stroke-width="0.5" stroke-miterlimit="10" stroke-linejoin="round"/>
<path d="M136.337 32.2638C137.353 31.6794 138.802 31.4244 140.174 32.216L159.381 43.3052C162.351 45.02 161.909 48.7256 160.44 51.2709L140.842 85.2155C140.034 86.6753 139.247 87.6985 137.788 88.5444L126.659 94.9409C125.745 95.5445 124.81 94.2247 125.452 93.1123L146.112 55.8392C146.449 55.2323 146.24 54.4678 145.642 54.1157L122.889 40.7171L136.337 32.2638Z" fill="#36FFFF" stroke="black" stroke-width="0.5" stroke-miterlimit="10" stroke-linejoin="round"/>
<path d="M48.3691 39.2007L42.7411 33.988L42.3867 111.517C42.3867 119.178 43.7816 122.842 49.8023 126.506C55.8231 130.171 129.957 172.891 129.957 172.891C136.682 176.721 142.28 173.619 142.306 165.92V108.465C142.455 104.184 141.4 99.9464 139.261 96.2308C137.122 92.5151 133.984 89.4693 130.2 87.4371L48.3691 39.2007Z" fill="#17171A" stroke="white" stroke-width="0.5" stroke-linejoin="round"/>
<ellipse cx="3.45417" cy="6.90834" rx="3.45417" ry="6.90834" transform="matrix(0.866025 0.5 0.00820296 0.999966 109.368 113.037)" fill="white" stroke="white" stroke-width="0.5" stroke-linejoin="round"/>
<ellipse cx="2.44495" cy="4.8899" rx="2.44495" ry="4.8899" transform="matrix(0.866025 0.5 0.00820296 0.999966 111.005 115.561)" fill="#17171A" stroke="white" stroke-width="0.5" stroke-linejoin="round"/>
<path fillRule="evenodd" clipRule="evenodd" d="M128.564 86.4734L67.3405 136.735C91.0736 150.485 129.957 172.892 129.957 172.892C136.682 176.722 142.28 173.62 142.306 165.921V108.466C142.455 104.185 141.401 99.9473 139.262 96.2316C137.123 92.5159 133.984 89.4702 130.2 87.438L128.564 86.4734Z" fill="#17171A"/>
<path d="M67.3405 136.735L67.1819 136.541C67.1185 136.593 67.0847 136.673 67.0913 136.755C67.0979 136.837 67.1442 136.91 67.2152 136.951L67.3405 136.735ZM128.564 86.4734L128.691 86.258C128.601 86.2047 128.486 86.2136 128.405 86.2802L128.564 86.4734ZM129.957 172.892L129.832 173.109L129.833 173.109L129.957 172.892ZM142.306 165.921L142.556 165.922V165.921H142.306ZM142.306 108.466L142.056 108.458V108.466H142.306ZM139.262 96.2316L139.045 96.3564L139.262 96.2316ZM130.2 87.438L130.073 87.6535L130.082 87.6582L130.2 87.438ZM67.4991 136.928L128.723 86.6666L128.405 86.2802L67.1819 136.541L67.4991 136.928ZM67.2152 136.951C79.0819 143.826 94.7362 152.866 107.424 160.186C113.768 163.847 119.37 167.077 123.386 169.393C125.394 170.55 127.006 171.479 128.115 172.119C128.67 172.439 129.099 172.686 129.39 172.854C129.535 172.937 129.646 173.001 129.72 173.044C129.757 173.065 129.785 173.081 129.804 173.092C129.813 173.098 129.82 173.102 129.825 173.105C129.827 173.106 129.829 173.107 129.83 173.108C129.831 173.108 129.831 173.108 129.832 173.108C129.832 173.109 129.832 173.109 129.957 172.892C130.082 172.675 130.082 172.675 130.081 172.675C130.081 172.675 130.081 172.675 130.08 172.674C130.079 172.674 130.077 172.673 130.075 172.671C130.07 172.669 130.063 172.665 130.054 172.659C130.035 172.648 130.007 172.632 129.97 172.611C129.895 172.568 129.785 172.504 129.639 172.42C129.349 172.253 128.92 172.006 128.365 171.686C127.255 171.046 125.644 170.117 123.636 168.959C119.619 166.644 114.017 163.413 107.674 159.753C94.9861 152.433 79.3321 143.393 67.4658 136.518L67.2152 136.951ZM129.833 173.109C133.242 175.051 136.421 175.264 138.766 173.948C141.114 172.63 142.543 169.827 142.556 165.922L142.056 165.92C142.043 169.713 140.661 172.311 138.521 173.512C136.38 174.714 133.397 174.563 130.081 172.675L129.833 173.109ZM142.556 165.921V108.466H142.056V165.921H142.556ZM142.556 108.475C142.706 104.147 141.641 99.8631 139.478 96.1069L139.045 96.3564C141.161 100.032 142.203 104.223 142.056 108.458L142.556 108.475ZM139.478 96.1069C137.316 92.3508 134.143 89.272 130.319 87.2177L130.082 87.6582C133.825 89.6685 136.929 92.6811 139.045 96.3564L139.478 96.1069ZM130.327 87.2226L128.691 86.258L128.437 86.6887L130.073 87.6533L130.327 87.2226Z" fill="white"/>
<path fillRule="evenodd" clipRule="evenodd" d="M64.7763 48.8727L46.779 124.329C43.2898 121.258 42.3867 117.681 42.3867 111.517L42.7411 33.9885L48.3691 39.2012L64.7763 48.8727Z" fill="#A878FF"/>
<path d="M64.7763 48.8727L65.0195 48.9307C65.045 48.8239 64.9978 48.713 64.9033 48.6573L64.7763 48.8727ZM46.779 124.329L46.6138 124.517C46.6797 124.575 46.7711 124.594 46.8547 124.568C46.9383 124.541 47.0018 124.473 47.0222 124.387L46.779 124.329ZM42.3867 111.517L42.1367 111.516V111.517H42.3867ZM42.7411 33.9885L42.911 33.8051C42.8382 33.7377 42.7325 33.7197 42.6415 33.7592C42.5506 33.7987 42.4915 33.8882 42.4911 33.9874L42.7411 33.9885ZM48.3691 39.2012L48.1992 39.3846C48.2123 39.3968 48.2267 39.4075 48.2421 39.4166L48.3691 39.2012ZM64.5332 48.8147L46.5358 124.271L47.0222 124.387L65.0195 48.9307L64.5332 48.8147ZM42.1367 111.517C42.1367 114.608 42.3625 117.074 43.0365 119.16C43.713 121.254 44.8373 122.953 46.6138 124.517L46.9442 124.142C45.2315 122.634 44.1596 121.01 43.5123 119.006C42.8624 116.995 42.6367 114.591 42.6367 111.517H42.1367ZM42.4911 33.9874L42.1367 111.516L42.6367 111.519L42.9911 33.9897L42.4911 33.9874ZM48.539 39.0178L42.911 33.8051L42.5712 34.1719L48.1992 39.3846L48.539 39.0178ZM64.9033 48.6573L48.4961 38.9858L48.2421 39.4166L64.6494 49.088L64.9033 48.6573Z" fill="white"/>
<ellipse cx="13.9252" cy="27.8504" rx="13.9252" ry="27.8504" transform="matrix(0.866025 0.5 0.00820296 0.999966 95.3809 84.5684)" fill="#17171A" stroke="white" stroke-width="0.5" stroke-linejoin="round"/>
<ellipse cx="10.4293" cy="20.8586" rx="10.4293" ry="20.8586" transform="matrix(0.866025 0.5 0.00820296 0.999966 101.215 92.2576)" fill="white" stroke="white" stroke-width="0.5" stroke-linejoin="round"/>
<path d="M151.5 165.998C153.811 164.599 155.031 163.18 155.031 158.197V102.258C155.031 92.5101 149.856 83.4953 141.438 78.5805L57.1752 29.3826C53.1235 27.017 48.0412 27.3486 44.3313 30.2207C41.9123 32.0934 42.1568 35.819 44.7997 37.3596L128.536 86.1698C136.963 91.0822 142.146 100.102 142.146 109.857V165.998C142.146 169.841 140.693 172.544 138.501 173.825C138.501 173.825 149.19 167.397 151.5 165.998Z" fill="#17171A" stroke="white" stroke-width="0.5" stroke-linejoin="round"/>
<path fillRule="evenodd" clipRule="evenodd" d="M142.145 115.682V165.998C142.145 169.764 140.75 172.436 138.631 173.747C138.546 173.798 138.5 173.825 138.5 173.825C138.544 173.8 138.588 173.774 138.631 173.747C139.616 173.154 145.934 169.355 149.498 167.207V112.165L142.145 115.682Z" fill="#A878FF"/>
<path d="M142.145 115.682L142.037 115.456C141.951 115.498 141.895 115.585 141.895 115.682H142.145ZM138.5 173.825L138.371 173.611C138.254 173.682 138.215 173.835 138.285 173.953C138.355 174.071 138.508 174.111 138.626 174.041L138.5 173.825ZM149.498 167.207L149.627 167.421C149.702 167.375 149.748 167.294 149.748 167.207H149.498ZM149.498 112.165H149.748C149.748 112.079 149.704 112 149.631 111.954C149.559 111.908 149.467 111.903 149.39 111.94L149.498 112.165ZM141.895 115.682V165.998H142.395V115.682H141.895ZM141.895 165.998C141.895 169.705 140.524 172.282 138.499 173.534L138.762 173.959C140.976 172.59 142.395 169.824 142.395 165.998H141.895ZM138.5 173.825C138.629 174.04 138.629 174.04 138.629 174.04C138.629 174.04 138.629 174.04 138.629 174.04C138.629 174.04 138.629 174.04 138.629 174.04C138.629 174.04 138.629 174.04 138.629 174.04C138.629 174.04 138.629 174.04 138.629 174.04C138.629 174.04 138.629 174.039 138.63 174.039C138.63 174.039 138.63 174.039 138.631 174.038C138.633 174.038 138.635 174.036 138.637 174.035C138.643 174.031 138.651 174.026 138.662 174.02C138.684 174.006 138.717 173.987 138.76 173.961L138.502 173.533C138.459 173.558 138.427 173.578 138.405 173.591C138.394 173.598 138.385 173.603 138.38 173.606C138.377 173.608 138.375 173.609 138.373 173.61C138.373 173.61 138.372 173.611 138.372 173.611C138.372 173.611 138.372 173.611 138.372 173.611C138.371 173.611 138.371 173.611 138.371 173.611C138.371 173.611 138.371 173.611 138.371 173.611C138.371 173.611 138.371 173.611 138.371 173.611C138.371 173.611 138.371 173.611 138.371 173.611C138.371 173.611 138.371 173.611 138.5 173.825ZM138.499 173.534C138.458 173.56 138.416 173.585 138.374 173.61L138.626 174.041C138.672 174.015 138.717 173.987 138.762 173.959L138.499 173.534ZM138.76 173.961C139.745 173.369 146.062 169.569 149.627 167.421L149.369 166.992C145.805 169.141 139.487 172.94 138.502 173.533L138.76 173.961ZM149.248 112.165V167.207H149.748V112.165H149.248ZM142.253 115.907L149.606 112.391L149.39 111.94L142.037 115.456L142.253 115.907Z" fill="white"/>
<path fillRule="evenodd" clipRule="evenodd" d="M48.9683 32.2981C50.3176 31.1912 52.2132 31.0408 53.7201 31.9212L137.913 81.1083C146.328 86.0242 151.5 95.026 151.5 104.771C151.5 125.402 151.5 159.265 151.5 161.465C151.5 164.644 151.147 166.056 150.088 166.762C149.028 167.469 144.438 170.294 144.438 170.294C144.438 170.294 146.556 168.528 146.556 164.644C146.556 161.959 146.556 127.909 146.556 107.132C146.556 97.2849 141.276 88.2027 132.722 83.3243L49.258 35.7237C47.9873 34.9991 47.8374 33.2258 48.9683 32.2981Z" fill="white" stroke="white" stroke-width="0.5" stroke-linecap="square" stroke-linejoin="round"/>
<path d="M157.247 138.216C157.247 139.032 156.837 139.794 156.155 140.242L148.98 144.962C146.424 146.643 143.139 146.737 140.491 145.206L111.324 128.342C108.23 126.553 106.37 123.208 106.483 119.636L106.831 108.646C106.909 106.194 109.587 104.723 111.698 105.972L139.203 122.25C141.74 123.752 144.892 123.753 147.43 122.255L155.032 117.768V115.212L156.498 116.144C156.965 116.441 157.247 116.956 157.247 117.509V138.216Z" fill="black" stroke="white" stroke-width="0.5" stroke-linejoin="round"/>
<path d="M155.738 140.545L147.478 145.785C144.933 147.399 141.703 147.465 139.095 145.955L108.106 128.008C106.114 126.855 104.888 124.728 104.888 122.426V110.202C104.888 107.717 107.58 106.165 109.73 107.411L139.408 124.6C141.848 126.014 144.849 126.053 147.326 124.704L155.738 120.123V140.545Z" fill="#17171A" stroke="white" stroke-width="0.5" stroke-linejoin="round"/>
<path fillRule="evenodd" clipRule="evenodd" d="M122.72 114.935V136.472L108.106 128.009C106.115 126.855 104.888 124.728 104.888 122.426V110.203C104.888 107.718 107.58 106.166 109.73 107.411L122.72 114.935Z" fill="#36FFFF"/>
<path d="M122.72 114.935H122.97V114.791L122.845 114.718L122.72 114.935ZM122.72 136.472L122.594 136.688L122.97 136.905V136.472H122.72ZM108.106 128.009L108.232 127.793H108.232L108.106 128.009ZM109.73 107.411L109.856 107.195L109.73 107.411ZM122.47 114.935V136.472H122.97V114.935H122.47ZM122.845 136.255L108.232 127.793L107.981 128.225L122.594 136.688L122.845 136.255ZM108.232 127.793C106.317 126.684 105.138 124.639 105.138 122.426H104.638C104.638 124.817 105.912 127.027 107.981 128.225L108.232 127.793ZM105.138 122.426V110.203H104.638V122.426H105.138ZM105.138 110.203C105.138 107.91 107.621 106.479 109.605 107.628L109.856 107.195C107.539 105.853 104.638 107.525 104.638 110.203H105.138ZM109.605 107.628L122.594 115.151L122.845 114.718L109.856 107.195L109.605 107.628Z" fill="white"/>
<ellipse cx="2.60371" cy="5.20743" rx="2.60371" ry="5.20743" transform="matrix(0.866025 0.5 0.00820296 0.999966 108.33 112.888)" fill="black"/>
<path d="M10.0479 55.6179C10.0479 55.6179 9.52677 56.2049 8.71674 57.1174C6.5201 59.5919 8.39608 64.8447 12.9086 68.8504C17.421 72.8562 22.8591 74.0962 25.0558 71.6217L26.3869 70.1222L10.0479 55.6179Z" fill="#17171A" stroke="white" stroke-width="0.5"/>
<path fillRule="evenodd" clipRule="evenodd" d="M18.5989 72.3045L19.776 70.9785L15.3915 60.3629L26.386 70.1228L25.0549 71.6223C23.7527 73.0892 21.3113 73.2507 18.5989 72.3045Z" fill="white"/>
<path d="M18.5989 72.3045L18.4119 72.1385L18.1642 72.4176L18.5165 72.5405L18.5989 72.3045ZM19.776 70.9785L19.9629 71.1445L20.0667 71.0276L20.007 70.8831L19.776 70.9785ZM15.3915 60.3629L15.5575 60.1759L15.1604 60.4583L15.3915 60.3629ZM26.386 70.1228L26.573 70.2888L26.7389 70.1018L26.552 69.9358L26.386 70.1228ZM25.0549 71.6223L24.8679 71.4563L25.0549 71.6223ZM18.7858 72.4704L19.9629 71.1445L19.589 70.8125L18.4119 72.1385L18.7858 72.4704ZM20.007 70.8831L15.6226 60.2674L15.1604 60.4583L19.5449 71.0739L20.007 70.8831ZM26.552 69.9358L15.5575 60.1759L15.2255 60.5498L26.22 70.3098L26.552 69.9358ZM25.2419 71.7882L26.573 70.2888L26.199 69.9568L24.8679 71.4563L25.2419 71.7882ZM18.5165 72.5405C21.257 73.4966 23.835 73.3731 25.2419 71.7882L24.8679 71.4563C23.6703 72.8054 21.3655 73.0049 18.6812 72.0684L18.5165 72.5405Z" fill="white"/>
<path d="M14.0749 67.5361C18.5868 71.5414 24.0253 72.7821 26.2222 70.3074C28.419 67.8327 26.5422 62.5797 22.0304 58.5744C17.5185 54.5692 12.08 53.3284 9.88314 55.8031C7.68631 58.2778 9.56305 63.5309 14.0749 67.5361Z" fill="#17171A" stroke="white" stroke-width="0.5"/>
<path d="M187.576 75.6584C187.576 75.6584 188.429 76.3784 189.754 77.4975C193.347 80.5323 191.775 88.3032 186.241 94.8555C180.707 101.408 173.308 104.257 169.715 101.223L167.538 99.3837L187.576 75.6584Z" fill="#17171A" stroke="white" stroke-width="0.5"/>
<path fillRule="evenodd" clipRule="evenodd" d="M178.937 100.869L177.013 99.2438L181.025 83.4139L167.538 99.3829L169.715 101.222C171.845 103.021 175.313 102.752 178.937 100.869Z" fill="white"/>
<path d="M178.937 100.869L179.099 100.678L179.384 100.919L179.053 101.091L178.937 100.869ZM177.013 99.2438L176.852 99.4348L176.732 99.3339L176.771 99.1823L177.013 99.2438ZM181.025 83.4139L180.834 83.2526L181.268 83.4753L181.025 83.4139ZM167.538 99.3829L167.376 99.5738L167.185 99.4125L167.347 99.2215L167.538 99.3829ZM169.715 101.222L169.554 101.413L169.715 101.222ZM178.776 101.06L176.852 99.4348L177.174 99.0528L179.099 100.678L178.776 101.06ZM176.771 99.1823L180.783 83.3525L181.268 83.4753L177.255 99.3052L176.771 99.1823ZM167.347 99.2215L180.834 83.2526L181.216 83.5752L167.729 99.5442L167.347 99.2215ZM169.554 101.413L167.376 99.5738L167.699 99.1919L169.876 101.031L169.554 101.413ZM179.053 101.091C175.402 102.988 171.804 103.314 169.554 101.413L169.876 101.031C171.886 102.728 175.224 102.516 178.822 100.647L179.053 101.091Z" fill="white"/>
<path d="M184.333 93.2432C178.8 99.7947 171.401 102.645 167.808 99.6103C164.214 96.5753 165.787 88.8038 171.321 82.2523C176.854 75.7007 184.253 72.85 187.846 75.8851C191.44 78.9202 189.867 86.6916 184.333 93.2432Z" fill="#17171A" stroke="white" stroke-width="0.5"/>
<path d="M59.0638 87.2448C58.4011 86.862 57.7718 86.4488 56.6601 86.9987C55.5484 87.5486 50.2543 90.6219 47.9689 92.1307C45.5349 93.7376 44.1892 94.7576 43.0868 96.667C41.9844 98.5764 24.6661 128.572 22.999 131.46C21.332 134.348 21.7112 136.939 23.6987 138.087C27.6742 140.383 32.8597 143.469 32.8597 143.469L65.6788 91.1567C65.6788 91.1567 59.7265 87.6276 59.0638 87.2448Z" fill="#A878FF" stroke="white" stroke-width="0.5" stroke-miterlimit="10" stroke-linejoin="round"/>
<path fillRule="evenodd" clipRule="evenodd" d="M39.5166 132.714L26.729 125C31.2158 117.228 38.4092 104.769 41.5679 99.2978L43.0866 96.6674C44.189 94.758 45.5348 93.738 47.9687 92.1311C48.2256 91.9616 48.517 91.7688 48.8335 91.5594C51.3335 89.9057 55.401 87.215 56.3878 86.7269C57.4566 86.1983 58.0796 86.5599 58.715 86.9287C58.7405 86.9435 58.766 86.9583 58.7915 86.9731C59.4542 87.3558 65.4065 90.8849 65.4065 90.8849L39.5166 132.714Z" fill="black"/>
<path d="M39.5166 132.714L39.3875 132.928L39.5991 133.055L39.7292 132.845L39.5166 132.714ZM26.729 125L26.5125 124.875L26.3898 125.087L26.5998 125.214L26.729 125ZM41.5679 99.2978L41.7844 99.4228L41.5679 99.2978ZM43.0866 96.6674L43.3031 96.7924L43.3031 96.7924L43.0866 96.6674ZM47.9687 92.1311L47.831 91.9225L47.9687 92.1311ZM48.8335 91.5594L48.9715 91.7679L48.8335 91.5594ZM56.3878 86.7269L56.4986 86.951V86.951L56.3878 86.7269ZM58.715 86.9287L58.8405 86.7125L58.8405 86.7125L58.715 86.9287ZM58.7915 86.9731L58.6664 87.1895L58.6664 87.1895L58.7915 86.9731ZM65.4065 90.8849L65.6191 91.0165L65.7532 90.7998L65.534 90.6699L65.4065 90.8849ZM39.6457 132.5L26.8581 124.786L26.5998 125.214L39.3875 132.928L39.6457 132.5ZM41.3514 99.1728C38.1926 104.644 30.9993 117.103 26.5125 124.875L26.9455 125.125C31.4323 117.353 38.6257 104.894 41.7844 99.4228L41.3514 99.1728ZM42.8701 96.5424L41.3514 99.1728L41.7844 99.4228L43.3031 96.7924L42.8701 96.5424ZM47.831 91.9225C45.394 93.5314 44.004 94.5784 42.8701 96.5424L43.3031 96.7924C44.374 94.9377 45.6755 93.9447 48.1065 92.3398L47.831 91.9225ZM48.6956 91.3509C48.379 91.5603 48.0877 91.753 47.831 91.9225L48.1065 92.3398C48.3634 92.1701 48.6549 91.9773 48.9715 91.7679L48.6956 91.3509ZM56.2769 86.5029C55.7673 86.7549 54.4888 87.5598 53.0423 88.4962C51.5883 89.4374 49.9454 90.5242 48.6956 91.3509L48.9715 91.7679C50.2217 90.9409 51.8625 89.8555 53.314 88.9159C54.7728 87.9715 56.0215 87.187 56.4986 86.951L56.2769 86.5029ZM58.8405 86.7125C58.5286 86.5315 58.1781 86.3254 57.7608 86.2457C57.3312 86.1637 56.853 86.2179 56.2769 86.5029L56.4986 86.951C56.9914 86.7073 57.3591 86.678 57.667 86.7368C57.9873 86.798 58.2659 86.9571 58.5895 87.145L58.8405 86.7125ZM58.9165 86.7566C58.8913 86.742 58.866 86.7273 58.8405 86.7125L58.5895 87.145C58.6149 87.1597 58.6406 87.1746 58.6664 87.1895L58.9165 86.7566ZM65.4065 90.8849C65.534 90.6699 65.534 90.6699 65.5339 90.6698C65.5339 90.6698 65.5338 90.6698 65.5337 90.6697C65.5335 90.6696 65.5333 90.6694 65.5329 90.6692C65.5322 90.6688 65.5311 90.6682 65.5297 90.6673C65.5268 90.6656 65.5225 90.6631 65.5169 90.6597C65.5056 90.653 65.4889 90.6431 65.467 90.6301C65.4232 90.6042 65.3589 90.5661 65.2769 90.5175C65.1129 90.4202 64.8777 90.2809 64.5935 90.1124C64.0251 89.7756 63.2604 89.3225 62.4749 88.8574C60.905 87.9279 59.2494 86.9489 58.9165 86.7566L58.6664 87.1895C58.9963 87.3801 60.6482 88.3569 62.2201 89.2876C63.0056 89.7527 63.7703 90.2058 64.3386 90.5426C64.6228 90.711 64.8579 90.8503 65.022 90.9476C65.104 90.9962 65.1682 91.0343 65.212 91.0602C65.2339 91.0732 65.2506 91.0831 65.2619 91.0898C65.2675 91.0932 65.2718 91.0957 65.2747 91.0974C65.2761 91.0982 65.2772 91.0989 65.2779 91.0993C65.2783 91.0995 65.2785 91.0997 65.2787 91.0998C65.2788 91.0998 65.2789 91.0999 65.2789 91.0999C65.279 91.0999 65.279 91.1 65.4065 90.8849ZM39.7292 132.845L65.6191 91.0165L65.1939 90.7533L39.304 132.582L39.7292 132.845Z" fill="white"/>
<path d="M64.2477 91.1875C65.5535 90.4274 66.6821 91.8329 66.1082 92.8269L45.3591 129.513C44.8512 130.411 45.1438 131.55 46.0215 132.092L68.5314 145.992L55.3913 153.93C54.3719 154.515 52.98 155.084 51.1066 154.002L32.437 143.223C29.7863 141.694 28.9946 138.407 30.7096 135.436L50.0621 101.917C51.1645 100.007 51.8994 98.7345 53.2708 97.8286L64.2477 91.1875Z" fill="#36FFFF" stroke="black" stroke-width="0.5" stroke-miterlimit="10" stroke-linejoin="round"/>
</svg>
