<svg width="201" height="200" viewBox="0 0 201 200" fill="none" xmlns="http://www.w3.org/2000/svg">
<path d="M147.909 36.7216C147.909 36.7216 145.363 35.2516 140.271 32.3122C135.179 29.3728 131.021 26.8784 129.542 27.6864C128.064 28.4943 115.698 36.5889 115.698 36.5889L131.648 45.8898L147.909 36.7216Z" fill="#0D0E0E" stroke="#0D0E0E" stroke-width="0.5" stroke-miterlimit="10" stroke-linejoin="round"/>
<path d="M126.05 94.9983L134.234 89.0749L152.16 55.565L140.062 48.4883L118.26 88.7116C118.26 88.7116 117.738 90.1067 118.798 90.7194C119.859 91.3321 126.05 94.9983 126.05 94.9983Z" fill="#0D0E0E" stroke="#0D0E0E" stroke-width="0.5" stroke-miterlimit="10" stroke-linejoin="round"/>
<path d="M136.337 32.2638C137.353 31.6794 138.802 31.4244 140.174 32.216L159.381 43.3052C162.351 45.02 161.909 48.7256 160.44 51.2709L140.842 85.2155C140.034 86.6753 139.247 87.6985 137.788 88.5444L126.659 94.9409C125.745 95.5445 124.81 94.2247 125.452 93.1123L146.112 55.8392C146.449 55.2323 146.24 54.4678 145.642 54.1157L122.889 40.7171L136.337 32.2638Z" fill="#36FFFF" stroke="#0D0E0E" stroke-width="0.5" stroke-miterlimit="10" stroke-linejoin="round"/>
<path d="M48.3691 39.2006L42.7411 33.9879L42.3867 111.517C42.3867 119.177 43.7816 122.842 49.8023 126.506C55.8231 130.171 129.957 172.891 129.957 172.891C136.682 176.721 142.28 173.619 142.306 165.92V108.465C142.455 104.184 141.4 99.9463 139.261 96.2306C137.122 92.5149 133.984 89.4692 130.2 87.437L48.3691 39.2006Z" fill="white" stroke="#0D0E0E" stroke-width="0.5" stroke-linejoin="round"/>
<ellipse cx="3.45417" cy="6.90834" rx="3.45417" ry="6.90834" transform="matrix(0.866025 0.5 0.00820296 0.999966 109.368 113.037)" fill="#0D0E0E" stroke="#0D0E0E" stroke-width="0.5" stroke-linejoin="round"/>
<ellipse cx="2.44495" cy="4.8899" rx="2.44495" ry="4.8899" transform="matrix(0.866025 0.5 0.00820296 0.999966 111.005 115.561)" fill="white" stroke="#0D0E0E" stroke-width="0.5" stroke-linejoin="round"/>
<path fillRule="evenodd" clipRule="evenodd" d="M128.564 86.4733L67.3403 136.734C91.0734 150.485 129.957 172.892 129.957 172.892C136.682 176.722 142.28 173.62 142.306 165.921V108.466C142.455 104.185 141.4 99.9472 139.261 96.2315C137.122 92.5158 133.984 89.4701 130.2 87.4378L128.564 86.4733Z" fill="white"/>
<path d="M67.3403 136.734L67.1817 136.541C67.1183 136.593 67.0845 136.673 67.0912 136.755C67.0978 136.836 67.1441 136.91 67.215 136.951L67.3403 136.734ZM128.564 86.4733L128.691 86.2579C128.6 86.2046 128.486 86.2135 128.405 86.28L128.564 86.4733ZM129.957 172.892L129.832 173.108L129.833 173.109L129.957 172.892ZM142.306 165.921L142.556 165.922V165.921H142.306ZM142.306 108.466L142.056 108.457V108.466H142.306ZM139.261 96.2315L139.045 96.3563L139.261 96.2315ZM130.2 87.4378L130.073 87.6534L130.082 87.6581L130.2 87.4378ZM67.499 136.928L128.722 86.6665L128.405 86.28L67.1817 136.541L67.499 136.928ZM67.215 136.951C79.0818 143.826 94.7361 152.866 107.424 160.186C113.767 163.846 119.369 167.077 123.386 169.393C125.394 170.55 127.005 171.479 128.115 172.119C128.67 172.439 129.099 172.686 129.39 172.853C129.535 172.937 129.646 173.001 129.72 173.044C129.757 173.065 129.785 173.081 129.804 173.092C129.813 173.098 129.82 173.102 129.825 173.104C129.827 173.106 129.829 173.107 129.83 173.107C129.831 173.108 129.831 173.108 129.832 173.108C129.832 173.108 129.832 173.108 129.957 172.892C130.082 172.675 130.082 172.675 130.081 172.675C130.081 172.675 130.081 172.675 130.08 172.674C130.079 172.674 130.077 172.673 130.075 172.671C130.07 172.668 130.063 172.664 130.053 172.659C130.035 172.648 130.007 172.632 129.969 172.611C129.895 172.568 129.785 172.504 129.639 172.42C129.349 172.253 128.919 172.005 128.365 171.686C127.255 171.046 125.643 170.117 123.635 168.959C119.619 166.644 114.017 163.413 107.673 159.753C94.986 152.432 79.332 143.393 67.4657 136.518L67.215 136.951ZM129.833 173.109C133.242 175.051 136.421 175.264 138.766 173.948C141.114 172.63 142.543 169.827 142.556 165.922L142.056 165.92C142.043 169.713 140.66 172.311 138.521 173.512C136.38 174.714 133.397 174.563 130.081 172.675L129.833 173.109ZM142.556 165.921V108.466H142.056V165.921H142.556ZM142.556 108.475C142.706 104.147 141.64 99.863 139.478 96.1068L139.045 96.3563C141.161 100.031 142.203 104.223 142.056 108.457L142.556 108.475ZM139.478 96.1068C137.316 92.3506 134.143 89.2719 130.319 87.2176L130.082 87.6581C133.825 89.6683 136.929 92.681 139.045 96.3563L139.478 96.1068ZM130.327 87.2225L128.691 86.2579L128.437 86.6886L130.073 87.6532L130.327 87.2225Z" fill="#0D0E0E"/>
<path fillRule="evenodd" clipRule="evenodd" d="M64.7763 48.8725L46.779 124.329C43.2898 121.258 42.3867 117.681 42.3867 111.517L42.7411 33.9883L48.3691 39.201L64.7763 48.8725Z" fill="#A878FF"/>
<path d="M64.7763 48.8725L65.0195 48.9305C65.045 48.8237 64.9978 48.7128 64.9033 48.6571L64.7763 48.8725ZM46.779 124.329L46.6138 124.517C46.6797 124.575 46.7711 124.594 46.8547 124.567C46.9383 124.541 47.0018 124.472 47.0222 124.387L46.779 124.329ZM42.3867 111.517L42.1367 111.516V111.517H42.3867ZM42.7411 33.9883L42.911 33.8049C42.8382 33.7375 42.7325 33.7195 42.6415 33.759C42.5506 33.7985 42.4915 33.888 42.4911 33.9872L42.7411 33.9883ZM48.3691 39.201L48.1992 39.3844C48.2123 39.3966 48.2267 39.4073 48.2421 39.4164L48.3691 39.201ZM64.5332 48.8145L46.5358 124.271L47.0222 124.387L65.0195 48.9305L64.5332 48.8145ZM42.1367 111.517C42.1367 114.608 42.3625 117.074 43.0365 119.16C43.713 121.253 44.8373 122.953 46.6138 124.517L46.9442 124.142C45.2315 122.634 44.1596 121.01 43.5123 119.006C42.8624 116.995 42.6367 114.591 42.6367 111.517H42.1367ZM42.4911 33.9872L42.1367 111.516L42.6367 111.518L42.9911 33.9895L42.4911 33.9872ZM48.539 39.0176L42.911 33.8049L42.5712 34.1718L48.1992 39.3844L48.539 39.0176ZM64.9033 48.6571L48.4961 38.9857L48.2421 39.4164L64.6494 49.0879L64.9033 48.6571Z" fill="#0D0E0E"/>
<ellipse cx="13.9252" cy="27.8504" rx="13.9252" ry="27.8504" transform="matrix(0.866025 0.5 0.00820296 0.999966 95.3809 84.5684)" fill="white" stroke="#0D0E0E" stroke-width="0.5" stroke-linejoin="round"/>
<ellipse cx="10.4293" cy="20.8586" rx="10.4293" ry="20.8586" transform="matrix(0.866025 0.5 0.00820296 0.999966 101.215 92.2575)" fill="#0D0E0E" stroke="#0D0E0E" stroke-width="0.5" stroke-linejoin="round"/>
<path d="M151.5 165.998C153.811 164.599 155.031 163.18 155.031 158.197V102.258C155.031 92.51 149.856 83.4953 141.438 78.5804L57.1752 29.3826C53.1235 27.017 48.0412 27.3486 44.3313 30.2206C41.9123 32.0934 42.1568 35.819 44.7997 37.3595L128.536 86.1697C136.963 91.0821 142.146 100.102 142.146 109.857V165.998C142.146 169.841 140.693 172.544 138.501 173.825C138.501 173.825 149.19 167.397 151.5 165.998Z" fill="white" stroke="#0D0E0E" stroke-width="0.5" stroke-linejoin="round"/>
<path fillRule="evenodd" clipRule="evenodd" d="M142.145 115.682V165.998C142.145 169.764 140.75 172.436 138.631 173.747C138.545 173.798 138.5 173.825 138.5 173.825C138.544 173.8 138.587 173.774 138.631 173.747C139.616 173.154 145.933 169.355 149.498 167.207V112.165L142.145 115.682Z" fill="#A878FF"/>
<path d="M142.145 115.682L142.037 115.456C141.95 115.498 141.895 115.585 141.895 115.682H142.145ZM138.5 173.825L138.371 173.611C138.253 173.682 138.215 173.835 138.285 173.953C138.355 174.071 138.507 174.111 138.626 174.041L138.5 173.825ZM149.498 167.207L149.627 167.421C149.702 167.375 149.748 167.294 149.748 167.207H149.498ZM149.498 112.165H149.748C149.748 112.079 149.704 112 149.631 111.954C149.558 111.908 149.467 111.903 149.39 111.94L149.498 112.165ZM141.895 115.682V165.998H142.395V115.682H141.895ZM141.895 165.998C141.895 169.705 140.524 172.282 138.499 173.534L138.762 173.959C140.976 172.59 142.395 169.824 142.395 165.998H141.895ZM138.5 173.825C138.629 174.04 138.629 174.04 138.629 174.04C138.629 174.04 138.629 174.04 138.629 174.04C138.629 174.04 138.629 174.04 138.629 174.04C138.629 174.04 138.629 174.04 138.629 174.04C138.629 174.04 138.629 174.04 138.629 174.04C138.629 174.04 138.629 174.039 138.629 174.039C138.63 174.039 138.63 174.039 138.631 174.038C138.632 174.038 138.634 174.036 138.637 174.035C138.643 174.031 138.651 174.026 138.662 174.02C138.684 174.006 138.717 173.987 138.76 173.961L138.502 173.533C138.459 173.558 138.426 173.578 138.404 173.591C138.393 173.598 138.385 173.603 138.38 173.606C138.377 173.608 138.375 173.609 138.373 173.61C138.373 173.61 138.372 173.611 138.372 173.611C138.372 173.611 138.371 173.611 138.371 173.611C138.371 173.611 138.371 173.611 138.371 173.611C138.371 173.611 138.371 173.611 138.371 173.611C138.371 173.611 138.371 173.611 138.371 173.611C138.371 173.611 138.371 173.611 138.371 173.611C138.371 173.611 138.371 173.611 138.5 173.825ZM138.499 173.534C138.458 173.56 138.416 173.585 138.374 173.61L138.626 174.041C138.672 174.015 138.717 173.987 138.762 173.959L138.499 173.534ZM138.76 173.961C139.745 173.369 146.062 169.569 149.627 167.421L149.369 166.992C145.804 169.141 139.487 172.94 138.502 173.533L138.76 173.961ZM149.248 112.165V167.207H149.748V112.165H149.248ZM142.253 115.907L149.606 112.391L149.39 111.94L142.037 115.456L142.253 115.907Z" fill="#0D0E0E"/>
<path fillRule="evenodd" clipRule="evenodd" d="M48.9683 32.298C50.3176 31.1911 52.2132 31.0407 53.7201 31.9211L137.913 81.1082C146.328 86.024 151.5 95.0259 151.5 104.771C151.5 125.402 151.5 159.265 151.5 161.465C151.5 164.643 151.147 166.056 150.088 166.762C149.028 167.468 144.438 170.293 144.438 170.293C144.438 170.293 146.556 168.528 146.556 164.643C146.556 161.959 146.556 127.909 146.556 107.132C146.556 97.2848 141.276 88.2026 132.722 83.3242L49.258 35.7236C47.9873 34.9989 47.8374 33.2257 48.9683 32.298Z" fill="#0D0E0E" stroke="#0D0E0E" stroke-width="0.5" stroke-linecap="square" stroke-linejoin="round"/>
<path d="M157.247 138.216C157.247 139.032 156.837 139.793 156.155 140.242L148.98 144.961C146.424 146.643 143.139 146.737 140.491 145.206L111.324 128.342C108.23 126.553 106.37 123.208 106.483 119.636L106.831 108.646C106.909 106.194 109.587 104.723 111.698 105.972L139.203 122.25C141.74 123.751 144.892 123.753 147.43 122.255L155.032 117.768V115.212L156.498 116.144C156.965 116.441 157.247 116.955 157.247 117.508V138.216Z" fill="#0D0E0E" stroke="#0D0E0E" stroke-width="0.5" stroke-linejoin="round"/>
<path d="M155.738 140.545L147.478 145.785C144.933 147.399 141.703 147.464 139.095 145.954L108.106 128.008C106.114 126.855 104.888 124.727 104.888 122.426V110.202C104.888 107.717 107.58 106.165 109.73 107.411L139.408 124.6C141.848 126.013 144.849 126.053 147.326 124.704L155.738 120.123V140.545Z" fill="white" stroke="#0D0E0E" stroke-width="0.5" stroke-linejoin="round"/>
<path fillRule="evenodd" clipRule="evenodd" d="M122.72 114.935V136.472L108.106 128.009C106.115 126.855 104.888 124.728 104.888 122.426V110.203C104.888 107.718 107.58 106.166 109.73 107.411L122.72 114.935Z" fill="#36FFFF"/>
<path d="M122.72 114.935H122.97V114.791L122.845 114.718L122.72 114.935ZM122.72 136.472L122.594 136.688L122.97 136.905V136.472H122.72ZM108.106 128.009L107.981 128.225L108.106 128.009ZM109.73 107.411L109.856 107.195V107.195L109.73 107.411ZM122.47 114.935V136.472H122.97V114.935H122.47ZM122.845 136.255L108.232 127.793L107.981 128.225L122.594 136.688L122.845 136.255ZM108.232 127.793C106.317 126.684 105.138 124.639 105.138 122.426H104.638C104.638 124.817 105.912 127.027 107.981 128.225L108.232 127.793ZM105.138 122.426V110.203H104.638V122.426H105.138ZM105.138 110.203C105.138 107.91 107.621 106.479 109.605 107.628L109.856 107.195C107.539 105.853 104.638 107.525 104.638 110.203H105.138ZM109.605 107.628L122.594 115.151L122.845 114.718L109.856 107.195L109.605 107.628Z" fill="#0D0E0E"/>
<ellipse cx="2.60371" cy="5.20743" rx="2.60371" ry="5.20743" transform="matrix(0.866025 0.5 0.00820296 0.999966 108.33 112.888)" fill="#0D0E0E" stroke="#0D0E0E" stroke-width="0.5" stroke-linejoin="round"/>
<path d="M10.0479 55.6177C10.0479 55.6177 9.52677 56.2047 8.71674 57.1172C6.5201 59.5917 8.39608 64.8445 12.9086 68.8502C17.421 72.856 22.8591 74.096 25.0558 71.6215L26.3869 70.122L10.0479 55.6177Z" fill="white" stroke="#0D0E0E" stroke-width="0.5"/>
<path fillRule="evenodd" clipRule="evenodd" d="M18.5987 72.3043L19.7758 70.9784L15.3914 60.3627L26.3859 70.1227L25.0547 71.6221C23.7525 73.0891 21.3111 73.2506 18.5987 72.3043Z" fill="#0D0E0E"/>
<path d="M18.5987 72.3043L18.4118 72.1384L18.164 72.4175L18.5164 72.5404L18.5987 72.3043ZM19.7758 70.9784L19.9628 71.1443L20.0666 71.0274L20.0069 70.8829L19.7758 70.9784ZM15.3914 60.3627L15.5573 60.1758L15.1603 60.4582L15.3914 60.3627ZM26.3859 70.1227L26.5728 70.2886L26.7388 70.1017L26.5518 69.9357L26.3859 70.1227ZM25.0547 71.6221L24.8678 71.4562L25.0547 71.6221ZM18.7857 72.4703L19.9628 71.1443L19.5889 70.8124L18.4118 72.1384L18.7857 72.4703ZM20.0069 70.8829L15.6224 60.2673L15.1603 60.4582L19.5448 71.0738L20.0069 70.8829ZM26.5518 69.9357L15.5573 60.1758L15.2254 60.5497L26.2199 70.3096L26.5518 69.9357ZM25.2417 71.7881L26.5728 70.2886L26.1989 69.9567L24.8678 71.4562L25.2417 71.7881ZM18.5164 72.5404C21.2569 73.4964 23.8349 73.3729 25.2417 71.7881L24.8678 71.4562C23.6702 72.8052 21.3654 73.0047 18.6811 72.0683L18.5164 72.5404Z" fill="#0D0E0E"/>
<path d="M14.0749 67.536C18.5868 71.5413 24.0253 72.782 26.2222 70.3073C28.419 67.8326 26.5422 62.5795 22.0304 58.5743C17.5185 54.569 12.08 53.3283 9.88314 55.803C7.68631 58.2777 9.56305 63.5308 14.0749 67.536Z" fill="white" stroke="#0D0E0E" stroke-width="0.5"/>
<path d="M187.576 75.6584C187.576 75.6584 188.429 76.3783 189.754 77.4974C193.347 80.5322 191.775 88.3031 186.241 94.8555C180.707 101.408 173.308 104.257 169.715 101.223L167.538 99.3836L187.576 75.6584Z" fill="white" stroke="#0D0E0E" stroke-width="0.5"/>
<path fillRule="evenodd" clipRule="evenodd" d="M178.937 100.869L177.013 99.2437L181.025 83.4138L167.538 99.3828L169.715 101.222C171.845 103.021 175.313 102.752 178.937 100.869Z" fill="#0D0E0E"/>
<path d="M178.937 100.869L179.099 100.678L179.384 100.919L179.053 101.091L178.937 100.869ZM177.013 99.2437L176.852 99.4347L176.733 99.3338L176.771 99.1823L177.013 99.2437ZM181.025 83.4138L180.834 83.2525L181.268 83.4752L181.025 83.4138ZM167.538 99.3828L167.376 99.5738L167.185 99.4125L167.347 99.2215L167.538 99.3828ZM169.715 101.222L169.554 101.413L169.715 101.222ZM178.776 101.06L176.852 99.4347L177.175 99.0527L179.099 100.678L178.776 101.06ZM176.771 99.1823L180.783 83.3524L181.268 83.4752L177.256 99.3051L176.771 99.1823ZM167.347 99.2215L180.834 83.2525L181.216 83.5751L167.729 99.5441L167.347 99.2215ZM169.554 101.413L167.376 99.5738L167.699 99.1918L169.876 101.031L169.554 101.413ZM179.053 101.091C175.402 102.987 171.805 103.314 169.554 101.413L169.876 101.031C171.886 102.728 175.225 102.516 178.822 100.647L179.053 101.091Z" fill="#0D0E0E"/>
<path d="M184.333 93.2431C178.8 99.7946 171.401 102.645 167.808 99.6102C164.214 96.5751 165.787 88.8037 171.321 82.2521C176.854 75.7006 184.253 72.8499 187.846 75.885C191.44 78.92 189.867 86.6915 184.333 93.2431Z" fill="white" stroke="#0D0E0E" stroke-width="0.5"/>
<path d="M59.0638 87.2448C58.4011 86.862 57.7718 86.4488 56.6601 86.9987C55.5484 87.5486 50.2543 90.6219 47.9689 92.1307C45.5349 93.7376 44.1892 94.7576 43.0868 96.667C41.9844 98.5764 24.6661 128.572 22.999 131.46C21.332 134.348 21.7112 136.939 23.6987 138.087C27.6742 140.383 32.8597 143.469 32.8597 143.469L65.6788 91.1567C65.6788 91.1567 59.7265 87.6276 59.0638 87.2448Z" fill="#A878FF" stroke="#0D0E0E" stroke-width="0.5" stroke-miterlimit="10" stroke-linejoin="round"/>
<path fillRule="evenodd" clipRule="evenodd" d="M39.5166 132.714L26.729 124.999C31.2158 117.228 38.4092 104.769 41.5679 99.2977L43.0866 96.6673C44.189 94.7579 45.5348 93.7379 47.9687 92.131C48.2256 91.9614 48.517 91.7687 48.8335 91.5593C51.3335 89.9055 55.401 87.2149 56.3878 86.7268C57.4566 86.1981 58.0796 86.5598 58.715 86.9286C58.7405 86.9434 58.766 86.9582 58.7915 86.9729C59.4542 87.3557 65.4065 90.8848 65.4065 90.8848L39.5166 132.714Z" fill="#0D0E0E"/>
<path d="M39.5166 132.714L39.3875 132.928L39.5991 133.055L39.7292 132.845L39.5166 132.714ZM26.729 124.999L26.5125 124.874L26.3898 125.087L26.5998 125.214L26.729 124.999ZM41.5679 99.2977L41.7844 99.4227L41.5679 99.2977ZM43.0866 96.6673L43.3031 96.7923L43.3031 96.7923L43.0866 96.6673ZM47.9687 92.131L47.831 91.9224L47.9687 92.131ZM48.8335 91.5593L48.9715 91.7678L48.8335 91.5593ZM56.3878 86.7268L56.4986 86.9509V86.9509L56.3878 86.7268ZM58.715 86.9286L58.8405 86.7124L58.8405 86.7124L58.715 86.9286ZM58.7915 86.9729L58.6664 87.1894L58.6664 87.1894L58.7915 86.9729ZM65.4065 90.8848L65.6191 91.0164L65.7532 90.7997L65.534 90.6697L65.4065 90.8848ZM39.6457 132.499L26.8581 124.785L26.5998 125.214L39.3875 132.928L39.6457 132.499ZM41.3514 99.1727C38.1926 104.644 30.9993 117.103 26.5125 124.874L26.9455 125.124C31.4323 117.353 38.6257 104.894 41.7844 99.4227L41.3514 99.1727ZM42.8701 96.5423L41.3514 99.1727L41.7844 99.4227L43.3031 96.7923L42.8701 96.5423ZM47.831 91.9224C45.394 93.5313 44.004 94.5783 42.8701 96.5423L43.3031 96.7923C44.374 94.9375 45.6755 93.9445 48.1065 92.3396L47.831 91.9224ZM48.6956 91.3508C48.379 91.5602 48.0877 91.7529 47.831 91.9224L48.1065 92.3396C48.3634 92.17 48.6549 91.9772 48.9715 91.7678L48.6956 91.3508ZM56.2769 86.5027C55.7673 86.7548 54.4888 87.5597 53.0423 88.4961C51.5883 89.4372 49.9454 90.524 48.6956 91.3508L48.9715 91.7678C50.2217 90.9408 51.8625 89.8554 53.314 88.9158C54.7728 87.9714 56.0215 87.1869 56.4986 86.9509L56.2769 86.5027ZM58.8405 86.7124C58.5286 86.5314 58.1781 86.3253 57.7608 86.2456C57.3312 86.1635 56.853 86.2178 56.2769 86.5027L56.4986 86.9509C56.9914 86.7072 57.3591 86.6779 57.667 86.7367C57.9873 86.7979 58.2659 86.957 58.5895 87.1448L58.8405 86.7124ZM58.9165 86.7565C58.8913 86.7419 58.866 86.7272 58.8405 86.7124L58.5895 87.1448C58.6149 87.1596 58.6406 87.1745 58.6664 87.1894L58.9165 86.7565ZM65.4065 90.8848C65.534 90.6697 65.534 90.6697 65.5339 90.6697C65.5339 90.6697 65.5338 90.6696 65.5337 90.6696C65.5335 90.6695 65.5333 90.6693 65.5329 90.6691C65.5322 90.6687 65.5311 90.668 65.5297 90.6672C65.5268 90.6655 65.5225 90.663 65.5169 90.6596C65.5056 90.6529 65.4889 90.643 65.467 90.63C65.4232 90.6041 65.3589 90.566 65.2769 90.5173C65.1129 90.4201 64.8777 90.2807 64.5935 90.1123C64.0251 89.7755 63.2604 89.3224 62.4749 88.8573C60.905 87.9278 59.2494 86.9487 58.9165 86.7565L58.6664 87.1894C58.9963 87.3799 60.6482 88.3568 62.2201 89.2875C63.0056 89.7526 63.7703 90.2056 64.3386 90.5425C64.6228 90.7109 64.8579 90.8502 65.022 90.9475C65.104 90.9961 65.1682 91.0342 65.212 91.0601C65.2339 91.0731 65.2506 91.083 65.2619 91.0897C65.2675 91.093 65.2718 91.0956 65.2747 91.0973C65.2761 91.0981 65.2772 91.0988 65.2779 91.0992C65.2783 91.0994 65.2785 91.0996 65.2787 91.0997C65.2788 91.0997 65.2789 91.0998 65.2789 91.0998C65.279 91.0998 65.279 91.0998 65.4065 90.8848ZM39.7292 132.845L65.6191 91.0164L65.1939 90.7532L39.304 132.582L39.7292 132.845Z" fill="#0D0E0E"/>
<path d="M64.2477 91.1875C65.5535 90.4273 66.6821 91.8329 66.1082 92.8268L45.3591 129.513C44.8512 130.411 45.1438 131.55 46.0215 132.092L68.5314 145.992L55.3913 153.93C54.3719 154.515 52.98 155.084 51.1066 154.002L32.437 143.223C29.7863 141.694 28.9946 138.407 30.7096 135.436L50.0621 101.917C51.1645 100.007 51.8994 98.7344 53.2708 97.8285L64.2477 91.1875Z" fill="#36FFFF" stroke="#0D0E0E" stroke-width="0.5" stroke-miterlimit="10" stroke-linejoin="round"/>
</svg>
